%TF.GenerationSoftware,KiCad,Pcbnew,(6.0.7)*%
%TF.CreationDate,2024-01-18T22:55:21+09:00*%
%TF.ProjectId,pico_tracker_back,7069636f-5f74-4726-9163-6b65725f6261,rev?*%
%TF.SameCoordinates,Original*%
%TF.FileFunction,Profile,NP*%
%FSLAX46Y46*%
G04 Gerber Fmt 4.6, Leading zero omitted, Abs format (unit mm)*
G04 Created by KiCad (PCBNEW (6.0.7)) date 2024-01-18 22:55:21*
%MOMM*%
%LPD*%
G01*
G04 APERTURE LIST*
%ADD10C,0.350000*%
G04 APERTURE END LIST*
D10*
X151457637Y-57499991D02*
X151264700Y-58155849D01*
X151020193Y-58784689D01*
X150726816Y-59384401D01*
X150387269Y-59952875D01*
X150004250Y-60487999D01*
X149580459Y-60987663D01*
X149118596Y-61449757D01*
X148621360Y-61872170D01*
X148091451Y-62252792D01*
X147531569Y-62589512D01*
X146944412Y-62880219D01*
X146332681Y-63122803D01*
X145699076Y-63315153D01*
X145046295Y-63455159D01*
X144377038Y-63540710D01*
X143694005Y-63569697D01*
X82384990Y-159639244D02*
X82281912Y-160003112D01*
X82097272Y-160328191D01*
X81843900Y-160601650D01*
X81534624Y-160810661D01*
X81182274Y-160942395D01*
X81057470Y-160966917D01*
X168576035Y-41102550D02*
X168535469Y-40700151D01*
X168419126Y-40325356D01*
X168235035Y-39986192D01*
X167991224Y-39690691D01*
X167695722Y-39446879D01*
X167356559Y-39262788D01*
X166981763Y-39146445D01*
X166579365Y-39105880D01*
X165280642Y-42319912D02*
X165183994Y-42661048D01*
X165010879Y-42965815D01*
X164728314Y-43259362D01*
X164430785Y-43444062D01*
X164094879Y-43554302D01*
X164036009Y-43564592D01*
X75631579Y-41102550D02*
X75631579Y-162540551D01*
X75631579Y-162540551D02*
X75672144Y-162942949D01*
X75788487Y-163317744D01*
X75972578Y-163656908D01*
X76216390Y-163952409D01*
X76511891Y-164196221D01*
X76851055Y-164380312D01*
X77225850Y-164496655D01*
X77628249Y-164537221D01*
X143694005Y-63569697D02*
X100513631Y-63569697D01*
X163240322Y-157805789D02*
X163636323Y-157792680D01*
X164006231Y-157870365D01*
X164339263Y-158028062D01*
X164624635Y-158254987D01*
X164851564Y-158540357D01*
X165009266Y-158873390D01*
X165086959Y-159243303D01*
X165073859Y-159639313D01*
X155653739Y-40623307D02*
X151457637Y-57499991D01*
X166579365Y-39105880D02*
X157594647Y-39105880D01*
X92750000Y-57500000D02*
X88553876Y-40623304D01*
X86612969Y-39105880D02*
X77628249Y-39105880D01*
X88553876Y-40623304D02*
X88409328Y-40226222D01*
X88190529Y-39876303D01*
X87908024Y-39581789D01*
X87572359Y-39350925D01*
X87194078Y-39191956D01*
X86783727Y-39113126D01*
X86612969Y-39105880D01*
X163746233Y-160966940D02*
X163350223Y-160980040D01*
X162980310Y-160902347D01*
X162647277Y-160744644D01*
X162361906Y-160517716D01*
X162134981Y-160232344D01*
X161977284Y-159899312D01*
X161899599Y-159529403D01*
X161912708Y-159133402D01*
X77628249Y-164537221D02*
X166579365Y-164537221D01*
X80551518Y-157805773D02*
X80947503Y-157792687D01*
X81317393Y-157870383D01*
X81650407Y-158028080D01*
X81935763Y-158254998D01*
X82162681Y-158540354D01*
X82320378Y-158873368D01*
X82398075Y-159243258D01*
X82384990Y-159639244D01*
X161912708Y-159133402D02*
X162015810Y-158769535D01*
X162200472Y-158444462D01*
X162453862Y-158171013D01*
X162763153Y-157962016D01*
X163115514Y-157830302D01*
X163240322Y-157805789D01*
X163561660Y-40601031D02*
X163932912Y-40588734D01*
X164279704Y-40661556D01*
X164663395Y-40856882D01*
X164973324Y-41149669D01*
X165189746Y-41520174D01*
X165282290Y-41859267D01*
X165292243Y-42225356D01*
X165280642Y-42319912D01*
X77628249Y-39105880D02*
X77225850Y-39146445D01*
X76851055Y-39262788D01*
X76511891Y-39446879D01*
X76216390Y-39690691D01*
X75972578Y-39986192D01*
X75788487Y-40325356D01*
X75672144Y-40700151D01*
X75631579Y-41102550D01*
X81057470Y-160966917D02*
X80661432Y-160980049D01*
X80291490Y-160902371D01*
X79958429Y-160744668D01*
X79673035Y-160517727D01*
X79446093Y-160232333D01*
X79288391Y-159899272D01*
X79210712Y-159529329D01*
X79223845Y-159133292D01*
X166579365Y-164537221D02*
X166981763Y-164496655D01*
X167356559Y-164380312D01*
X167695722Y-164196221D01*
X167991224Y-163952409D01*
X168235035Y-163656908D01*
X168419126Y-163317744D01*
X168535469Y-162942949D01*
X168576035Y-162540551D01*
X164036009Y-43564592D02*
X163664747Y-43576879D01*
X163317949Y-43504047D01*
X162934257Y-43308706D01*
X162624331Y-43015907D01*
X162407917Y-42645395D01*
X162315382Y-42306301D01*
X162305440Y-41940218D01*
X162317045Y-41845665D01*
X157594647Y-39105880D02*
X157174419Y-39150346D01*
X156782045Y-39278249D01*
X156428068Y-39481345D01*
X156123033Y-39751388D01*
X155877486Y-40080135D01*
X155701973Y-40459342D01*
X155653739Y-40623307D01*
X162317045Y-41845665D02*
X162413699Y-41504543D01*
X162586815Y-41199790D01*
X162869376Y-40906256D01*
X163166897Y-40721562D01*
X163502791Y-40611321D01*
X163561660Y-40601031D01*
X79223845Y-159133292D02*
X79326968Y-158769435D01*
X79511646Y-158444376D01*
X79765048Y-158170943D01*
X80074346Y-157961968D01*
X80426710Y-157830277D01*
X80551518Y-157805773D01*
X165073859Y-159639313D02*
X164970762Y-160003187D01*
X164786101Y-160328267D01*
X164532707Y-160601721D01*
X164223411Y-160810718D01*
X163871043Y-160942429D01*
X163746233Y-160966940D01*
X100513631Y-63569697D02*
X99830598Y-63540710D01*
X99161342Y-63455159D01*
X98508561Y-63315153D01*
X97874956Y-63122803D01*
X97263225Y-62880220D01*
X96676069Y-62589513D01*
X96116187Y-62252794D01*
X95586278Y-61872173D01*
X95089043Y-61449761D01*
X94627180Y-60987668D01*
X94203389Y-60488004D01*
X93820369Y-59952881D01*
X93480821Y-59384408D01*
X93187444Y-58784697D01*
X92942937Y-58155857D01*
X92750000Y-57500000D01*
X168576035Y-162540551D02*
X168576035Y-41102550D01*
M02*
