%TF.GenerationSoftware,KiCad,Pcbnew,(6.0.7)*%
%TF.CreationDate,2024-01-18T22:55:21+09:00*%
%TF.ProjectId,pico_tracker_back,7069636f-5f74-4726-9163-6b65725f6261,rev?*%
%TF.SameCoordinates,Original*%
%TF.FileFunction,Legend,Top*%
%TF.FilePolarity,Positive*%
%FSLAX46Y46*%
G04 Gerber Fmt 4.6, Leading zero omitted, Abs format (unit mm)*
G04 Created by KiCad (PCBNEW (6.0.7)) date 2024-01-18 22:55:21*
%MOMM*%
%LPD*%
G01*
G04 APERTURE LIST*
%ADD10C,0.200000*%
%ADD11C,0.010000*%
G04 APERTURE END LIST*
D10*
X97528571Y-160292857D02*
X97528571Y-159492857D01*
X97528571Y-159092857D02*
X97471428Y-159150000D01*
X97528571Y-159207142D01*
X97585714Y-159150000D01*
X97528571Y-159092857D01*
X97528571Y-159207142D01*
X98100000Y-159492857D02*
X98100000Y-160521428D01*
X98042857Y-160635714D01*
X97928571Y-160692857D01*
X97871428Y-160692857D01*
X98100000Y-159092857D02*
X98042857Y-159150000D01*
X98100000Y-159207142D01*
X98157142Y-159150000D01*
X98100000Y-159092857D01*
X98100000Y-159207142D01*
X98671428Y-159492857D02*
X98671428Y-160292857D01*
X98671428Y-159607142D02*
X98728571Y-159550000D01*
X98842857Y-159492857D01*
X99014285Y-159492857D01*
X99128571Y-159550000D01*
X99185714Y-159664285D01*
X99185714Y-160292857D01*
X100214285Y-160235714D02*
X100100000Y-160292857D01*
X99871428Y-160292857D01*
X99757142Y-160235714D01*
X99700000Y-160121428D01*
X99700000Y-159664285D01*
X99757142Y-159550000D01*
X99871428Y-159492857D01*
X100100000Y-159492857D01*
X100214285Y-159550000D01*
X100271428Y-159664285D01*
X100271428Y-159778571D01*
X99700000Y-159892857D01*
X100785714Y-160292857D02*
X100785714Y-159092857D01*
X100900000Y-159835714D02*
X101242857Y-160292857D01*
X101242857Y-159492857D02*
X100785714Y-159950000D01*
X102214285Y-160235714D02*
X102100000Y-160292857D01*
X101871428Y-160292857D01*
X101757142Y-160235714D01*
X101700000Y-160121428D01*
X101700000Y-159664285D01*
X101757142Y-159550000D01*
X101871428Y-159492857D01*
X102100000Y-159492857D01*
X102214285Y-159550000D01*
X102271428Y-159664285D01*
X102271428Y-159778571D01*
X101700000Y-159892857D01*
X102785714Y-159492857D02*
X102785714Y-160292857D01*
X102785714Y-159607142D02*
X102842857Y-159550000D01*
X102957142Y-159492857D01*
X103128571Y-159492857D01*
X103242857Y-159550000D01*
X103300000Y-159664285D01*
X103300000Y-160292857D01*
X104385714Y-160292857D02*
X104385714Y-159664285D01*
X104328571Y-159550000D01*
X104214285Y-159492857D01*
X103985714Y-159492857D01*
X103871428Y-159550000D01*
X104385714Y-160235714D02*
X104271428Y-160292857D01*
X103985714Y-160292857D01*
X103871428Y-160235714D01*
X103814285Y-160121428D01*
X103814285Y-160007142D01*
X103871428Y-159892857D01*
X103985714Y-159835714D01*
X104271428Y-159835714D01*
X104385714Y-159778571D01*
X104957142Y-160292857D02*
X104957142Y-159492857D01*
X104957142Y-159607142D02*
X105014285Y-159550000D01*
X105128571Y-159492857D01*
X105300000Y-159492857D01*
X105414285Y-159550000D01*
X105471428Y-159664285D01*
X105471428Y-160292857D01*
X105471428Y-159664285D02*
X105528571Y-159550000D01*
X105642857Y-159492857D01*
X105814285Y-159492857D01*
X105928571Y-159550000D01*
X105985714Y-159664285D01*
X105985714Y-160292857D01*
X107071428Y-160292857D02*
X107071428Y-159664285D01*
X107014285Y-159550000D01*
X106900000Y-159492857D01*
X106671428Y-159492857D01*
X106557142Y-159550000D01*
X107071428Y-160235714D02*
X106957142Y-160292857D01*
X106671428Y-160292857D01*
X106557142Y-160235714D01*
X106500000Y-160121428D01*
X106500000Y-160007142D01*
X106557142Y-159892857D01*
X106671428Y-159835714D01*
X106957142Y-159835714D01*
X107071428Y-159778571D01*
X107528571Y-159492857D02*
X107814285Y-160292857D01*
X108100000Y-159492857D02*
X107814285Y-160292857D01*
X107700000Y-160578571D01*
X107642857Y-160635714D01*
X107528571Y-160692857D01*
X109414285Y-159207142D02*
X109471428Y-159150000D01*
X109585714Y-159092857D01*
X109871428Y-159092857D01*
X109985714Y-159150000D01*
X110042857Y-159207142D01*
X110100000Y-159321428D01*
X110100000Y-159435714D01*
X110042857Y-159607142D01*
X109357142Y-160292857D01*
X110100000Y-160292857D01*
X110842857Y-159092857D02*
X110957142Y-159092857D01*
X111071428Y-159150000D01*
X111128571Y-159207142D01*
X111185714Y-159321428D01*
X111242857Y-159550000D01*
X111242857Y-159835714D01*
X111185714Y-160064285D01*
X111128571Y-160178571D01*
X111071428Y-160235714D01*
X110957142Y-160292857D01*
X110842857Y-160292857D01*
X110728571Y-160235714D01*
X110671428Y-160178571D01*
X110614285Y-160064285D01*
X110557142Y-159835714D01*
X110557142Y-159550000D01*
X110614285Y-159321428D01*
X110671428Y-159207142D01*
X110728571Y-159150000D01*
X110842857Y-159092857D01*
X111700000Y-159207142D02*
X111757142Y-159150000D01*
X111871428Y-159092857D01*
X112157142Y-159092857D01*
X112271428Y-159150000D01*
X112328571Y-159207142D01*
X112385714Y-159321428D01*
X112385714Y-159435714D01*
X112328571Y-159607142D01*
X111642857Y-160292857D01*
X112385714Y-160292857D01*
X113414285Y-159492857D02*
X113414285Y-160292857D01*
X113128571Y-159035714D02*
X112842857Y-159892857D01*
X113585714Y-159892857D01*
X79202380Y-70619047D02*
X79916666Y-70619047D01*
X80059523Y-70666666D01*
X80154761Y-70761904D01*
X80202380Y-70904761D01*
X80202380Y-71000000D01*
X80202380Y-69666666D02*
X80202380Y-70142857D01*
X79202380Y-70142857D01*
X80107142Y-68761904D02*
X80154761Y-68809523D01*
X80202380Y-68952380D01*
X80202380Y-69047619D01*
X80154761Y-69190476D01*
X80059523Y-69285714D01*
X79964285Y-69333333D01*
X79773809Y-69380952D01*
X79630952Y-69380952D01*
X79440476Y-69333333D01*
X79345238Y-69285714D01*
X79250000Y-69190476D01*
X79202380Y-69047619D01*
X79202380Y-68952380D01*
X79250000Y-68809523D01*
X79297619Y-68761904D01*
X79202380Y-68047619D02*
X79916666Y-68047619D01*
X80059523Y-68095238D01*
X80154761Y-68190476D01*
X80202380Y-68333333D01*
X80202380Y-68428571D01*
X80202380Y-67095238D02*
X80202380Y-67571428D01*
X79202380Y-67571428D01*
X80107142Y-66190476D02*
X80154761Y-66238095D01*
X80202380Y-66380952D01*
X80202380Y-66476190D01*
X80154761Y-66619047D01*
X80059523Y-66714285D01*
X79964285Y-66761904D01*
X79773809Y-66809523D01*
X79630952Y-66809523D01*
X79440476Y-66761904D01*
X79345238Y-66714285D01*
X79250000Y-66619047D01*
X79202380Y-66476190D01*
X79202380Y-66380952D01*
X79250000Y-66238095D01*
X79297619Y-66190476D01*
X79202380Y-65476190D02*
X79916666Y-65476190D01*
X80059523Y-65523809D01*
X80154761Y-65619047D01*
X80202380Y-65761904D01*
X80202380Y-65857142D01*
X80202380Y-64523809D02*
X80202380Y-65000000D01*
X79202380Y-65000000D01*
X80107142Y-63619047D02*
X80154761Y-63666666D01*
X80202380Y-63809523D01*
X80202380Y-63904761D01*
X80154761Y-64047619D01*
X80059523Y-64142857D01*
X79964285Y-64190476D01*
X79773809Y-64238095D01*
X79630952Y-64238095D01*
X79440476Y-64190476D01*
X79345238Y-64142857D01*
X79250000Y-64047619D01*
X79202380Y-63904761D01*
X79202380Y-63809523D01*
X79250000Y-63666666D01*
X79297619Y-63619047D01*
X79202380Y-62904761D02*
X79916666Y-62904761D01*
X80059523Y-62952380D01*
X80154761Y-63047619D01*
X80202380Y-63190476D01*
X80202380Y-63285714D01*
X80202380Y-61952380D02*
X80202380Y-62428571D01*
X79202380Y-62428571D01*
X80107142Y-61047619D02*
X80154761Y-61095238D01*
X80202380Y-61238095D01*
X80202380Y-61333333D01*
X80154761Y-61476190D01*
X80059523Y-61571428D01*
X79964285Y-61619047D01*
X79773809Y-61666666D01*
X79630952Y-61666666D01*
X79440476Y-61619047D01*
X79345238Y-61571428D01*
X79250000Y-61476190D01*
X79202380Y-61333333D01*
X79202380Y-61238095D01*
X79250000Y-61095238D01*
X79297619Y-61047619D01*
%TO.C,G3*%
G36*
X130077702Y-158577702D02*
G01*
X129133783Y-158577702D01*
X129133783Y-158091441D01*
X129591441Y-158091441D01*
X129591441Y-157633783D01*
X130077702Y-157633783D01*
X130077702Y-158577702D01*
G37*
G36*
X130077702Y-147479504D02*
G01*
X130077702Y-149882207D01*
X127675000Y-149882207D01*
X127675000Y-149395946D01*
X128161261Y-149395946D01*
X129591441Y-149395946D01*
X129591441Y-147965765D01*
X128161261Y-147965765D01*
X128161261Y-149395946D01*
X127675000Y-149395946D01*
X127675000Y-147479504D01*
X130077702Y-147479504D01*
G37*
G36*
X123327252Y-158091441D02*
G01*
X122840991Y-158091441D01*
X122840991Y-157633783D01*
X123327252Y-157633783D01*
X123327252Y-158091441D01*
G37*
G36*
X128161261Y-155202477D02*
G01*
X128161261Y-156661261D01*
X126702477Y-156661261D01*
X126702477Y-156175000D01*
X127188738Y-156175000D01*
X127675000Y-156175000D01*
X127675000Y-155688738D01*
X127188738Y-155688738D01*
X127188738Y-156175000D01*
X126702477Y-156175000D01*
X126702477Y-155202477D01*
X128161261Y-155202477D01*
G37*
G36*
X129133783Y-157147522D02*
G01*
X128647522Y-157147522D01*
X128647522Y-156661261D01*
X129133783Y-156661261D01*
X129133783Y-157147522D01*
G37*
G36*
X121382207Y-153257432D02*
G01*
X122354729Y-153257432D01*
X122354729Y-151827252D01*
X122840991Y-151827252D01*
X122840991Y-153257432D01*
X123327252Y-153257432D01*
X123327252Y-152799774D01*
X123813513Y-152799774D01*
X123813513Y-152313513D01*
X123327252Y-152313513D01*
X123327252Y-151340991D01*
X123813513Y-151340991D01*
X123813513Y-151827252D01*
X124299774Y-151827252D01*
X124299774Y-151340991D01*
X124757432Y-151340991D01*
X124757432Y-151827252D01*
X125243693Y-151827252D01*
X125243693Y-151340991D01*
X126216216Y-151340991D01*
X126216216Y-151827252D01*
X125729955Y-151827252D01*
X125729955Y-152313513D01*
X125243693Y-152313513D01*
X125243693Y-152799774D01*
X124757432Y-152799774D01*
X124757432Y-152313513D01*
X124299774Y-152313513D01*
X124299774Y-153257432D01*
X123327252Y-153257432D01*
X123327252Y-153743693D01*
X124299774Y-153743693D01*
X124299774Y-154229955D01*
X125243693Y-154229955D01*
X125729955Y-154229955D01*
X126216216Y-154229955D01*
X126216216Y-153743693D01*
X125729955Y-153743693D01*
X125729955Y-154229955D01*
X125243693Y-154229955D01*
X125243693Y-153257432D01*
X125729955Y-153257432D01*
X125729955Y-152313513D01*
X126216216Y-152313513D01*
X126216216Y-152799774D01*
X126702477Y-152799774D01*
X126702477Y-154229955D01*
X127188738Y-154229955D01*
X127188738Y-154716216D01*
X124299774Y-154716216D01*
X124299774Y-154229955D01*
X123813513Y-154229955D01*
X123813513Y-155688738D01*
X124299774Y-155688738D01*
X124299774Y-155202477D01*
X124757432Y-155202477D01*
X124757432Y-156175000D01*
X125729955Y-156175000D01*
X125729955Y-155688738D01*
X126216216Y-155688738D01*
X126216216Y-156661261D01*
X124299774Y-156661261D01*
X124299774Y-157147522D01*
X122840991Y-157147522D01*
X122840991Y-156661261D01*
X123327252Y-156661261D01*
X123327252Y-156175000D01*
X122840991Y-156175000D01*
X122840991Y-155202477D01*
X122354729Y-155202477D01*
X122354729Y-154716216D01*
X122840991Y-154716216D01*
X123327252Y-154716216D01*
X123327252Y-154229955D01*
X122840991Y-154229955D01*
X122840991Y-154716216D01*
X122354729Y-154716216D01*
X121382207Y-154716216D01*
X121382207Y-154229955D01*
X122840991Y-154229955D01*
X122840991Y-153743693D01*
X121382207Y-153743693D01*
X121382207Y-153257432D01*
G37*
G36*
X129133783Y-156175000D02*
G01*
X128647522Y-156175000D01*
X128647522Y-155688738D01*
X129133783Y-155688738D01*
X129133783Y-156175000D01*
G37*
G36*
X127675000Y-153743693D02*
G01*
X127188738Y-153743693D01*
X127188738Y-153257432D01*
X127675000Y-153257432D01*
X127675000Y-153743693D01*
G37*
G36*
X132022747Y-145505856D02*
G01*
X132022747Y-160522747D01*
X117005856Y-160522747D01*
X117005856Y-159063964D01*
X118493243Y-159063964D01*
X121868468Y-159063964D01*
X121868468Y-155688738D01*
X118493243Y-155688738D01*
X118493243Y-159063964D01*
X117005856Y-159063964D01*
X117005856Y-155202477D01*
X118493243Y-155202477D01*
X118979504Y-155202477D01*
X119465765Y-155202477D01*
X120409684Y-155202477D01*
X120409684Y-154716216D01*
X119465765Y-154716216D01*
X119465765Y-155202477D01*
X118979504Y-155202477D01*
X118979504Y-154229955D01*
X120409684Y-154229955D01*
X120895946Y-154229955D01*
X120895946Y-154716216D01*
X121382207Y-154716216D01*
X121382207Y-155202477D01*
X122354729Y-155202477D01*
X122354729Y-156175000D01*
X122840991Y-156175000D01*
X122840991Y-156661261D01*
X122354729Y-156661261D01*
X122354729Y-159063964D01*
X122840991Y-159063964D01*
X122840991Y-158577702D01*
X123813513Y-158577702D01*
X123813513Y-159063964D01*
X125729955Y-159063964D01*
X125729955Y-158577702D01*
X126216216Y-158577702D01*
X126702477Y-158577702D01*
X126702477Y-158091441D01*
X126216216Y-158091441D01*
X126216216Y-158577702D01*
X125729955Y-158577702D01*
X125729955Y-157633783D01*
X125243693Y-157633783D01*
X125243693Y-158577702D01*
X124757432Y-158577702D01*
X124757432Y-158091441D01*
X123813513Y-158091441D01*
X123813513Y-157633783D01*
X124299774Y-157633783D01*
X124299774Y-157147522D01*
X126702477Y-157147522D01*
X126702477Y-157633783D01*
X127675000Y-157633783D01*
X127675000Y-157147522D01*
X128161261Y-157147522D01*
X128161261Y-157633783D01*
X128647522Y-157633783D01*
X128647522Y-158091441D01*
X127675000Y-158091441D01*
X127675000Y-158577702D01*
X127188738Y-158577702D01*
X127188738Y-159063964D01*
X130563964Y-159063964D01*
X130563964Y-157147522D01*
X130077702Y-157147522D01*
X130077702Y-156661261D01*
X129133783Y-156661261D01*
X129133783Y-156175000D01*
X130563964Y-156175000D01*
X130563964Y-155688738D01*
X129133783Y-155688738D01*
X129133783Y-155202477D01*
X129591441Y-155202477D01*
X129591441Y-154716216D01*
X129133783Y-154716216D01*
X129133783Y-155202477D01*
X128647522Y-155202477D01*
X128647522Y-154229955D01*
X129133783Y-154229955D01*
X129133783Y-153257432D01*
X129591441Y-153257432D01*
X129591441Y-154229955D01*
X130077702Y-154229955D01*
X130077702Y-154716216D01*
X130563964Y-154716216D01*
X130563964Y-153743693D01*
X130077702Y-153743693D01*
X130077702Y-153257432D01*
X130563964Y-153257432D01*
X130563964Y-151827252D01*
X130077702Y-151827252D01*
X130077702Y-150854729D01*
X129591441Y-150854729D01*
X129591441Y-152313513D01*
X130077702Y-152313513D01*
X130077702Y-152799774D01*
X129133783Y-152799774D01*
X129133783Y-153257432D01*
X128647522Y-153257432D01*
X128647522Y-152799774D01*
X128161261Y-152799774D01*
X128161261Y-152313513D01*
X129133783Y-152313513D01*
X129133783Y-151827252D01*
X128161261Y-151827252D01*
X128161261Y-151340991D01*
X128647522Y-151340991D01*
X129133783Y-151340991D01*
X129133783Y-150854729D01*
X128647522Y-150854729D01*
X128647522Y-151340991D01*
X128161261Y-151340991D01*
X128161261Y-150854729D01*
X127675000Y-150854729D01*
X127675000Y-152313513D01*
X126216216Y-152313513D01*
X126216216Y-151827252D01*
X126702477Y-151827252D01*
X126702477Y-151340991D01*
X127188738Y-151340991D01*
X127188738Y-150854729D01*
X126702477Y-150854729D01*
X126702477Y-151340991D01*
X126216216Y-151340991D01*
X126216216Y-150854729D01*
X125729955Y-150854729D01*
X125729955Y-149882207D01*
X126216216Y-149882207D01*
X126216216Y-150368468D01*
X126702477Y-150368468D01*
X127188738Y-150368468D01*
X130563964Y-150368468D01*
X130563964Y-146993243D01*
X127188738Y-146993243D01*
X127188738Y-150368468D01*
X126702477Y-150368468D01*
X126702477Y-148909684D01*
X126216216Y-148909684D01*
X126216216Y-149395946D01*
X125243693Y-149395946D01*
X125243693Y-148423423D01*
X125729955Y-148423423D01*
X125729955Y-147965765D01*
X126216216Y-147965765D01*
X126216216Y-148423423D01*
X126702477Y-148423423D01*
X126702477Y-146993243D01*
X126216216Y-146993243D01*
X126216216Y-147479504D01*
X125243693Y-147479504D01*
X125243693Y-148423423D01*
X124757432Y-148423423D01*
X124757432Y-147965765D01*
X124299774Y-147965765D01*
X124299774Y-148909684D01*
X123813513Y-148909684D01*
X123813513Y-149395946D01*
X123327252Y-149395946D01*
X123327252Y-150368468D01*
X123813513Y-150368468D01*
X123813513Y-149395946D01*
X124299774Y-149395946D01*
X124299774Y-148909684D01*
X124757432Y-148909684D01*
X124757432Y-149882207D01*
X124299774Y-149882207D01*
X124299774Y-150368468D01*
X124757432Y-150368468D01*
X124757432Y-149882207D01*
X125243693Y-149882207D01*
X125243693Y-150854729D01*
X121382207Y-150854729D01*
X121382207Y-151340991D01*
X121868468Y-151340991D01*
X121868468Y-151827252D01*
X121382207Y-151827252D01*
X121382207Y-152313513D01*
X121868468Y-152313513D01*
X121868468Y-152799774D01*
X121382207Y-152799774D01*
X121382207Y-153257432D01*
X120895946Y-153257432D01*
X120895946Y-153743693D01*
X120409684Y-153743693D01*
X120409684Y-154229955D01*
X118979504Y-154229955D01*
X118979504Y-153743693D01*
X119465765Y-153743693D01*
X119923423Y-153743693D01*
X120409684Y-153743693D01*
X120409684Y-153257432D01*
X119923423Y-153257432D01*
X119923423Y-153743693D01*
X119465765Y-153743693D01*
X119465765Y-153257432D01*
X119923423Y-153257432D01*
X119923423Y-152799774D01*
X120895946Y-152799774D01*
X120895946Y-152313513D01*
X119923423Y-152313513D01*
X119923423Y-152799774D01*
X119465765Y-152799774D01*
X119465765Y-153257432D01*
X118979504Y-153257432D01*
X118979504Y-152799774D01*
X118493243Y-152799774D01*
X118493243Y-155202477D01*
X117005856Y-155202477D01*
X117005856Y-152313513D01*
X119465765Y-152313513D01*
X119923423Y-152313513D01*
X119923423Y-151827252D01*
X119465765Y-151827252D01*
X119465765Y-152313513D01*
X117005856Y-152313513D01*
X117005856Y-151340991D01*
X118493243Y-151340991D01*
X120895946Y-151340991D01*
X120895946Y-150854729D01*
X118493243Y-150854729D01*
X118493243Y-151340991D01*
X117005856Y-151340991D01*
X117005856Y-150368468D01*
X118493243Y-150368468D01*
X121868468Y-150368468D01*
X122354729Y-150368468D01*
X122840991Y-150368468D01*
X122840991Y-149395946D01*
X122354729Y-149395946D01*
X122354729Y-150368468D01*
X121868468Y-150368468D01*
X121868468Y-148909684D01*
X122354729Y-148909684D01*
X123327252Y-148909684D01*
X123327252Y-148423423D01*
X123813513Y-148423423D01*
X123813513Y-147965765D01*
X123327252Y-147965765D01*
X123327252Y-147479504D01*
X124299774Y-147479504D01*
X124757432Y-147479504D01*
X125243693Y-147479504D01*
X125243693Y-146993243D01*
X124757432Y-146993243D01*
X124757432Y-147479504D01*
X124299774Y-147479504D01*
X124299774Y-146993243D01*
X123327252Y-146993243D01*
X123327252Y-147479504D01*
X122354729Y-147479504D01*
X122354729Y-147965765D01*
X122840991Y-147965765D01*
X122840991Y-148423423D01*
X122354729Y-148423423D01*
X122354729Y-148909684D01*
X121868468Y-148909684D01*
X121868468Y-146993243D01*
X118493243Y-146993243D01*
X118493243Y-150368468D01*
X117005856Y-150368468D01*
X117005856Y-145505856D01*
X132022747Y-145505856D01*
G37*
G36*
X128647522Y-153743693D02*
G01*
X128161261Y-153743693D01*
X128161261Y-153257432D01*
X128647522Y-153257432D01*
X128647522Y-153743693D01*
G37*
G36*
X125729955Y-155688738D02*
G01*
X125243693Y-155688738D01*
X125243693Y-155202477D01*
X125729955Y-155202477D01*
X125729955Y-155688738D01*
G37*
G36*
X128161261Y-153257432D02*
G01*
X127675000Y-153257432D01*
X127675000Y-152799774D01*
X128161261Y-152799774D01*
X128161261Y-153257432D01*
G37*
G36*
X124757432Y-153743693D02*
G01*
X124299774Y-153743693D01*
X124299774Y-153257432D01*
X124757432Y-153257432D01*
X124757432Y-153743693D01*
G37*
G36*
X121382207Y-156175000D02*
G01*
X121382207Y-158577702D01*
X118979504Y-158577702D01*
X118979504Y-158091441D01*
X119465765Y-158091441D01*
X120895946Y-158091441D01*
X120895946Y-156661261D01*
X119465765Y-156661261D01*
X119465765Y-158091441D01*
X118979504Y-158091441D01*
X118979504Y-156175000D01*
X121382207Y-156175000D01*
G37*
G36*
X121382207Y-147479504D02*
G01*
X121382207Y-149882207D01*
X118979504Y-149882207D01*
X118979504Y-149395946D01*
X119465765Y-149395946D01*
X120895946Y-149395946D01*
X120895946Y-147965765D01*
X119465765Y-147965765D01*
X119465765Y-149395946D01*
X118979504Y-149395946D01*
X118979504Y-147479504D01*
X121382207Y-147479504D01*
G37*
%TO.C,REF\u002A\u002A*%
G36*
X89803501Y-160126303D02*
G01*
X89880060Y-160154733D01*
X89880936Y-160155279D01*
X89928285Y-160190127D01*
X89963241Y-160230852D01*
X89987825Y-160283925D01*
X90004062Y-160355814D01*
X90013975Y-160452992D01*
X90019586Y-160581928D01*
X90020077Y-160600298D01*
X90027141Y-160877287D01*
X89967695Y-160908028D01*
X89924681Y-160928802D01*
X89898710Y-160938646D01*
X89897509Y-160938769D01*
X89893014Y-160920606D01*
X89889444Y-160871612D01*
X89887248Y-160800031D01*
X89886769Y-160742068D01*
X89886758Y-160648170D01*
X89882466Y-160589203D01*
X89867503Y-160561079D01*
X89835482Y-160559706D01*
X89780014Y-160580998D01*
X89696269Y-160620136D01*
X89634689Y-160652643D01*
X89603017Y-160680845D01*
X89593706Y-160711582D01*
X89593692Y-160713104D01*
X89609057Y-160766054D01*
X89654547Y-160794660D01*
X89724166Y-160798803D01*
X89774313Y-160798084D01*
X89800754Y-160812527D01*
X89817243Y-160847218D01*
X89826733Y-160891416D01*
X89813057Y-160916493D01*
X89807907Y-160920082D01*
X89759425Y-160934496D01*
X89691531Y-160936537D01*
X89621612Y-160926983D01*
X89572068Y-160909522D01*
X89503570Y-160851364D01*
X89464634Y-160770408D01*
X89456923Y-160707160D01*
X89462807Y-160650111D01*
X89484101Y-160603542D01*
X89526265Y-160562181D01*
X89594759Y-160520755D01*
X89695044Y-160473993D01*
X89701154Y-160471350D01*
X89791490Y-160429617D01*
X89847235Y-160395391D01*
X89871129Y-160364635D01*
X89865913Y-160333311D01*
X89834328Y-160297383D01*
X89824883Y-160289116D01*
X89761617Y-160257058D01*
X89696064Y-160258407D01*
X89638972Y-160289838D01*
X89601093Y-160348024D01*
X89597574Y-160359446D01*
X89563300Y-160414837D01*
X89519809Y-160441518D01*
X89456923Y-160467960D01*
X89456923Y-160399548D01*
X89476052Y-160300110D01*
X89532831Y-160208902D01*
X89562378Y-160178389D01*
X89629542Y-160139228D01*
X89714956Y-160121500D01*
X89803501Y-160126303D01*
G37*
D11*
X89803501Y-160126303D02*
X89880060Y-160154733D01*
X89880936Y-160155279D01*
X89928285Y-160190127D01*
X89963241Y-160230852D01*
X89987825Y-160283925D01*
X90004062Y-160355814D01*
X90013975Y-160452992D01*
X90019586Y-160581928D01*
X90020077Y-160600298D01*
X90027141Y-160877287D01*
X89967695Y-160908028D01*
X89924681Y-160928802D01*
X89898710Y-160938646D01*
X89897509Y-160938769D01*
X89893014Y-160920606D01*
X89889444Y-160871612D01*
X89887248Y-160800031D01*
X89886769Y-160742068D01*
X89886758Y-160648170D01*
X89882466Y-160589203D01*
X89867503Y-160561079D01*
X89835482Y-160559706D01*
X89780014Y-160580998D01*
X89696269Y-160620136D01*
X89634689Y-160652643D01*
X89603017Y-160680845D01*
X89593706Y-160711582D01*
X89593692Y-160713104D01*
X89609057Y-160766054D01*
X89654547Y-160794660D01*
X89724166Y-160798803D01*
X89774313Y-160798084D01*
X89800754Y-160812527D01*
X89817243Y-160847218D01*
X89826733Y-160891416D01*
X89813057Y-160916493D01*
X89807907Y-160920082D01*
X89759425Y-160934496D01*
X89691531Y-160936537D01*
X89621612Y-160926983D01*
X89572068Y-160909522D01*
X89503570Y-160851364D01*
X89464634Y-160770408D01*
X89456923Y-160707160D01*
X89462807Y-160650111D01*
X89484101Y-160603542D01*
X89526265Y-160562181D01*
X89594759Y-160520755D01*
X89695044Y-160473993D01*
X89701154Y-160471350D01*
X89791490Y-160429617D01*
X89847235Y-160395391D01*
X89871129Y-160364635D01*
X89865913Y-160333311D01*
X89834328Y-160297383D01*
X89824883Y-160289116D01*
X89761617Y-160257058D01*
X89696064Y-160258407D01*
X89638972Y-160289838D01*
X89601093Y-160348024D01*
X89597574Y-160359446D01*
X89563300Y-160414837D01*
X89519809Y-160441518D01*
X89456923Y-160467960D01*
X89456923Y-160399548D01*
X89476052Y-160300110D01*
X89532831Y-160208902D01*
X89562378Y-160178389D01*
X89629542Y-160139228D01*
X89714956Y-160121500D01*
X89803501Y-160126303D01*
G36*
X86106873Y-160394679D02*
G01*
X86110606Y-160330905D01*
X86115907Y-160285582D01*
X86123258Y-160253555D01*
X86133143Y-160229668D01*
X86146046Y-160208764D01*
X86151579Y-160200898D01*
X86224969Y-160126595D01*
X86317760Y-160084467D01*
X86425096Y-160072722D01*
X86518886Y-160084505D01*
X86593539Y-160121727D01*
X86659431Y-160190261D01*
X86677577Y-160215648D01*
X86697345Y-160248866D01*
X86710172Y-160284945D01*
X86717510Y-160333098D01*
X86720813Y-160402536D01*
X86721538Y-160494206D01*
X86718263Y-160619830D01*
X86706877Y-160714154D01*
X86685041Y-160784523D01*
X86650419Y-160838286D01*
X86600670Y-160882788D01*
X86597014Y-160885423D01*
X86547985Y-160912377D01*
X86488945Y-160925712D01*
X86413859Y-160929000D01*
X86291795Y-160929000D01*
X86291744Y-161047497D01*
X86290608Y-161113492D01*
X86283686Y-161152202D01*
X86265598Y-161175419D01*
X86230962Y-161194933D01*
X86222645Y-161198920D01*
X86183720Y-161217603D01*
X86153583Y-161229403D01*
X86131174Y-161230422D01*
X86115433Y-161216761D01*
X86105302Y-161184522D01*
X86099723Y-161129804D01*
X86097635Y-161048711D01*
X86097981Y-160937344D01*
X86099700Y-160791802D01*
X86100237Y-160748269D01*
X86102172Y-160598205D01*
X86103904Y-160500042D01*
X86291692Y-160500042D01*
X86292748Y-160583364D01*
X86297438Y-160637880D01*
X86308051Y-160673837D01*
X86326872Y-160701482D01*
X86339650Y-160714965D01*
X86391890Y-160754417D01*
X86438142Y-160757628D01*
X86485867Y-160725049D01*
X86487077Y-160723846D01*
X86506494Y-160698668D01*
X86518307Y-160664447D01*
X86524265Y-160611748D01*
X86526120Y-160531131D01*
X86526154Y-160513271D01*
X86521670Y-160402175D01*
X86507074Y-160325161D01*
X86480650Y-160278147D01*
X86440683Y-160257050D01*
X86417584Y-160254923D01*
X86362762Y-160264900D01*
X86325158Y-160297752D01*
X86302523Y-160357857D01*
X86292606Y-160449598D01*
X86291692Y-160500042D01*
X86103904Y-160500042D01*
X86104222Y-160482060D01*
X86106873Y-160394679D01*
G37*
X86106873Y-160394679D02*
X86110606Y-160330905D01*
X86115907Y-160285582D01*
X86123258Y-160253555D01*
X86133143Y-160229668D01*
X86146046Y-160208764D01*
X86151579Y-160200898D01*
X86224969Y-160126595D01*
X86317760Y-160084467D01*
X86425096Y-160072722D01*
X86518886Y-160084505D01*
X86593539Y-160121727D01*
X86659431Y-160190261D01*
X86677577Y-160215648D01*
X86697345Y-160248866D01*
X86710172Y-160284945D01*
X86717510Y-160333098D01*
X86720813Y-160402536D01*
X86721538Y-160494206D01*
X86718263Y-160619830D01*
X86706877Y-160714154D01*
X86685041Y-160784523D01*
X86650419Y-160838286D01*
X86600670Y-160882788D01*
X86597014Y-160885423D01*
X86547985Y-160912377D01*
X86488945Y-160925712D01*
X86413859Y-160929000D01*
X86291795Y-160929000D01*
X86291744Y-161047497D01*
X86290608Y-161113492D01*
X86283686Y-161152202D01*
X86265598Y-161175419D01*
X86230962Y-161194933D01*
X86222645Y-161198920D01*
X86183720Y-161217603D01*
X86153583Y-161229403D01*
X86131174Y-161230422D01*
X86115433Y-161216761D01*
X86105302Y-161184522D01*
X86099723Y-161129804D01*
X86097635Y-161048711D01*
X86097981Y-160937344D01*
X86099700Y-160791802D01*
X86100237Y-160748269D01*
X86102172Y-160598205D01*
X86103904Y-160500042D01*
X86291692Y-160500042D01*
X86292748Y-160583364D01*
X86297438Y-160637880D01*
X86308051Y-160673837D01*
X86326872Y-160701482D01*
X86339650Y-160714965D01*
X86391890Y-160754417D01*
X86438142Y-160757628D01*
X86485867Y-160725049D01*
X86487077Y-160723846D01*
X86506494Y-160698668D01*
X86518307Y-160664447D01*
X86524265Y-160611748D01*
X86526120Y-160531131D01*
X86526154Y-160513271D01*
X86521670Y-160402175D01*
X86507074Y-160325161D01*
X86480650Y-160278147D01*
X86440683Y-160257050D01*
X86417584Y-160254923D01*
X86362762Y-160264900D01*
X86325158Y-160297752D01*
X86302523Y-160357857D01*
X86292606Y-160449598D01*
X86291692Y-160500042D01*
X86103904Y-160500042D01*
X86104222Y-160482060D01*
X86106873Y-160394679D01*
G36*
X86884778Y-160241055D02*
G01*
X86930421Y-160175215D01*
X87012802Y-160108681D01*
X87103546Y-160075676D01*
X87196185Y-160073573D01*
X87284254Y-160099745D01*
X87361286Y-160151567D01*
X87420816Y-160226412D01*
X87456378Y-160321654D01*
X87463571Y-160391756D01*
X87462754Y-160421009D01*
X87455914Y-160443407D01*
X87437112Y-160463474D01*
X87400408Y-160485733D01*
X87339862Y-160514709D01*
X87249534Y-160554927D01*
X87249077Y-160555129D01*
X87165933Y-160593210D01*
X87097753Y-160627025D01*
X87051505Y-160652933D01*
X87034158Y-160667295D01*
X87034154Y-160667411D01*
X87049443Y-160698685D01*
X87085196Y-160733157D01*
X87126242Y-160757990D01*
X87147037Y-160762923D01*
X87203770Y-160745862D01*
X87252627Y-160703133D01*
X87276465Y-160656155D01*
X87299397Y-160621522D01*
X87344318Y-160582081D01*
X87397123Y-160548009D01*
X87443710Y-160529480D01*
X87453452Y-160528462D01*
X87464418Y-160545215D01*
X87465079Y-160588039D01*
X87457020Y-160645781D01*
X87441827Y-160707289D01*
X87421086Y-160761409D01*
X87420038Y-160763510D01*
X87357621Y-160850660D01*
X87276726Y-160909939D01*
X87184856Y-160939034D01*
X87089513Y-160935634D01*
X86998198Y-160897428D01*
X86994138Y-160894741D01*
X86922306Y-160829642D01*
X86875073Y-160744705D01*
X86848934Y-160633021D01*
X86845426Y-160601643D01*
X86839213Y-160453536D01*
X86846661Y-160384468D01*
X87034154Y-160384468D01*
X87036590Y-160427552D01*
X87049914Y-160440126D01*
X87083132Y-160430719D01*
X87135494Y-160408483D01*
X87194024Y-160380610D01*
X87195479Y-160379872D01*
X87245089Y-160353777D01*
X87265000Y-160336363D01*
X87260090Y-160318107D01*
X87239416Y-160294120D01*
X87186819Y-160259406D01*
X87130177Y-160256856D01*
X87079369Y-160282119D01*
X87044276Y-160330847D01*
X87034154Y-160384468D01*
X86846661Y-160384468D01*
X86851992Y-160335036D01*
X86884778Y-160241055D01*
G37*
X86884778Y-160241055D02*
X86930421Y-160175215D01*
X87012802Y-160108681D01*
X87103546Y-160075676D01*
X87196185Y-160073573D01*
X87284254Y-160099745D01*
X87361286Y-160151567D01*
X87420816Y-160226412D01*
X87456378Y-160321654D01*
X87463571Y-160391756D01*
X87462754Y-160421009D01*
X87455914Y-160443407D01*
X87437112Y-160463474D01*
X87400408Y-160485733D01*
X87339862Y-160514709D01*
X87249534Y-160554927D01*
X87249077Y-160555129D01*
X87165933Y-160593210D01*
X87097753Y-160627025D01*
X87051505Y-160652933D01*
X87034158Y-160667295D01*
X87034154Y-160667411D01*
X87049443Y-160698685D01*
X87085196Y-160733157D01*
X87126242Y-160757990D01*
X87147037Y-160762923D01*
X87203770Y-160745862D01*
X87252627Y-160703133D01*
X87276465Y-160656155D01*
X87299397Y-160621522D01*
X87344318Y-160582081D01*
X87397123Y-160548009D01*
X87443710Y-160529480D01*
X87453452Y-160528462D01*
X87464418Y-160545215D01*
X87465079Y-160588039D01*
X87457020Y-160645781D01*
X87441827Y-160707289D01*
X87421086Y-160761409D01*
X87420038Y-160763510D01*
X87357621Y-160850660D01*
X87276726Y-160909939D01*
X87184856Y-160939034D01*
X87089513Y-160935634D01*
X86998198Y-160897428D01*
X86994138Y-160894741D01*
X86922306Y-160829642D01*
X86875073Y-160744705D01*
X86848934Y-160633021D01*
X86845426Y-160601643D01*
X86839213Y-160453536D01*
X86846661Y-160384468D01*
X87034154Y-160384468D01*
X87036590Y-160427552D01*
X87049914Y-160440126D01*
X87083132Y-160430719D01*
X87135494Y-160408483D01*
X87194024Y-160380610D01*
X87195479Y-160379872D01*
X87245089Y-160353777D01*
X87265000Y-160336363D01*
X87260090Y-160318107D01*
X87239416Y-160294120D01*
X87186819Y-160259406D01*
X87130177Y-160256856D01*
X87079369Y-160282119D01*
X87044276Y-160330847D01*
X87034154Y-160384468D01*
X86846661Y-160384468D01*
X86851992Y-160335036D01*
X86884778Y-160241055D01*
G36*
X90806362Y-160313577D02*
G01*
X90836528Y-160244269D01*
X90883629Y-160190211D01*
X90920312Y-160162505D01*
X90986990Y-160132572D01*
X91064272Y-160118678D01*
X91136110Y-160122397D01*
X91176308Y-160137400D01*
X91192082Y-160141670D01*
X91202550Y-160125750D01*
X91209856Y-160083089D01*
X91215385Y-160018106D01*
X91221437Y-159945732D01*
X91229844Y-159902187D01*
X91245141Y-159877287D01*
X91271864Y-159860845D01*
X91288654Y-159853564D01*
X91352154Y-159826963D01*
X91352081Y-160280289D01*
X91351833Y-160426320D01*
X91350872Y-160538655D01*
X91348794Y-160622678D01*
X91345193Y-160683769D01*
X91339665Y-160727309D01*
X91331804Y-160758679D01*
X91321207Y-160783262D01*
X91313182Y-160797294D01*
X91246728Y-160873388D01*
X91162470Y-160921084D01*
X91069249Y-160938199D01*
X90975900Y-160922546D01*
X90920312Y-160894418D01*
X90861957Y-160845760D01*
X90822186Y-160786333D01*
X90798190Y-160708507D01*
X90787161Y-160604652D01*
X90785599Y-160528462D01*
X90785809Y-160522986D01*
X90922308Y-160522986D01*
X90923141Y-160610355D01*
X90926961Y-160668192D01*
X90935746Y-160706029D01*
X90951474Y-160733398D01*
X90970266Y-160754042D01*
X91033375Y-160793890D01*
X91101137Y-160797295D01*
X91165179Y-160764025D01*
X91170164Y-160759517D01*
X91191439Y-160736067D01*
X91204779Y-160708166D01*
X91212001Y-160666641D01*
X91214923Y-160602316D01*
X91215385Y-160531200D01*
X91214383Y-160441858D01*
X91210238Y-160382258D01*
X91201236Y-160343089D01*
X91185667Y-160315040D01*
X91172902Y-160300144D01*
X91113600Y-160262575D01*
X91045301Y-160258057D01*
X90980110Y-160286753D01*
X90967528Y-160297406D01*
X90946111Y-160321063D01*
X90932744Y-160349251D01*
X90925566Y-160391245D01*
X90922719Y-160456319D01*
X90922308Y-160522986D01*
X90785809Y-160522986D01*
X90790322Y-160405765D01*
X90806362Y-160313577D01*
G37*
X90806362Y-160313577D02*
X90836528Y-160244269D01*
X90883629Y-160190211D01*
X90920312Y-160162505D01*
X90986990Y-160132572D01*
X91064272Y-160118678D01*
X91136110Y-160122397D01*
X91176308Y-160137400D01*
X91192082Y-160141670D01*
X91202550Y-160125750D01*
X91209856Y-160083089D01*
X91215385Y-160018106D01*
X91221437Y-159945732D01*
X91229844Y-159902187D01*
X91245141Y-159877287D01*
X91271864Y-159860845D01*
X91288654Y-159853564D01*
X91352154Y-159826963D01*
X91352081Y-160280289D01*
X91351833Y-160426320D01*
X91350872Y-160538655D01*
X91348794Y-160622678D01*
X91345193Y-160683769D01*
X91339665Y-160727309D01*
X91331804Y-160758679D01*
X91321207Y-160783262D01*
X91313182Y-160797294D01*
X91246728Y-160873388D01*
X91162470Y-160921084D01*
X91069249Y-160938199D01*
X90975900Y-160922546D01*
X90920312Y-160894418D01*
X90861957Y-160845760D01*
X90822186Y-160786333D01*
X90798190Y-160708507D01*
X90787161Y-160604652D01*
X90785599Y-160528462D01*
X90785809Y-160522986D01*
X90922308Y-160522986D01*
X90923141Y-160610355D01*
X90926961Y-160668192D01*
X90935746Y-160706029D01*
X90951474Y-160733398D01*
X90970266Y-160754042D01*
X91033375Y-160793890D01*
X91101137Y-160797295D01*
X91165179Y-160764025D01*
X91170164Y-160759517D01*
X91191439Y-160736067D01*
X91204779Y-160708166D01*
X91212001Y-160666641D01*
X91214923Y-160602316D01*
X91215385Y-160531200D01*
X91214383Y-160441858D01*
X91210238Y-160382258D01*
X91201236Y-160343089D01*
X91185667Y-160315040D01*
X91172902Y-160300144D01*
X91113600Y-160262575D01*
X91045301Y-160258057D01*
X90980110Y-160286753D01*
X90967528Y-160297406D01*
X90946111Y-160321063D01*
X90932744Y-160349251D01*
X90925566Y-160391245D01*
X90922719Y-160456319D01*
X90922308Y-160522986D01*
X90785809Y-160522986D01*
X90790322Y-160405765D01*
X90806362Y-160313577D01*
G36*
X89889878Y-153787776D02*
G01*
X89995612Y-153788355D01*
X90072132Y-153789922D01*
X90124372Y-153792972D01*
X90157263Y-153797996D01*
X90175737Y-153805489D01*
X90184727Y-153815944D01*
X90189163Y-153829853D01*
X90189594Y-153831654D01*
X90196333Y-153864145D01*
X90208808Y-153928252D01*
X90225719Y-154017151D01*
X90245771Y-154124019D01*
X90267664Y-154242033D01*
X90268429Y-154246178D01*
X90290359Y-154361831D01*
X90310877Y-154464014D01*
X90328659Y-154546598D01*
X90342381Y-154603456D01*
X90350718Y-154628458D01*
X90351116Y-154628901D01*
X90375677Y-154641110D01*
X90426315Y-154661456D01*
X90492095Y-154685545D01*
X90492461Y-154685674D01*
X90575317Y-154716818D01*
X90673000Y-154756491D01*
X90765077Y-154796381D01*
X90769434Y-154798353D01*
X90919407Y-154866420D01*
X91251498Y-154639639D01*
X91353374Y-154570504D01*
X91445657Y-154508697D01*
X91523003Y-154457733D01*
X91580064Y-154421127D01*
X91611495Y-154402394D01*
X91614479Y-154401004D01*
X91637321Y-154407190D01*
X91679982Y-154437035D01*
X91744128Y-154491947D01*
X91831421Y-154573334D01*
X91920535Y-154659922D01*
X92006441Y-154745247D01*
X92083327Y-154823108D01*
X92146564Y-154888697D01*
X92191523Y-154937205D01*
X92213576Y-154963825D01*
X92214396Y-154965195D01*
X92216834Y-154983463D01*
X92207650Y-155013295D01*
X92184574Y-155058721D01*
X92145337Y-155123770D01*
X92087670Y-155212470D01*
X92010795Y-155326657D01*
X91942570Y-155427162D01*
X91881582Y-155517303D01*
X91831356Y-155591849D01*
X91795416Y-155645565D01*
X91777287Y-155673218D01*
X91776146Y-155675095D01*
X91778359Y-155701590D01*
X91795138Y-155753086D01*
X91823142Y-155819851D01*
X91833122Y-155841172D01*
X91876672Y-155936159D01*
X91923134Y-156043937D01*
X91960877Y-156137192D01*
X91988073Y-156206406D01*
X92009675Y-156259006D01*
X92022158Y-156286497D01*
X92023709Y-156288616D01*
X92046668Y-156292124D01*
X92100786Y-156301738D01*
X92178868Y-156316089D01*
X92273719Y-156333807D01*
X92378143Y-156353525D01*
X92484944Y-156373874D01*
X92586926Y-156393486D01*
X92676894Y-156410991D01*
X92747653Y-156425022D01*
X92792006Y-156434209D01*
X92802885Y-156436807D01*
X92814122Y-156443218D01*
X92822605Y-156457697D01*
X92828714Y-156485133D01*
X92832832Y-156530411D01*
X92835341Y-156598420D01*
X92836621Y-156694047D01*
X92837054Y-156822180D01*
X92837077Y-156874701D01*
X92837077Y-157301845D01*
X92734500Y-157322091D01*
X92677431Y-157333070D01*
X92592269Y-157349095D01*
X92489372Y-157368233D01*
X92379096Y-157388551D01*
X92348615Y-157394132D01*
X92246855Y-157413917D01*
X92158205Y-157433373D01*
X92090108Y-157450697D01*
X92050004Y-157464088D01*
X92043323Y-157468079D01*
X92026919Y-157496342D01*
X92003399Y-157551109D01*
X91977316Y-157621588D01*
X91972142Y-157636769D01*
X91937956Y-157730896D01*
X91895523Y-157837101D01*
X91853997Y-157932473D01*
X91853792Y-157932916D01*
X91784640Y-158082525D01*
X92239512Y-158751617D01*
X91947500Y-159044116D01*
X91859180Y-159131170D01*
X91778625Y-159207909D01*
X91710360Y-159270237D01*
X91658908Y-159314056D01*
X91628794Y-159335270D01*
X91624474Y-159336616D01*
X91599111Y-159326016D01*
X91547358Y-159296547D01*
X91474868Y-159251705D01*
X91387294Y-159194984D01*
X91292612Y-159131462D01*
X91196516Y-159066668D01*
X91110837Y-159010287D01*
X91041016Y-158965788D01*
X90992494Y-158936639D01*
X90970782Y-158926308D01*
X90944293Y-158935050D01*
X90894062Y-158958087D01*
X90830451Y-158990631D01*
X90823708Y-158994249D01*
X90738046Y-159037210D01*
X90679306Y-159058279D01*
X90642772Y-159058503D01*
X90623731Y-159038928D01*
X90623620Y-159038654D01*
X90614102Y-159015472D01*
X90591403Y-158960441D01*
X90557282Y-158877822D01*
X90513500Y-158771872D01*
X90461816Y-158646852D01*
X90403992Y-158507020D01*
X90347991Y-158371637D01*
X90286447Y-158222234D01*
X90229939Y-158083832D01*
X90180161Y-157960673D01*
X90138806Y-157857002D01*
X90107568Y-157777059D01*
X90088141Y-157725088D01*
X90082154Y-157705692D01*
X90097168Y-157683443D01*
X90136439Y-157647982D01*
X90188807Y-157608887D01*
X90337941Y-157485245D01*
X90454511Y-157343522D01*
X90537118Y-157186704D01*
X90584366Y-157017775D01*
X90594857Y-156839722D01*
X90587231Y-156757539D01*
X90545682Y-156587031D01*
X90474123Y-156436459D01*
X90376995Y-156307309D01*
X90258734Y-156201064D01*
X90123780Y-156119210D01*
X89976571Y-156063232D01*
X89821544Y-156034615D01*
X89663139Y-156034844D01*
X89505794Y-156065405D01*
X89353946Y-156127782D01*
X89212035Y-156223460D01*
X89152803Y-156277572D01*
X89039203Y-156416520D01*
X88960106Y-156568361D01*
X88914986Y-156728667D01*
X88903316Y-156893012D01*
X88924569Y-157056971D01*
X88978220Y-157216118D01*
X89063740Y-157366025D01*
X89180605Y-157502267D01*
X89311193Y-157608887D01*
X89365588Y-157649642D01*
X89404014Y-157684718D01*
X89417846Y-157705726D01*
X89410603Y-157728635D01*
X89390005Y-157783365D01*
X89357746Y-157865672D01*
X89315521Y-157971315D01*
X89265023Y-158096050D01*
X89207948Y-158235636D01*
X89151854Y-158371670D01*
X89089967Y-158521201D01*
X89032644Y-158659767D01*
X88981644Y-158783107D01*
X88938727Y-158886964D01*
X88905653Y-158967080D01*
X88884181Y-159019195D01*
X88876225Y-159038654D01*
X88857429Y-159058423D01*
X88821074Y-159058365D01*
X88762479Y-159037441D01*
X88676968Y-158994613D01*
X88676292Y-158994249D01*
X88611907Y-158961012D01*
X88559861Y-158936802D01*
X88530512Y-158926404D01*
X88529217Y-158926308D01*
X88507124Y-158936855D01*
X88458348Y-158966184D01*
X88388331Y-159010827D01*
X88302514Y-159067314D01*
X88207388Y-159131462D01*
X88110540Y-159196411D01*
X88023253Y-159252896D01*
X87951181Y-159297421D01*
X87899977Y-159326490D01*
X87875526Y-159336616D01*
X87853010Y-159323307D01*
X87807742Y-159286112D01*
X87744244Y-159229128D01*
X87667039Y-159156449D01*
X87580651Y-159072171D01*
X87552399Y-159044016D01*
X87260287Y-158751416D01*
X87482631Y-158425104D01*
X87550202Y-158324897D01*
X87609507Y-158234963D01*
X87657217Y-158160510D01*
X87690007Y-158106751D01*
X87704548Y-158078894D01*
X87704974Y-158076912D01*
X87697308Y-158050655D01*
X87676689Y-157997837D01*
X87646685Y-157927310D01*
X87625625Y-157880093D01*
X87586248Y-157789694D01*
X87549165Y-157698366D01*
X87520415Y-157621200D01*
X87512605Y-157597692D01*
X87490417Y-157534916D01*
X87468727Y-157486411D01*
X87456813Y-157468079D01*
X87430523Y-157456859D01*
X87373142Y-157440954D01*
X87292118Y-157422167D01*
X87194895Y-157402299D01*
X87151385Y-157394132D01*
X87040896Y-157373829D01*
X86934916Y-157354170D01*
X86843801Y-157337088D01*
X86777908Y-157324518D01*
X86765500Y-157322091D01*
X86662923Y-157301845D01*
X86662923Y-156874701D01*
X86663153Y-156734246D01*
X86664099Y-156627979D01*
X86666141Y-156551013D01*
X86669662Y-156498460D01*
X86675043Y-156465433D01*
X86682666Y-156447045D01*
X86692912Y-156438408D01*
X86697115Y-156436807D01*
X86722470Y-156431127D01*
X86778484Y-156419795D01*
X86857964Y-156404179D01*
X86953712Y-156385647D01*
X87058533Y-156365569D01*
X87165232Y-156345312D01*
X87266613Y-156326246D01*
X87355479Y-156309739D01*
X87424637Y-156297159D01*
X87466889Y-156289875D01*
X87476290Y-156288616D01*
X87484807Y-156271763D01*
X87503660Y-156226870D01*
X87529324Y-156162430D01*
X87539123Y-156137192D01*
X87578648Y-156039686D01*
X87625192Y-155931959D01*
X87666877Y-155841172D01*
X87697550Y-155771753D01*
X87717956Y-155714710D01*
X87724768Y-155679777D01*
X87723682Y-155675095D01*
X87709285Y-155652991D01*
X87676412Y-155603831D01*
X87628590Y-155532848D01*
X87569348Y-155445278D01*
X87502215Y-155346357D01*
X87488941Y-155326830D01*
X87411046Y-155211140D01*
X87353787Y-155123044D01*
X87314881Y-155058486D01*
X87292044Y-155013411D01*
X87282994Y-154983763D01*
X87285448Y-154965485D01*
X87285511Y-154965369D01*
X87304827Y-154941361D01*
X87347551Y-154894947D01*
X87409051Y-154830937D01*
X87484698Y-154754145D01*
X87569861Y-154669382D01*
X87579465Y-154659922D01*
X87686790Y-154555989D01*
X87769615Y-154479675D01*
X87829605Y-154429571D01*
X87868423Y-154404270D01*
X87885520Y-154401004D01*
X87910473Y-154415250D01*
X87962255Y-154448156D01*
X88035520Y-154496208D01*
X88124920Y-154555890D01*
X88225111Y-154623688D01*
X88248501Y-154639639D01*
X88580593Y-154866420D01*
X88730565Y-154798353D01*
X88821770Y-154758685D01*
X88919669Y-154718791D01*
X89003831Y-154686983D01*
X89007538Y-154685674D01*
X89073369Y-154661576D01*
X89124116Y-154641200D01*
X89148842Y-154628936D01*
X89148884Y-154628901D01*
X89156729Y-154606734D01*
X89170066Y-154552217D01*
X89187570Y-154471480D01*
X89207917Y-154370650D01*
X89229782Y-154255856D01*
X89231571Y-154246178D01*
X89253504Y-154127904D01*
X89273640Y-154020542D01*
X89290680Y-153930917D01*
X89303328Y-153865851D01*
X89310284Y-153832168D01*
X89310406Y-153831654D01*
X89314639Y-153817325D01*
X89322871Y-153806507D01*
X89340033Y-153798706D01*
X89371058Y-153793429D01*
X89420878Y-153790182D01*
X89494424Y-153788472D01*
X89596629Y-153787807D01*
X89732425Y-153787693D01*
X89750000Y-153787692D01*
X89889878Y-153787776D01*
G37*
X89889878Y-153787776D02*
X89995612Y-153788355D01*
X90072132Y-153789922D01*
X90124372Y-153792972D01*
X90157263Y-153797996D01*
X90175737Y-153805489D01*
X90184727Y-153815944D01*
X90189163Y-153829853D01*
X90189594Y-153831654D01*
X90196333Y-153864145D01*
X90208808Y-153928252D01*
X90225719Y-154017151D01*
X90245771Y-154124019D01*
X90267664Y-154242033D01*
X90268429Y-154246178D01*
X90290359Y-154361831D01*
X90310877Y-154464014D01*
X90328659Y-154546598D01*
X90342381Y-154603456D01*
X90350718Y-154628458D01*
X90351116Y-154628901D01*
X90375677Y-154641110D01*
X90426315Y-154661456D01*
X90492095Y-154685545D01*
X90492461Y-154685674D01*
X90575317Y-154716818D01*
X90673000Y-154756491D01*
X90765077Y-154796381D01*
X90769434Y-154798353D01*
X90919407Y-154866420D01*
X91251498Y-154639639D01*
X91353374Y-154570504D01*
X91445657Y-154508697D01*
X91523003Y-154457733D01*
X91580064Y-154421127D01*
X91611495Y-154402394D01*
X91614479Y-154401004D01*
X91637321Y-154407190D01*
X91679982Y-154437035D01*
X91744128Y-154491947D01*
X91831421Y-154573334D01*
X91920535Y-154659922D01*
X92006441Y-154745247D01*
X92083327Y-154823108D01*
X92146564Y-154888697D01*
X92191523Y-154937205D01*
X92213576Y-154963825D01*
X92214396Y-154965195D01*
X92216834Y-154983463D01*
X92207650Y-155013295D01*
X92184574Y-155058721D01*
X92145337Y-155123770D01*
X92087670Y-155212470D01*
X92010795Y-155326657D01*
X91942570Y-155427162D01*
X91881582Y-155517303D01*
X91831356Y-155591849D01*
X91795416Y-155645565D01*
X91777287Y-155673218D01*
X91776146Y-155675095D01*
X91778359Y-155701590D01*
X91795138Y-155753086D01*
X91823142Y-155819851D01*
X91833122Y-155841172D01*
X91876672Y-155936159D01*
X91923134Y-156043937D01*
X91960877Y-156137192D01*
X91988073Y-156206406D01*
X92009675Y-156259006D01*
X92022158Y-156286497D01*
X92023709Y-156288616D01*
X92046668Y-156292124D01*
X92100786Y-156301738D01*
X92178868Y-156316089D01*
X92273719Y-156333807D01*
X92378143Y-156353525D01*
X92484944Y-156373874D01*
X92586926Y-156393486D01*
X92676894Y-156410991D01*
X92747653Y-156425022D01*
X92792006Y-156434209D01*
X92802885Y-156436807D01*
X92814122Y-156443218D01*
X92822605Y-156457697D01*
X92828714Y-156485133D01*
X92832832Y-156530411D01*
X92835341Y-156598420D01*
X92836621Y-156694047D01*
X92837054Y-156822180D01*
X92837077Y-156874701D01*
X92837077Y-157301845D01*
X92734500Y-157322091D01*
X92677431Y-157333070D01*
X92592269Y-157349095D01*
X92489372Y-157368233D01*
X92379096Y-157388551D01*
X92348615Y-157394132D01*
X92246855Y-157413917D01*
X92158205Y-157433373D01*
X92090108Y-157450697D01*
X92050004Y-157464088D01*
X92043323Y-157468079D01*
X92026919Y-157496342D01*
X92003399Y-157551109D01*
X91977316Y-157621588D01*
X91972142Y-157636769D01*
X91937956Y-157730896D01*
X91895523Y-157837101D01*
X91853997Y-157932473D01*
X91853792Y-157932916D01*
X91784640Y-158082525D01*
X92239512Y-158751617D01*
X91947500Y-159044116D01*
X91859180Y-159131170D01*
X91778625Y-159207909D01*
X91710360Y-159270237D01*
X91658908Y-159314056D01*
X91628794Y-159335270D01*
X91624474Y-159336616D01*
X91599111Y-159326016D01*
X91547358Y-159296547D01*
X91474868Y-159251705D01*
X91387294Y-159194984D01*
X91292612Y-159131462D01*
X91196516Y-159066668D01*
X91110837Y-159010287D01*
X91041016Y-158965788D01*
X90992494Y-158936639D01*
X90970782Y-158926308D01*
X90944293Y-158935050D01*
X90894062Y-158958087D01*
X90830451Y-158990631D01*
X90823708Y-158994249D01*
X90738046Y-159037210D01*
X90679306Y-159058279D01*
X90642772Y-159058503D01*
X90623731Y-159038928D01*
X90623620Y-159038654D01*
X90614102Y-159015472D01*
X90591403Y-158960441D01*
X90557282Y-158877822D01*
X90513500Y-158771872D01*
X90461816Y-158646852D01*
X90403992Y-158507020D01*
X90347991Y-158371637D01*
X90286447Y-158222234D01*
X90229939Y-158083832D01*
X90180161Y-157960673D01*
X90138806Y-157857002D01*
X90107568Y-157777059D01*
X90088141Y-157725088D01*
X90082154Y-157705692D01*
X90097168Y-157683443D01*
X90136439Y-157647982D01*
X90188807Y-157608887D01*
X90337941Y-157485245D01*
X90454511Y-157343522D01*
X90537118Y-157186704D01*
X90584366Y-157017775D01*
X90594857Y-156839722D01*
X90587231Y-156757539D01*
X90545682Y-156587031D01*
X90474123Y-156436459D01*
X90376995Y-156307309D01*
X90258734Y-156201064D01*
X90123780Y-156119210D01*
X89976571Y-156063232D01*
X89821544Y-156034615D01*
X89663139Y-156034844D01*
X89505794Y-156065405D01*
X89353946Y-156127782D01*
X89212035Y-156223460D01*
X89152803Y-156277572D01*
X89039203Y-156416520D01*
X88960106Y-156568361D01*
X88914986Y-156728667D01*
X88903316Y-156893012D01*
X88924569Y-157056971D01*
X88978220Y-157216118D01*
X89063740Y-157366025D01*
X89180605Y-157502267D01*
X89311193Y-157608887D01*
X89365588Y-157649642D01*
X89404014Y-157684718D01*
X89417846Y-157705726D01*
X89410603Y-157728635D01*
X89390005Y-157783365D01*
X89357746Y-157865672D01*
X89315521Y-157971315D01*
X89265023Y-158096050D01*
X89207948Y-158235636D01*
X89151854Y-158371670D01*
X89089967Y-158521201D01*
X89032644Y-158659767D01*
X88981644Y-158783107D01*
X88938727Y-158886964D01*
X88905653Y-158967080D01*
X88884181Y-159019195D01*
X88876225Y-159038654D01*
X88857429Y-159058423D01*
X88821074Y-159058365D01*
X88762479Y-159037441D01*
X88676968Y-158994613D01*
X88676292Y-158994249D01*
X88611907Y-158961012D01*
X88559861Y-158936802D01*
X88530512Y-158926404D01*
X88529217Y-158926308D01*
X88507124Y-158936855D01*
X88458348Y-158966184D01*
X88388331Y-159010827D01*
X88302514Y-159067314D01*
X88207388Y-159131462D01*
X88110540Y-159196411D01*
X88023253Y-159252896D01*
X87951181Y-159297421D01*
X87899977Y-159326490D01*
X87875526Y-159336616D01*
X87853010Y-159323307D01*
X87807742Y-159286112D01*
X87744244Y-159229128D01*
X87667039Y-159156449D01*
X87580651Y-159072171D01*
X87552399Y-159044016D01*
X87260287Y-158751416D01*
X87482631Y-158425104D01*
X87550202Y-158324897D01*
X87609507Y-158234963D01*
X87657217Y-158160510D01*
X87690007Y-158106751D01*
X87704548Y-158078894D01*
X87704974Y-158076912D01*
X87697308Y-158050655D01*
X87676689Y-157997837D01*
X87646685Y-157927310D01*
X87625625Y-157880093D01*
X87586248Y-157789694D01*
X87549165Y-157698366D01*
X87520415Y-157621200D01*
X87512605Y-157597692D01*
X87490417Y-157534916D01*
X87468727Y-157486411D01*
X87456813Y-157468079D01*
X87430523Y-157456859D01*
X87373142Y-157440954D01*
X87292118Y-157422167D01*
X87194895Y-157402299D01*
X87151385Y-157394132D01*
X87040896Y-157373829D01*
X86934916Y-157354170D01*
X86843801Y-157337088D01*
X86777908Y-157324518D01*
X86765500Y-157322091D01*
X86662923Y-157301845D01*
X86662923Y-156874701D01*
X86663153Y-156734246D01*
X86664099Y-156627979D01*
X86666141Y-156551013D01*
X86669662Y-156498460D01*
X86675043Y-156465433D01*
X86682666Y-156447045D01*
X86692912Y-156438408D01*
X86697115Y-156436807D01*
X86722470Y-156431127D01*
X86778484Y-156419795D01*
X86857964Y-156404179D01*
X86953712Y-156385647D01*
X87058533Y-156365569D01*
X87165232Y-156345312D01*
X87266613Y-156326246D01*
X87355479Y-156309739D01*
X87424637Y-156297159D01*
X87466889Y-156289875D01*
X87476290Y-156288616D01*
X87484807Y-156271763D01*
X87503660Y-156226870D01*
X87529324Y-156162430D01*
X87539123Y-156137192D01*
X87578648Y-156039686D01*
X87625192Y-155931959D01*
X87666877Y-155841172D01*
X87697550Y-155771753D01*
X87717956Y-155714710D01*
X87724768Y-155679777D01*
X87723682Y-155675095D01*
X87709285Y-155652991D01*
X87676412Y-155603831D01*
X87628590Y-155532848D01*
X87569348Y-155445278D01*
X87502215Y-155346357D01*
X87488941Y-155326830D01*
X87411046Y-155211140D01*
X87353787Y-155123044D01*
X87314881Y-155058486D01*
X87292044Y-155013411D01*
X87282994Y-154983763D01*
X87285448Y-154965485D01*
X87285511Y-154965369D01*
X87304827Y-154941361D01*
X87347551Y-154894947D01*
X87409051Y-154830937D01*
X87484698Y-154754145D01*
X87569861Y-154669382D01*
X87579465Y-154659922D01*
X87686790Y-154555989D01*
X87769615Y-154479675D01*
X87829605Y-154429571D01*
X87868423Y-154404270D01*
X87885520Y-154401004D01*
X87910473Y-154415250D01*
X87962255Y-154448156D01*
X88035520Y-154496208D01*
X88124920Y-154555890D01*
X88225111Y-154623688D01*
X88248501Y-154639639D01*
X88580593Y-154866420D01*
X88730565Y-154798353D01*
X88821770Y-154758685D01*
X88919669Y-154718791D01*
X89003831Y-154686983D01*
X89007538Y-154685674D01*
X89073369Y-154661576D01*
X89124116Y-154641200D01*
X89148842Y-154628936D01*
X89148884Y-154628901D01*
X89156729Y-154606734D01*
X89170066Y-154552217D01*
X89187570Y-154471480D01*
X89207917Y-154370650D01*
X89229782Y-154255856D01*
X89231571Y-154246178D01*
X89253504Y-154127904D01*
X89273640Y-154020542D01*
X89290680Y-153930917D01*
X89303328Y-153865851D01*
X89310284Y-153832168D01*
X89310406Y-153831654D01*
X89314639Y-153817325D01*
X89322871Y-153806507D01*
X89340033Y-153798706D01*
X89371058Y-153793429D01*
X89420878Y-153790182D01*
X89494424Y-153788472D01*
X89596629Y-153787807D01*
X89732425Y-153787693D01*
X89750000Y-153787692D01*
X89889878Y-153787776D01*
G36*
X93611032Y-160320710D02*
G01*
X93629460Y-160255167D01*
X93659360Y-160206912D01*
X93703080Y-160168767D01*
X93722141Y-160156440D01*
X93808726Y-160124336D01*
X93903522Y-160122316D01*
X93995224Y-160147838D01*
X94072528Y-160198361D01*
X94109814Y-160243590D01*
X94139353Y-160325663D01*
X94141699Y-160390607D01*
X94136385Y-160477445D01*
X93936115Y-160565103D01*
X93838739Y-160609887D01*
X93775113Y-160645913D01*
X93742029Y-160677117D01*
X93736280Y-160707436D01*
X93754658Y-160740805D01*
X93774923Y-160762923D01*
X93833889Y-160798393D01*
X93898024Y-160800879D01*
X93956926Y-160773235D01*
X94000197Y-160718320D01*
X94007936Y-160698928D01*
X94045006Y-160638364D01*
X94087654Y-160612552D01*
X94146154Y-160590471D01*
X94146154Y-160674184D01*
X94140982Y-160731150D01*
X94120723Y-160779189D01*
X94078262Y-160834346D01*
X94071951Y-160841514D01*
X94024720Y-160890585D01*
X93984121Y-160916920D01*
X93933328Y-160929035D01*
X93891220Y-160933003D01*
X93815902Y-160933991D01*
X93762286Y-160921466D01*
X93728838Y-160902869D01*
X93676268Y-160861975D01*
X93639879Y-160817748D01*
X93616850Y-160762126D01*
X93604359Y-160687047D01*
X93599587Y-160584449D01*
X93599206Y-160532376D01*
X93600501Y-160469948D01*
X93718471Y-160469948D01*
X93719839Y-160503438D01*
X93723249Y-160508923D01*
X93745753Y-160501472D01*
X93794182Y-160481753D01*
X93858908Y-160453718D01*
X93872443Y-160447692D01*
X93954244Y-160406096D01*
X93999312Y-160369538D01*
X94009217Y-160335296D01*
X93985526Y-160300648D01*
X93965960Y-160285339D01*
X93895360Y-160254721D01*
X93829280Y-160259780D01*
X93773959Y-160297151D01*
X93735636Y-160363473D01*
X93723349Y-160416116D01*
X93718471Y-160469948D01*
X93600501Y-160469948D01*
X93601730Y-160410720D01*
X93611032Y-160320710D01*
G37*
X93611032Y-160320710D02*
X93629460Y-160255167D01*
X93659360Y-160206912D01*
X93703080Y-160168767D01*
X93722141Y-160156440D01*
X93808726Y-160124336D01*
X93903522Y-160122316D01*
X93995224Y-160147838D01*
X94072528Y-160198361D01*
X94109814Y-160243590D01*
X94139353Y-160325663D01*
X94141699Y-160390607D01*
X94136385Y-160477445D01*
X93936115Y-160565103D01*
X93838739Y-160609887D01*
X93775113Y-160645913D01*
X93742029Y-160677117D01*
X93736280Y-160707436D01*
X93754658Y-160740805D01*
X93774923Y-160762923D01*
X93833889Y-160798393D01*
X93898024Y-160800879D01*
X93956926Y-160773235D01*
X94000197Y-160718320D01*
X94007936Y-160698928D01*
X94045006Y-160638364D01*
X94087654Y-160612552D01*
X94146154Y-160590471D01*
X94146154Y-160674184D01*
X94140982Y-160731150D01*
X94120723Y-160779189D01*
X94078262Y-160834346D01*
X94071951Y-160841514D01*
X94024720Y-160890585D01*
X93984121Y-160916920D01*
X93933328Y-160929035D01*
X93891220Y-160933003D01*
X93815902Y-160933991D01*
X93762286Y-160921466D01*
X93728838Y-160902869D01*
X93676268Y-160861975D01*
X93639879Y-160817748D01*
X93616850Y-160762126D01*
X93604359Y-160687047D01*
X93599587Y-160584449D01*
X93599206Y-160532376D01*
X93600501Y-160469948D01*
X93718471Y-160469948D01*
X93719839Y-160503438D01*
X93723249Y-160508923D01*
X93745753Y-160501472D01*
X93794182Y-160481753D01*
X93858908Y-160453718D01*
X93872443Y-160447692D01*
X93954244Y-160406096D01*
X93999312Y-160369538D01*
X94009217Y-160335296D01*
X93985526Y-160300648D01*
X93965960Y-160285339D01*
X93895360Y-160254721D01*
X93829280Y-160259780D01*
X93773959Y-160297151D01*
X93735636Y-160363473D01*
X93723349Y-160416116D01*
X93718471Y-160469948D01*
X93600501Y-160469948D01*
X93601730Y-160410720D01*
X93611032Y-160320710D01*
G36*
X88021664Y-160095089D02*
G01*
X88084367Y-160131358D01*
X88127961Y-160167358D01*
X88159845Y-160205075D01*
X88181810Y-160251199D01*
X88195649Y-160312421D01*
X88203153Y-160395431D01*
X88206117Y-160506919D01*
X88206461Y-160587062D01*
X88206461Y-160882065D01*
X88040385Y-160956515D01*
X88030615Y-160633402D01*
X88026579Y-160512729D01*
X88022344Y-160425141D01*
X88017097Y-160364650D01*
X88010025Y-160325268D01*
X88000311Y-160301007D01*
X87987144Y-160285880D01*
X87982919Y-160282606D01*
X87918909Y-160257034D01*
X87854208Y-160267153D01*
X87815692Y-160294000D01*
X87800025Y-160313024D01*
X87789180Y-160337988D01*
X87782288Y-160375834D01*
X87778479Y-160433502D01*
X87776883Y-160517935D01*
X87776615Y-160605928D01*
X87776563Y-160716323D01*
X87774672Y-160794463D01*
X87768345Y-160847165D01*
X87754983Y-160881242D01*
X87731985Y-160903511D01*
X87696754Y-160920787D01*
X87649697Y-160938738D01*
X87598303Y-160958278D01*
X87604421Y-160611485D01*
X87606884Y-160486468D01*
X87609767Y-160394082D01*
X87613898Y-160327881D01*
X87620107Y-160281420D01*
X87629226Y-160248256D01*
X87642083Y-160221944D01*
X87657584Y-160198729D01*
X87732371Y-160124569D01*
X87823628Y-160081684D01*
X87922883Y-160071412D01*
X88021664Y-160095089D01*
G37*
X88021664Y-160095089D02*
X88084367Y-160131358D01*
X88127961Y-160167358D01*
X88159845Y-160205075D01*
X88181810Y-160251199D01*
X88195649Y-160312421D01*
X88203153Y-160395431D01*
X88206117Y-160506919D01*
X88206461Y-160587062D01*
X88206461Y-160882065D01*
X88040385Y-160956515D01*
X88030615Y-160633402D01*
X88026579Y-160512729D01*
X88022344Y-160425141D01*
X88017097Y-160364650D01*
X88010025Y-160325268D01*
X88000311Y-160301007D01*
X87987144Y-160285880D01*
X87982919Y-160282606D01*
X87918909Y-160257034D01*
X87854208Y-160267153D01*
X87815692Y-160294000D01*
X87800025Y-160313024D01*
X87789180Y-160337988D01*
X87782288Y-160375834D01*
X87778479Y-160433502D01*
X87776883Y-160517935D01*
X87776615Y-160605928D01*
X87776563Y-160716323D01*
X87774672Y-160794463D01*
X87768345Y-160847165D01*
X87754983Y-160881242D01*
X87731985Y-160903511D01*
X87696754Y-160920787D01*
X87649697Y-160938738D01*
X87598303Y-160958278D01*
X87604421Y-160611485D01*
X87606884Y-160486468D01*
X87609767Y-160394082D01*
X87613898Y-160327881D01*
X87620107Y-160281420D01*
X87629226Y-160248256D01*
X87642083Y-160221944D01*
X87657584Y-160198729D01*
X87732371Y-160124569D01*
X87823628Y-160081684D01*
X87922883Y-160071412D01*
X88021664Y-160095089D01*
G36*
X93320807Y-160136782D02*
G01*
X93344161Y-160146988D01*
X93399902Y-160191134D01*
X93447569Y-160254967D01*
X93477048Y-160323087D01*
X93481846Y-160356670D01*
X93465760Y-160403556D01*
X93430475Y-160428365D01*
X93392644Y-160443387D01*
X93375321Y-160446155D01*
X93366886Y-160426066D01*
X93350230Y-160382351D01*
X93342923Y-160362598D01*
X93301948Y-160294271D01*
X93242622Y-160260191D01*
X93166552Y-160261239D01*
X93160918Y-160262581D01*
X93120305Y-160281836D01*
X93090448Y-160319375D01*
X93070055Y-160379809D01*
X93057836Y-160467751D01*
X93052500Y-160587813D01*
X93052000Y-160651698D01*
X93051752Y-160752403D01*
X93050126Y-160821054D01*
X93045801Y-160864673D01*
X93037454Y-160890282D01*
X93023765Y-160904903D01*
X93003411Y-160915558D01*
X93002234Y-160916095D01*
X92963038Y-160932667D01*
X92943619Y-160938769D01*
X92940635Y-160920319D01*
X92938081Y-160869323D01*
X92936140Y-160792308D01*
X92934997Y-160695805D01*
X92934769Y-160625184D01*
X92935932Y-160488525D01*
X92940479Y-160384851D01*
X92949999Y-160308108D01*
X92966081Y-160252246D01*
X92990313Y-160211212D01*
X93024286Y-160178954D01*
X93057833Y-160156440D01*
X93138499Y-160126476D01*
X93232381Y-160119718D01*
X93320807Y-160136782D01*
G37*
X93320807Y-160136782D02*
X93344161Y-160146988D01*
X93399902Y-160191134D01*
X93447569Y-160254967D01*
X93477048Y-160323087D01*
X93481846Y-160356670D01*
X93465760Y-160403556D01*
X93430475Y-160428365D01*
X93392644Y-160443387D01*
X93375321Y-160446155D01*
X93366886Y-160426066D01*
X93350230Y-160382351D01*
X93342923Y-160362598D01*
X93301948Y-160294271D01*
X93242622Y-160260191D01*
X93166552Y-160261239D01*
X93160918Y-160262581D01*
X93120305Y-160281836D01*
X93090448Y-160319375D01*
X93070055Y-160379809D01*
X93057836Y-160467751D01*
X93052500Y-160587813D01*
X93052000Y-160651698D01*
X93051752Y-160752403D01*
X93050126Y-160821054D01*
X93045801Y-160864673D01*
X93037454Y-160890282D01*
X93023765Y-160904903D01*
X93003411Y-160915558D01*
X93002234Y-160916095D01*
X92963038Y-160932667D01*
X92943619Y-160938769D01*
X92940635Y-160920319D01*
X92938081Y-160869323D01*
X92936140Y-160792308D01*
X92934997Y-160695805D01*
X92934769Y-160625184D01*
X92935932Y-160488525D01*
X92940479Y-160384851D01*
X92949999Y-160308108D01*
X92966081Y-160252246D01*
X92990313Y-160211212D01*
X93024286Y-160178954D01*
X93057833Y-160156440D01*
X93138499Y-160126476D01*
X93232381Y-160119718D01*
X93320807Y-160136782D01*
G36*
X90463362Y-160124670D02*
G01*
X90552117Y-160157421D01*
X90624022Y-160215350D01*
X90652144Y-160256128D01*
X90682802Y-160330954D01*
X90682165Y-160385058D01*
X90649987Y-160421446D01*
X90638081Y-160427633D01*
X90586675Y-160446925D01*
X90560422Y-160441982D01*
X90551530Y-160409587D01*
X90551077Y-160391692D01*
X90534797Y-160325859D01*
X90492365Y-160279807D01*
X90433388Y-160257564D01*
X90367475Y-160263161D01*
X90313895Y-160292229D01*
X90295798Y-160308810D01*
X90282971Y-160328925D01*
X90274306Y-160359332D01*
X90268696Y-160406788D01*
X90265035Y-160478050D01*
X90262215Y-160579875D01*
X90261484Y-160612115D01*
X90258820Y-160722410D01*
X90255792Y-160800036D01*
X90251250Y-160851396D01*
X90244046Y-160882890D01*
X90233033Y-160900920D01*
X90217060Y-160911888D01*
X90206834Y-160916733D01*
X90163406Y-160933301D01*
X90137842Y-160938769D01*
X90129395Y-160920507D01*
X90124239Y-160865296D01*
X90122346Y-160772499D01*
X90123689Y-160641478D01*
X90124107Y-160621269D01*
X90127058Y-160501733D01*
X90130548Y-160414449D01*
X90135514Y-160352591D01*
X90142893Y-160309336D01*
X90153624Y-160277860D01*
X90168645Y-160251339D01*
X90176502Y-160239975D01*
X90221553Y-160189692D01*
X90271940Y-160150581D01*
X90278108Y-160147167D01*
X90368458Y-160120212D01*
X90463362Y-160124670D01*
G37*
X90463362Y-160124670D02*
X90552117Y-160157421D01*
X90624022Y-160215350D01*
X90652144Y-160256128D01*
X90682802Y-160330954D01*
X90682165Y-160385058D01*
X90649987Y-160421446D01*
X90638081Y-160427633D01*
X90586675Y-160446925D01*
X90560422Y-160441982D01*
X90551530Y-160409587D01*
X90551077Y-160391692D01*
X90534797Y-160325859D01*
X90492365Y-160279807D01*
X90433388Y-160257564D01*
X90367475Y-160263161D01*
X90313895Y-160292229D01*
X90295798Y-160308810D01*
X90282971Y-160328925D01*
X90274306Y-160359332D01*
X90268696Y-160406788D01*
X90265035Y-160478050D01*
X90262215Y-160579875D01*
X90261484Y-160612115D01*
X90258820Y-160722410D01*
X90255792Y-160800036D01*
X90251250Y-160851396D01*
X90244046Y-160882890D01*
X90233033Y-160900920D01*
X90217060Y-160911888D01*
X90206834Y-160916733D01*
X90163406Y-160933301D01*
X90137842Y-160938769D01*
X90129395Y-160920507D01*
X90124239Y-160865296D01*
X90122346Y-160772499D01*
X90123689Y-160641478D01*
X90124107Y-160621269D01*
X90127058Y-160501733D01*
X90130548Y-160414449D01*
X90135514Y-160352591D01*
X90142893Y-160309336D01*
X90153624Y-160277860D01*
X90168645Y-160251339D01*
X90176502Y-160239975D01*
X90221553Y-160189692D01*
X90271940Y-160150581D01*
X90278108Y-160147167D01*
X90368458Y-160120212D01*
X90463362Y-160124670D01*
G36*
X92145929Y-160136662D02*
G01*
X92148911Y-160188068D01*
X92151247Y-160266192D01*
X92152749Y-160364857D01*
X92153231Y-160468343D01*
X92153231Y-160818533D01*
X92091401Y-160880363D01*
X92048793Y-160918462D01*
X92011390Y-160933895D01*
X91960270Y-160932918D01*
X91939978Y-160930433D01*
X91876554Y-160923200D01*
X91824095Y-160919055D01*
X91811308Y-160918672D01*
X91768199Y-160921176D01*
X91706544Y-160927462D01*
X91682638Y-160930433D01*
X91623922Y-160935028D01*
X91584464Y-160925046D01*
X91545338Y-160894228D01*
X91531215Y-160880363D01*
X91469385Y-160818533D01*
X91469385Y-160163503D01*
X91519150Y-160140829D01*
X91562002Y-160124034D01*
X91587073Y-160118154D01*
X91593501Y-160136736D01*
X91599509Y-160188655D01*
X91604697Y-160268172D01*
X91608664Y-160369546D01*
X91610577Y-160455192D01*
X91615923Y-160792231D01*
X91662560Y-160798825D01*
X91704976Y-160794214D01*
X91725760Y-160779287D01*
X91731570Y-160751377D01*
X91736530Y-160691925D01*
X91740246Y-160608466D01*
X91742324Y-160508532D01*
X91742624Y-160457104D01*
X91742923Y-160161054D01*
X91804454Y-160139604D01*
X91848004Y-160125020D01*
X91871694Y-160118219D01*
X91872377Y-160118154D01*
X91874754Y-160136642D01*
X91877366Y-160187906D01*
X91879995Y-160265649D01*
X91882421Y-160363574D01*
X91884115Y-160455192D01*
X91889461Y-160792231D01*
X92006692Y-160792231D01*
X92012072Y-160484746D01*
X92017451Y-160177261D01*
X92074601Y-160147707D01*
X92116797Y-160127413D01*
X92141770Y-160118204D01*
X92142491Y-160118154D01*
X92145929Y-160136662D01*
G37*
X92145929Y-160136662D02*
X92148911Y-160188068D01*
X92151247Y-160266192D01*
X92152749Y-160364857D01*
X92153231Y-160468343D01*
X92153231Y-160818533D01*
X92091401Y-160880363D01*
X92048793Y-160918462D01*
X92011390Y-160933895D01*
X91960270Y-160932918D01*
X91939978Y-160930433D01*
X91876554Y-160923200D01*
X91824095Y-160919055D01*
X91811308Y-160918672D01*
X91768199Y-160921176D01*
X91706544Y-160927462D01*
X91682638Y-160930433D01*
X91623922Y-160935028D01*
X91584464Y-160925046D01*
X91545338Y-160894228D01*
X91531215Y-160880363D01*
X91469385Y-160818533D01*
X91469385Y-160163503D01*
X91519150Y-160140829D01*
X91562002Y-160124034D01*
X91587073Y-160118154D01*
X91593501Y-160136736D01*
X91599509Y-160188655D01*
X91604697Y-160268172D01*
X91608664Y-160369546D01*
X91610577Y-160455192D01*
X91615923Y-160792231D01*
X91662560Y-160798825D01*
X91704976Y-160794214D01*
X91725760Y-160779287D01*
X91731570Y-160751377D01*
X91736530Y-160691925D01*
X91740246Y-160608466D01*
X91742324Y-160508532D01*
X91742624Y-160457104D01*
X91742923Y-160161054D01*
X91804454Y-160139604D01*
X91848004Y-160125020D01*
X91871694Y-160118219D01*
X91872377Y-160118154D01*
X91874754Y-160136642D01*
X91877366Y-160187906D01*
X91879995Y-160265649D01*
X91882421Y-160363574D01*
X91884115Y-160455192D01*
X91889461Y-160792231D01*
X92006692Y-160792231D01*
X92012072Y-160484746D01*
X92017451Y-160177261D01*
X92074601Y-160147707D01*
X92116797Y-160127413D01*
X92141770Y-160118204D01*
X92142491Y-160118154D01*
X92145929Y-160136662D01*
G36*
X88909846Y-159992120D02*
G01*
X88915572Y-160071980D01*
X88922149Y-160119039D01*
X88931262Y-160139566D01*
X88944598Y-160139829D01*
X88948923Y-160137378D01*
X89006444Y-160119636D01*
X89081268Y-160120672D01*
X89157339Y-160138910D01*
X89204918Y-160162505D01*
X89253702Y-160200198D01*
X89289364Y-160242855D01*
X89313845Y-160297057D01*
X89329087Y-160369384D01*
X89337030Y-160466419D01*
X89339616Y-160594742D01*
X89339662Y-160619358D01*
X89339692Y-160895870D01*
X89278161Y-160917320D01*
X89234459Y-160931912D01*
X89210482Y-160938706D01*
X89209777Y-160938769D01*
X89207415Y-160920345D01*
X89205406Y-160869526D01*
X89203901Y-160792993D01*
X89203053Y-160697430D01*
X89202923Y-160639329D01*
X89202651Y-160524771D01*
X89201252Y-160442667D01*
X89197849Y-160386393D01*
X89191567Y-160349326D01*
X89181529Y-160324844D01*
X89166861Y-160306325D01*
X89157702Y-160297406D01*
X89094789Y-160261466D01*
X89026136Y-160258775D01*
X88963848Y-160289170D01*
X88952329Y-160300144D01*
X88935433Y-160320779D01*
X88923714Y-160345256D01*
X88916233Y-160380647D01*
X88912054Y-160434026D01*
X88910237Y-160512466D01*
X88909846Y-160620617D01*
X88909846Y-160895870D01*
X88848315Y-160917320D01*
X88804613Y-160931912D01*
X88780636Y-160938706D01*
X88779930Y-160938769D01*
X88778126Y-160920069D01*
X88776500Y-160867322D01*
X88775117Y-160785557D01*
X88774042Y-160679805D01*
X88773340Y-160555094D01*
X88773077Y-160416455D01*
X88773077Y-159881806D01*
X88900077Y-159828236D01*
X88909846Y-159992120D01*
G37*
X88909846Y-159992120D02*
X88915572Y-160071980D01*
X88922149Y-160119039D01*
X88931262Y-160139566D01*
X88944598Y-160139829D01*
X88948923Y-160137378D01*
X89006444Y-160119636D01*
X89081268Y-160120672D01*
X89157339Y-160138910D01*
X89204918Y-160162505D01*
X89253702Y-160200198D01*
X89289364Y-160242855D01*
X89313845Y-160297057D01*
X89329087Y-160369384D01*
X89337030Y-160466419D01*
X89339616Y-160594742D01*
X89339662Y-160619358D01*
X89339692Y-160895870D01*
X89278161Y-160917320D01*
X89234459Y-160931912D01*
X89210482Y-160938706D01*
X89209777Y-160938769D01*
X89207415Y-160920345D01*
X89205406Y-160869526D01*
X89203901Y-160792993D01*
X89203053Y-160697430D01*
X89202923Y-160639329D01*
X89202651Y-160524771D01*
X89201252Y-160442667D01*
X89197849Y-160386393D01*
X89191567Y-160349326D01*
X89181529Y-160324844D01*
X89166861Y-160306325D01*
X89157702Y-160297406D01*
X89094789Y-160261466D01*
X89026136Y-160258775D01*
X88963848Y-160289170D01*
X88952329Y-160300144D01*
X88935433Y-160320779D01*
X88923714Y-160345256D01*
X88916233Y-160380647D01*
X88912054Y-160434026D01*
X88910237Y-160512466D01*
X88909846Y-160620617D01*
X88909846Y-160895870D01*
X88848315Y-160917320D01*
X88804613Y-160931912D01*
X88780636Y-160938706D01*
X88779930Y-160938769D01*
X88778126Y-160920069D01*
X88776500Y-160867322D01*
X88775117Y-160785557D01*
X88774042Y-160679805D01*
X88773340Y-160555094D01*
X88773077Y-160416455D01*
X88773077Y-159881806D01*
X88900077Y-159828236D01*
X88909846Y-159992120D01*
G36*
X92637333Y-160133528D02*
G01*
X92693590Y-160159117D01*
X92737747Y-160190124D01*
X92770101Y-160224795D01*
X92792438Y-160269520D01*
X92806546Y-160330692D01*
X92814211Y-160414701D01*
X92817220Y-160527940D01*
X92817538Y-160602509D01*
X92817538Y-160893420D01*
X92767773Y-160916095D01*
X92728576Y-160932667D01*
X92709157Y-160938769D01*
X92705442Y-160920610D01*
X92702495Y-160871648D01*
X92700691Y-160800153D01*
X92700308Y-160743385D01*
X92698661Y-160661371D01*
X92694222Y-160596309D01*
X92687740Y-160556467D01*
X92682590Y-160548000D01*
X92647977Y-160556646D01*
X92593640Y-160578823D01*
X92530722Y-160608886D01*
X92470368Y-160641192D01*
X92423721Y-160670098D01*
X92401926Y-160689961D01*
X92401839Y-160690175D01*
X92403714Y-160726935D01*
X92420525Y-160762026D01*
X92450039Y-160790528D01*
X92493116Y-160800061D01*
X92529932Y-160798950D01*
X92582074Y-160798133D01*
X92609444Y-160810349D01*
X92625882Y-160842624D01*
X92627955Y-160848710D01*
X92635081Y-160894739D01*
X92616024Y-160922687D01*
X92566353Y-160936007D01*
X92512697Y-160938470D01*
X92416142Y-160920210D01*
X92366159Y-160894131D01*
X92304429Y-160832868D01*
X92271690Y-160757670D01*
X92268753Y-160678211D01*
X92296424Y-160604167D01*
X92338047Y-160557769D01*
X92379604Y-160531793D01*
X92444922Y-160498907D01*
X92521038Y-160465557D01*
X92533726Y-160460461D01*
X92617333Y-160423565D01*
X92665530Y-160391046D01*
X92681030Y-160358718D01*
X92666550Y-160322394D01*
X92641692Y-160294000D01*
X92582939Y-160259039D01*
X92518293Y-160256417D01*
X92459008Y-160283358D01*
X92416339Y-160337088D01*
X92410739Y-160350950D01*
X92378133Y-160401936D01*
X92330530Y-160439787D01*
X92270461Y-160470850D01*
X92270461Y-160382768D01*
X92273997Y-160328951D01*
X92289156Y-160286534D01*
X92322768Y-160241279D01*
X92355035Y-160206420D01*
X92405209Y-160157062D01*
X92444193Y-160130547D01*
X92486064Y-160119911D01*
X92533460Y-160118154D01*
X92637333Y-160133528D01*
G37*
X92637333Y-160133528D02*
X92693590Y-160159117D01*
X92737747Y-160190124D01*
X92770101Y-160224795D01*
X92792438Y-160269520D01*
X92806546Y-160330692D01*
X92814211Y-160414701D01*
X92817220Y-160527940D01*
X92817538Y-160602509D01*
X92817538Y-160893420D01*
X92767773Y-160916095D01*
X92728576Y-160932667D01*
X92709157Y-160938769D01*
X92705442Y-160920610D01*
X92702495Y-160871648D01*
X92700691Y-160800153D01*
X92700308Y-160743385D01*
X92698661Y-160661371D01*
X92694222Y-160596309D01*
X92687740Y-160556467D01*
X92682590Y-160548000D01*
X92647977Y-160556646D01*
X92593640Y-160578823D01*
X92530722Y-160608886D01*
X92470368Y-160641192D01*
X92423721Y-160670098D01*
X92401926Y-160689961D01*
X92401839Y-160690175D01*
X92403714Y-160726935D01*
X92420525Y-160762026D01*
X92450039Y-160790528D01*
X92493116Y-160800061D01*
X92529932Y-160798950D01*
X92582074Y-160798133D01*
X92609444Y-160810349D01*
X92625882Y-160842624D01*
X92627955Y-160848710D01*
X92635081Y-160894739D01*
X92616024Y-160922687D01*
X92566353Y-160936007D01*
X92512697Y-160938470D01*
X92416142Y-160920210D01*
X92366159Y-160894131D01*
X92304429Y-160832868D01*
X92271690Y-160757670D01*
X92268753Y-160678211D01*
X92296424Y-160604167D01*
X92338047Y-160557769D01*
X92379604Y-160531793D01*
X92444922Y-160498907D01*
X92521038Y-160465557D01*
X92533726Y-160460461D01*
X92617333Y-160423565D01*
X92665530Y-160391046D01*
X92681030Y-160358718D01*
X92666550Y-160322394D01*
X92641692Y-160294000D01*
X92582939Y-160259039D01*
X92518293Y-160256417D01*
X92459008Y-160283358D01*
X92416339Y-160337088D01*
X92410739Y-160350950D01*
X92378133Y-160401936D01*
X92330530Y-160439787D01*
X92270461Y-160470850D01*
X92270461Y-160382768D01*
X92273997Y-160328951D01*
X92289156Y-160286534D01*
X92322768Y-160241279D01*
X92355035Y-160206420D01*
X92405209Y-160157062D01*
X92444193Y-160130547D01*
X92486064Y-160119911D01*
X92533460Y-160118154D01*
X92637333Y-160133528D01*
G36*
X85357629Y-160337906D02*
G01*
X85364322Y-160289163D01*
X85375960Y-160253288D01*
X85393853Y-160221548D01*
X85397808Y-160215648D01*
X85464267Y-160136104D01*
X85536685Y-160089929D01*
X85624849Y-160071599D01*
X85654787Y-160070703D01*
X85766886Y-160087256D01*
X85858464Y-160135409D01*
X85926049Y-160212905D01*
X85950057Y-160262727D01*
X85968738Y-160337533D01*
X85978301Y-160432052D01*
X85979208Y-160535210D01*
X85971921Y-160635935D01*
X85956903Y-160723153D01*
X85934615Y-160785791D01*
X85927765Y-160796579D01*
X85846632Y-160877105D01*
X85750266Y-160925336D01*
X85645701Y-160939450D01*
X85539968Y-160917629D01*
X85510543Y-160904547D01*
X85453241Y-160864231D01*
X85402950Y-160810775D01*
X85398197Y-160803995D01*
X85378878Y-160771321D01*
X85366108Y-160736394D01*
X85358564Y-160690414D01*
X85354924Y-160624584D01*
X85353865Y-160530105D01*
X85353846Y-160508923D01*
X85353894Y-160502182D01*
X85549231Y-160502182D01*
X85550368Y-160591349D01*
X85554841Y-160650520D01*
X85564246Y-160688741D01*
X85580176Y-160715053D01*
X85588308Y-160723846D01*
X85635058Y-160757261D01*
X85680447Y-160755737D01*
X85726340Y-160726752D01*
X85753712Y-160695809D01*
X85769923Y-160650643D01*
X85779026Y-160579420D01*
X85779651Y-160571114D01*
X85781204Y-160442037D01*
X85764965Y-160346172D01*
X85731152Y-160284107D01*
X85679984Y-160256432D01*
X85661720Y-160254923D01*
X85613760Y-160262513D01*
X85580953Y-160288808D01*
X85560895Y-160339095D01*
X85551178Y-160418664D01*
X85549231Y-160502182D01*
X85353894Y-160502182D01*
X85354574Y-160408249D01*
X85357629Y-160337906D01*
G37*
X85357629Y-160337906D02*
X85364322Y-160289163D01*
X85375960Y-160253288D01*
X85393853Y-160221548D01*
X85397808Y-160215648D01*
X85464267Y-160136104D01*
X85536685Y-160089929D01*
X85624849Y-160071599D01*
X85654787Y-160070703D01*
X85766886Y-160087256D01*
X85858464Y-160135409D01*
X85926049Y-160212905D01*
X85950057Y-160262727D01*
X85968738Y-160337533D01*
X85978301Y-160432052D01*
X85979208Y-160535210D01*
X85971921Y-160635935D01*
X85956903Y-160723153D01*
X85934615Y-160785791D01*
X85927765Y-160796579D01*
X85846632Y-160877105D01*
X85750266Y-160925336D01*
X85645701Y-160939450D01*
X85539968Y-160917629D01*
X85510543Y-160904547D01*
X85453241Y-160864231D01*
X85402950Y-160810775D01*
X85398197Y-160803995D01*
X85378878Y-160771321D01*
X85366108Y-160736394D01*
X85358564Y-160690414D01*
X85354924Y-160624584D01*
X85353865Y-160530105D01*
X85353846Y-160508923D01*
X85353894Y-160502182D01*
X85549231Y-160502182D01*
X85550368Y-160591349D01*
X85554841Y-160650520D01*
X85564246Y-160688741D01*
X85580176Y-160715053D01*
X85588308Y-160723846D01*
X85635058Y-160757261D01*
X85680447Y-160755737D01*
X85726340Y-160726752D01*
X85753712Y-160695809D01*
X85769923Y-160650643D01*
X85779026Y-160579420D01*
X85779651Y-160571114D01*
X85781204Y-160442037D01*
X85764965Y-160346172D01*
X85731152Y-160284107D01*
X85679984Y-160256432D01*
X85661720Y-160254923D01*
X85613760Y-160262513D01*
X85580953Y-160288808D01*
X85560895Y-160339095D01*
X85551178Y-160418664D01*
X85549231Y-160502182D01*
X85353894Y-160502182D01*
X85354574Y-160408249D01*
X85357629Y-160337906D01*
%TD*%
M02*
