%TF.GenerationSoftware,KiCad,Pcbnew,(6.0.7)*%
%TF.CreationDate,2024-01-30T22:45:08+09:00*%
%TF.ProjectId,pico_tracker,7069636f-5f74-4726-9163-6b65722e6b69,rev?*%
%TF.SameCoordinates,Original*%
%TF.FileFunction,Legend,Top*%
%TF.FilePolarity,Positive*%
%FSLAX46Y46*%
G04 Gerber Fmt 4.6, Leading zero omitted, Abs format (unit mm)*
G04 Created by KiCad (PCBNEW (6.0.7)) date 2024-01-30 22:45:08*
%MOMM*%
%LPD*%
G01*
G04 APERTURE LIST*
%ADD10C,0.150000*%
%ADD11C,0.120000*%
G04 APERTURE END LIST*
D10*
X158630952Y-38702380D02*
X158630952Y-39416666D01*
X158583333Y-39559523D01*
X158488095Y-39654761D01*
X158345238Y-39702380D01*
X158250000Y-39702380D01*
X159583333Y-39702380D02*
X159107142Y-39702380D01*
X159107142Y-38702380D01*
X160488095Y-39607142D02*
X160440476Y-39654761D01*
X160297619Y-39702380D01*
X160202380Y-39702380D01*
X160059523Y-39654761D01*
X159964285Y-39559523D01*
X159916666Y-39464285D01*
X159869047Y-39273809D01*
X159869047Y-39130952D01*
X159916666Y-38940476D01*
X159964285Y-38845238D01*
X160059523Y-38750000D01*
X160202380Y-38702380D01*
X160297619Y-38702380D01*
X160440476Y-38750000D01*
X160488095Y-38797619D01*
X161202380Y-38702380D02*
X161202380Y-39416666D01*
X161154761Y-39559523D01*
X161059523Y-39654761D01*
X160916666Y-39702380D01*
X160821428Y-39702380D01*
X162154761Y-39702380D02*
X161678571Y-39702380D01*
X161678571Y-38702380D01*
X163059523Y-39607142D02*
X163011904Y-39654761D01*
X162869047Y-39702380D01*
X162773809Y-39702380D01*
X162630952Y-39654761D01*
X162535714Y-39559523D01*
X162488095Y-39464285D01*
X162440476Y-39273809D01*
X162440476Y-39130952D01*
X162488095Y-38940476D01*
X162535714Y-38845238D01*
X162630952Y-38750000D01*
X162773809Y-38702380D01*
X162869047Y-38702380D01*
X163011904Y-38750000D01*
X163059523Y-38797619D01*
X163773809Y-38702380D02*
X163773809Y-39416666D01*
X163726190Y-39559523D01*
X163630952Y-39654761D01*
X163488095Y-39702380D01*
X163392857Y-39702380D01*
X164726190Y-39702380D02*
X164250000Y-39702380D01*
X164250000Y-38702380D01*
X165630952Y-39607142D02*
X165583333Y-39654761D01*
X165440476Y-39702380D01*
X165345238Y-39702380D01*
X165202380Y-39654761D01*
X165107142Y-39559523D01*
X165059523Y-39464285D01*
X165011904Y-39273809D01*
X165011904Y-39130952D01*
X165059523Y-38940476D01*
X165107142Y-38845238D01*
X165202380Y-38750000D01*
X165345238Y-38702380D01*
X165440476Y-38702380D01*
X165583333Y-38750000D01*
X165630952Y-38797619D01*
X166345238Y-38702380D02*
X166345238Y-39416666D01*
X166297619Y-39559523D01*
X166202380Y-39654761D01*
X166059523Y-39702380D01*
X165964285Y-39702380D01*
X167297619Y-39702380D02*
X166821428Y-39702380D01*
X166821428Y-38702380D01*
X168202380Y-39607142D02*
X168154761Y-39654761D01*
X168011904Y-39702380D01*
X167916666Y-39702380D01*
X167773809Y-39654761D01*
X167678571Y-39559523D01*
X167630952Y-39464285D01*
X167583333Y-39273809D01*
X167583333Y-39130952D01*
X167630952Y-38940476D01*
X167678571Y-38845238D01*
X167773809Y-38750000D01*
X167916666Y-38702380D01*
X168011904Y-38702380D01*
X168154761Y-38750000D01*
X168202380Y-38797619D01*
%TO.C,G1*%
G36*
X106435234Y-92029629D02*
G01*
X106640928Y-90743310D01*
X107826133Y-90738364D01*
X108035535Y-90737588D01*
X108233134Y-90737046D01*
X108415657Y-90736734D01*
X108579833Y-90736648D01*
X108722391Y-90736785D01*
X108840061Y-90737142D01*
X108929569Y-90737715D01*
X108987646Y-90738500D01*
X109011019Y-90739495D01*
X109011338Y-90739638D01*
X109008358Y-90760328D01*
X109000619Y-90807767D01*
X108991826Y-90859777D01*
X108979221Y-90933902D01*
X108967681Y-91002640D01*
X108962158Y-91036092D01*
X108952002Y-91098488D01*
X109144860Y-91098488D01*
X109225651Y-91099317D01*
X109289801Y-91101554D01*
X109329201Y-91104821D01*
X109337717Y-91107450D01*
X109334762Y-91132114D01*
X109326663Y-91187352D01*
X109314575Y-91266007D01*
X109299652Y-91360928D01*
X109283047Y-91464958D01*
X109265912Y-91570945D01*
X109249403Y-91671734D01*
X109234672Y-91760171D01*
X109222873Y-91829103D01*
X109215159Y-91871374D01*
X109213018Y-91880839D01*
X109194370Y-91893099D01*
X109146403Y-91900819D01*
X109065519Y-91904433D01*
X109014149Y-91904837D01*
X108823767Y-91904837D01*
X108801340Y-92063227D01*
X108788186Y-92158131D01*
X108776415Y-92221802D01*
X108759710Y-92260625D01*
X108731758Y-92280986D01*
X108686243Y-92289269D01*
X108616850Y-92291862D01*
X108574164Y-92292931D01*
X108388730Y-92298413D01*
X108374276Y-92356009D01*
X108364022Y-92404192D01*
X108351071Y-92474990D01*
X108338314Y-92552521D01*
X108316805Y-92691438D01*
X107728844Y-92696512D01*
X107140883Y-92701587D01*
X107125678Y-92768783D01*
X107117255Y-92811664D01*
X107104480Y-92883668D01*
X107088864Y-92975972D01*
X107071920Y-93079750D01*
X107065637Y-93119161D01*
X107020800Y-93402343D01*
X107641693Y-93402343D01*
X107814883Y-93402135D01*
X107953383Y-93402075D01*
X108060891Y-93403008D01*
X108141107Y-93405783D01*
X108197733Y-93411243D01*
X108234466Y-93420237D01*
X108255008Y-93433610D01*
X108263059Y-93452208D01*
X108262318Y-93476878D01*
X108256485Y-93508466D01*
X108250262Y-93541534D01*
X108238362Y-93613530D01*
X108038812Y-93613530D01*
X107949188Y-93614010D01*
X107890535Y-93616447D01*
X107855432Y-93622330D01*
X107836456Y-93633152D01*
X107826182Y-93650403D01*
X107823805Y-93656727D01*
X107816710Y-93687031D01*
X107804845Y-93749656D01*
X107789181Y-93838960D01*
X107770687Y-93949296D01*
X107750334Y-94075022D01*
X107733086Y-94184677D01*
X107657823Y-94669430D01*
X107441837Y-94669447D01*
X107355935Y-94668895D01*
X107286229Y-94667385D01*
X107240381Y-94665154D01*
X107225850Y-94662736D01*
X107228768Y-94642734D01*
X107236976Y-94589971D01*
X107249659Y-94509596D01*
X107266004Y-94406757D01*
X107285193Y-94286603D01*
X107302609Y-94177966D01*
X107323703Y-94044935D01*
X107342584Y-93922680D01*
X107358415Y-93816875D01*
X107370361Y-93733198D01*
X107377585Y-93677324D01*
X107379404Y-93656727D01*
X107377767Y-93637584D01*
X107368287Y-93625139D01*
X107344169Y-93617952D01*
X107298616Y-93614581D01*
X107224834Y-93613586D01*
X107175641Y-93613530D01*
X106971842Y-93613530D01*
X106985035Y-93507936D01*
X106998228Y-93402343D01*
X106227513Y-93402343D01*
X106228527Y-93359146D01*
X106231669Y-93333253D01*
X106240412Y-93272670D01*
X106254255Y-93180618D01*
X106272696Y-93060315D01*
X106295236Y-92914983D01*
X106321375Y-92747841D01*
X106350610Y-92562109D01*
X106382442Y-92361006D01*
X106393928Y-92288813D01*
X107194270Y-92288813D01*
X107987159Y-92288813D01*
X108010684Y-92130423D01*
X108024542Y-92035059D01*
X108036619Y-91971059D01*
X108053079Y-91932218D01*
X108080082Y-91912333D01*
X108123789Y-91905199D01*
X108190361Y-91904613D01*
X108234715Y-91904837D01*
X108319087Y-91904299D01*
X108372662Y-91901532D01*
X108403040Y-91894811D01*
X108417817Y-91882409D01*
X108424592Y-91862598D01*
X108424801Y-91861640D01*
X108433129Y-91817461D01*
X108445085Y-91746647D01*
X108459487Y-91657007D01*
X108475155Y-91556352D01*
X108490908Y-91452491D01*
X108505565Y-91353236D01*
X108517947Y-91266397D01*
X108526871Y-91199782D01*
X108531159Y-91161204D01*
X108531368Y-91156684D01*
X108530354Y-91145605D01*
X108524615Y-91136851D01*
X108510105Y-91130149D01*
X108482778Y-91125225D01*
X108438590Y-91121806D01*
X108373494Y-91119617D01*
X108283445Y-91118384D01*
X108164397Y-91117833D01*
X108012306Y-91117691D01*
X107955404Y-91117687D01*
X107811053Y-91117840D01*
X107679867Y-91118275D01*
X107566550Y-91118951D01*
X107475809Y-91119830D01*
X107412349Y-91120873D01*
X107380875Y-91122040D01*
X107378280Y-91122487D01*
X107375121Y-91141912D01*
X107366730Y-91194629D01*
X107353842Y-91276000D01*
X107337188Y-91381384D01*
X107317504Y-91506143D01*
X107295522Y-91645637D01*
X107285694Y-91708050D01*
X107194270Y-92288813D01*
X106393928Y-92288813D01*
X106416370Y-92147754D01*
X106435234Y-92029629D01*
G37*
G36*
X109269525Y-93704254D02*
G01*
X109259429Y-93760850D01*
X109248657Y-93800490D01*
X109244042Y-93809595D01*
X109220801Y-93815753D01*
X109167778Y-93821616D01*
X109093586Y-93826410D01*
X109030793Y-93828794D01*
X108829937Y-93834316D01*
X108817500Y-93911111D01*
X108810456Y-93955154D01*
X108798709Y-94029200D01*
X108783514Y-94125323D01*
X108766124Y-94235593D01*
X108751471Y-94328685D01*
X108697879Y-94669463D01*
X108269811Y-94669463D01*
X108332443Y-94280688D01*
X108351468Y-94161288D01*
X108368262Y-94053397D01*
X108381881Y-93963280D01*
X108391382Y-93897200D01*
X108395824Y-93861418D01*
X108396026Y-93858314D01*
X108403142Y-93838492D01*
X108428848Y-93828260D01*
X108481849Y-93824835D01*
X108501106Y-93824716D01*
X108605235Y-93824716D01*
X108621261Y-93723923D01*
X108637287Y-93623129D01*
X108959951Y-93617860D01*
X109282615Y-93612590D01*
X109269525Y-93704254D01*
G37*
G36*
X110676799Y-93665290D02*
G01*
X110671121Y-93698755D01*
X110660486Y-93764292D01*
X110645828Y-93856031D01*
X110628082Y-93968101D01*
X110608182Y-94094631D01*
X110592597Y-94194258D01*
X110518443Y-94669393D01*
X110309583Y-94669428D01*
X110100722Y-94669463D01*
X110126190Y-94477475D01*
X109918628Y-94477475D01*
X109893160Y-94669463D01*
X109452179Y-94669463D01*
X109462144Y-94621466D01*
X109474500Y-94561955D01*
X109482074Y-94525472D01*
X109485620Y-94498280D01*
X109476094Y-94483969D01*
X109445057Y-94478411D01*
X109384073Y-94477475D01*
X109383999Y-94477475D01*
X109323003Y-94476389D01*
X109292000Y-94470675D01*
X109282596Y-94456649D01*
X109285572Y-94434278D01*
X109291870Y-94400477D01*
X109302693Y-94336708D01*
X109316723Y-94250951D01*
X109332644Y-94151189D01*
X109339443Y-94107899D01*
X109383699Y-93824716D01*
X109483446Y-93824716D01*
X109550637Y-93820316D01*
X109588094Y-93802472D01*
X109603931Y-93764224D01*
X109606500Y-93719123D01*
X109607298Y-93681314D01*
X109613206Y-93653817D01*
X109629499Y-93634989D01*
X109661451Y-93623188D01*
X109714335Y-93616774D01*
X109793425Y-93614103D01*
X109903996Y-93613536D01*
X109945710Y-93613530D01*
X110261612Y-93613530D01*
X110248593Y-93704724D01*
X110238509Y-93761178D01*
X110227738Y-93800654D01*
X110223180Y-93809595D01*
X110199944Y-93815746D01*
X110146914Y-93821604D01*
X110072693Y-93826396D01*
X110009481Y-93828794D01*
X109808175Y-93834316D01*
X109766236Y-94093499D01*
X109745794Y-94219694D01*
X109731722Y-94312885D01*
X109724823Y-94378060D01*
X109725904Y-94420207D01*
X109735767Y-94444314D01*
X109755219Y-94455369D01*
X109785063Y-94458361D01*
X109825074Y-94458276D01*
X109928456Y-94458276D01*
X109954842Y-94247090D01*
X110158906Y-94247090D01*
X110171773Y-94155896D01*
X110182391Y-94084465D01*
X110195899Y-93998558D01*
X110204722Y-93944709D01*
X110224803Y-93824716D01*
X110430309Y-93824716D01*
X110442056Y-93752721D01*
X110450802Y-93697579D01*
X110456972Y-93655981D01*
X110457512Y-93651927D01*
X110471833Y-93633785D01*
X110513122Y-93622632D01*
X110574033Y-93617294D01*
X110686847Y-93611458D01*
X110676799Y-93665290D01*
G37*
G36*
X111849996Y-93824716D02*
G01*
X111947371Y-93824716D01*
X112003929Y-93827583D01*
X112035657Y-93841129D01*
X112046745Y-93872774D01*
X112041383Y-93929937D01*
X112032748Y-93975907D01*
X112020748Y-94035903D01*
X111598228Y-94035903D01*
X111623696Y-93843915D01*
X111208444Y-93843915D01*
X111160188Y-94151096D01*
X111111931Y-94458276D01*
X111317861Y-94458276D01*
X111410475Y-94458284D01*
X111471991Y-94455454D01*
X111509681Y-94445505D01*
X111530819Y-94424157D01*
X111542677Y-94387131D01*
X111552528Y-94330147D01*
X111554371Y-94319085D01*
X111566517Y-94247090D01*
X111988890Y-94247090D01*
X111976745Y-94319085D01*
X111963829Y-94389716D01*
X111949689Y-94430988D01*
X111926627Y-94451392D01*
X111886945Y-94459418D01*
X111847071Y-94462107D01*
X111747362Y-94467876D01*
X111731401Y-94568670D01*
X111715439Y-94669463D01*
X110860509Y-94669463D01*
X110874554Y-94578269D01*
X110881154Y-94521868D01*
X110881989Y-94482048D01*
X110879977Y-94472676D01*
X110857412Y-94464396D01*
X110809359Y-94459190D01*
X110775200Y-94458276D01*
X110718352Y-94456439D01*
X110691646Y-94448812D01*
X110686917Y-94432226D01*
X110688663Y-94424679D01*
X110694858Y-94394445D01*
X110705424Y-94333897D01*
X110719084Y-94250701D01*
X110734560Y-94152523D01*
X110741412Y-94107899D01*
X110784543Y-93824716D01*
X110885385Y-93824716D01*
X110940855Y-93823595D01*
X110974528Y-93814872D01*
X110993996Y-93790503D01*
X111006851Y-93742447D01*
X111016805Y-93685525D01*
X111028951Y-93613530D01*
X111876382Y-93613530D01*
X111849996Y-93824716D01*
G37*
G36*
X112559546Y-93403963D02*
G01*
X112629061Y-93408482D01*
X112669884Y-93415385D01*
X112678307Y-93421125D01*
X112675402Y-93446485D01*
X112667577Y-93501236D01*
X112656168Y-93576886D01*
X112642513Y-93664940D01*
X112627947Y-93756905D01*
X112613807Y-93844288D01*
X112601429Y-93918597D01*
X112592149Y-93971336D01*
X112589884Y-93983106D01*
X112585502Y-94013267D01*
X112593688Y-94028978D01*
X112622933Y-94034953D01*
X112681726Y-94035903D01*
X112790737Y-94035903D01*
X112803930Y-93930310D01*
X112817123Y-93824716D01*
X112919210Y-93824716D01*
X112975313Y-93823618D01*
X113009346Y-93814963D01*
X113028973Y-93790712D01*
X113041856Y-93742825D01*
X113051877Y-93685525D01*
X113064023Y-93613530D01*
X113274339Y-93613530D01*
X113369378Y-93613607D01*
X113431911Y-93616591D01*
X113467810Y-93626610D01*
X113482949Y-93647793D01*
X113483200Y-93684267D01*
X113474435Y-93740162D01*
X113472333Y-93752721D01*
X113460433Y-93824716D01*
X113256011Y-93824716D01*
X113243865Y-93896712D01*
X113230975Y-93967997D01*
X113217187Y-94009522D01*
X113194853Y-94029326D01*
X113156328Y-94035451D01*
X113111498Y-94035903D01*
X113009710Y-94035903D01*
X112997810Y-94107899D01*
X112987205Y-94179209D01*
X112988086Y-94220733D01*
X113005423Y-94240525D01*
X113044185Y-94246637D01*
X113083694Y-94247090D01*
X113181900Y-94247090D01*
X113155514Y-94458276D01*
X113252889Y-94458276D01*
X113307996Y-94459805D01*
X113338588Y-94469759D01*
X113349585Y-94496191D01*
X113345908Y-94547152D01*
X113337942Y-94597468D01*
X113326042Y-94669463D01*
X112890454Y-94669463D01*
X112900790Y-94607067D01*
X112910127Y-94552551D01*
X112917712Y-94511073D01*
X112916177Y-94491569D01*
X112896259Y-94481396D01*
X112849752Y-94477742D01*
X112819631Y-94477475D01*
X112714965Y-94477475D01*
X112727110Y-94405480D01*
X112737618Y-94348630D01*
X112747399Y-94303964D01*
X112748473Y-94299886D01*
X112748798Y-94280439D01*
X112730679Y-94270287D01*
X112686083Y-94266597D01*
X112653256Y-94266289D01*
X112548823Y-94266289D01*
X112536135Y-94347883D01*
X112525674Y-94413131D01*
X112512193Y-94494612D01*
X112502912Y-94549471D01*
X112482377Y-94669463D01*
X112273161Y-94669463D01*
X112176701Y-94668379D01*
X112113286Y-94664693D01*
X112077611Y-94657754D01*
X112064374Y-94646913D01*
X112063946Y-94643812D01*
X112066887Y-94619147D01*
X112075223Y-94561349D01*
X112088221Y-94475190D01*
X112105148Y-94365442D01*
X112125271Y-94236878D01*
X112147858Y-94094271D01*
X112159940Y-94018610D01*
X112183419Y-93871710D01*
X112204819Y-93737327D01*
X112223415Y-93620059D01*
X112238480Y-93524503D01*
X112249288Y-93455254D01*
X112255114Y-93416910D01*
X112255934Y-93410701D01*
X112273840Y-93407342D01*
X112322393Y-93404628D01*
X112393843Y-93402865D01*
X112467120Y-93402343D01*
X112559546Y-93403963D01*
G37*
G36*
X113700782Y-93828558D02*
G01*
X113763131Y-93823897D01*
X113796199Y-93815495D01*
X113809104Y-93799184D01*
X113811036Y-93778161D01*
X113814900Y-93726099D01*
X113823035Y-93673526D01*
X113835034Y-93613530D01*
X114679405Y-93613530D01*
X114653019Y-93824716D01*
X114860501Y-93824716D01*
X114798639Y-94237490D01*
X114377001Y-94247090D01*
X113955363Y-94256689D01*
X113943067Y-94314286D01*
X113931447Y-94367325D01*
X113926032Y-94405485D01*
X113931734Y-94431202D01*
X113953468Y-94446912D01*
X113996145Y-94455053D01*
X114064680Y-94458061D01*
X114163985Y-94458372D01*
X114233409Y-94458276D01*
X114350998Y-94458119D01*
X114435259Y-94459237D01*
X114491242Y-94464014D01*
X114524002Y-94474838D01*
X114538590Y-94494091D01*
X114540059Y-94524160D01*
X114533462Y-94567430D01*
X114528267Y-94597468D01*
X114516367Y-94669463D01*
X113671697Y-94669463D01*
X113696907Y-94479423D01*
X113594715Y-94473650D01*
X113492523Y-94467876D01*
X113541526Y-94151096D01*
X113564542Y-94002305D01*
X113994163Y-94002305D01*
X113994578Y-94017169D01*
X114007203Y-94026893D01*
X114038400Y-94032545D01*
X114094528Y-94035190D01*
X114181948Y-94035898D01*
X114194409Y-94035903D01*
X114401398Y-94035903D01*
X114413398Y-93975907D01*
X114425735Y-93910772D01*
X114427892Y-93867677D01*
X114414192Y-93842073D01*
X114378955Y-93829411D01*
X114316505Y-93825141D01*
X114224680Y-93824716D01*
X114023962Y-93824716D01*
X114012435Y-93896712D01*
X114002979Y-93953566D01*
X113994964Y-93998232D01*
X113994163Y-94002305D01*
X113564542Y-94002305D01*
X113590528Y-93834316D01*
X113700782Y-93828558D01*
G37*
G36*
X115858430Y-93685525D02*
G01*
X115850428Y-93742252D01*
X115846417Y-93786901D01*
X115846319Y-93791119D01*
X115842460Y-93805959D01*
X115826752Y-93815692D01*
X115792659Y-93821366D01*
X115733649Y-93824024D01*
X115643186Y-93824715D01*
X115636446Y-93824716D01*
X115426785Y-93824716D01*
X115416281Y-93877513D01*
X115410251Y-93911182D01*
X115399741Y-93973231D01*
X115385882Y-94056685D01*
X115369804Y-94154565D01*
X115352639Y-94259894D01*
X115335518Y-94365696D01*
X115319572Y-94464992D01*
X115305931Y-94550806D01*
X115295728Y-94616161D01*
X115290093Y-94654078D01*
X115289342Y-94660557D01*
X115271436Y-94664136D01*
X115222883Y-94667028D01*
X115151433Y-94668907D01*
X115078156Y-94669463D01*
X114985242Y-94668878D01*
X114924241Y-94666434D01*
X114888679Y-94661094D01*
X114872080Y-94651824D01*
X114867969Y-94637589D01*
X114867996Y-94635865D01*
X114871244Y-94607263D01*
X114879707Y-94547073D01*
X114892440Y-94461607D01*
X114908500Y-94357179D01*
X114926943Y-94240101D01*
X114930424Y-94218292D01*
X114991826Y-93834316D01*
X115087416Y-93828283D01*
X115155779Y-93819274D01*
X115194000Y-93798757D01*
X115210009Y-93760201D01*
X115212253Y-93725493D01*
X115213109Y-93685450D01*
X115218663Y-93656312D01*
X115234190Y-93636344D01*
X115264965Y-93623816D01*
X115316263Y-93616993D01*
X115393358Y-93614143D01*
X115501525Y-93613534D01*
X115553092Y-93613530D01*
X115870330Y-93613530D01*
X115858430Y-93685525D01*
G37*
G36*
X110867685Y-91160604D02*
G01*
X110862739Y-91187723D01*
X110852453Y-91248955D01*
X110837441Y-91340479D01*
X110818321Y-91458476D01*
X110795707Y-91599126D01*
X110770217Y-91758608D01*
X110742466Y-91933102D01*
X110713070Y-92118789D01*
X110708201Y-92149622D01*
X110558956Y-93095162D01*
X110169123Y-93095162D01*
X110051486Y-93094557D01*
X109948086Y-93092866D01*
X109864627Y-93090279D01*
X109806811Y-93086986D01*
X109780344Y-93083176D01*
X109779290Y-93082223D01*
X109782269Y-93060800D01*
X109790665Y-93006502D01*
X109803662Y-92924346D01*
X109820445Y-92819345D01*
X109840198Y-92696514D01*
X109862107Y-92560868D01*
X109885357Y-92417421D01*
X109909133Y-92271189D01*
X109932619Y-92127185D01*
X109955000Y-91990425D01*
X109975462Y-91865923D01*
X109993188Y-91758695D01*
X110007365Y-91673754D01*
X110017177Y-91616115D01*
X110021371Y-91592857D01*
X110031925Y-91540060D01*
X109626659Y-91540060D01*
X109637031Y-91487264D01*
X109644893Y-91443102D01*
X109656219Y-91374496D01*
X109668786Y-91294977D01*
X109670958Y-91280877D01*
X109694515Y-91127286D01*
X110286219Y-91122206D01*
X110877924Y-91117126D01*
X110867685Y-91160604D01*
G37*
G36*
X113227367Y-91170484D02*
G01*
X113218873Y-91216480D01*
X113208017Y-91280889D01*
X113196635Y-91352007D01*
X113186567Y-91418128D01*
X113179650Y-91467548D01*
X113177621Y-91487264D01*
X113195406Y-91493278D01*
X113243509Y-91498059D01*
X113313855Y-91501009D01*
X113371545Y-91501663D01*
X113459140Y-91501978D01*
X113514929Y-91503959D01*
X113545503Y-91509153D01*
X113557452Y-91519113D01*
X113557368Y-91535386D01*
X113555238Y-91544860D01*
X113547698Y-91583758D01*
X113536966Y-91648362D01*
X113525066Y-91726336D01*
X113522150Y-91746447D01*
X113499438Y-91904837D01*
X112702825Y-91904837D01*
X112728580Y-91746447D01*
X112740529Y-91670491D01*
X112749635Y-91607931D01*
X112754375Y-91569390D01*
X112754718Y-91564059D01*
X112745862Y-91555467D01*
X112716435Y-91549035D01*
X112662619Y-91544523D01*
X112580595Y-91541692D01*
X112466545Y-91540303D01*
X112371126Y-91540060D01*
X112254325Y-91540288D01*
X112151712Y-91540925D01*
X112069060Y-91541898D01*
X112012139Y-91543136D01*
X111986723Y-91544566D01*
X111985930Y-91544860D01*
X111982695Y-91564282D01*
X111974133Y-91616920D01*
X111961001Y-91698079D01*
X111944057Y-91803064D01*
X111924061Y-91927179D01*
X111901770Y-92065728D01*
X111893684Y-92116024D01*
X111802660Y-92682388D01*
X112186301Y-92687596D01*
X112332033Y-92688578D01*
X112446259Y-92687203D01*
X112527074Y-92683539D01*
X112572570Y-92677656D01*
X112582054Y-92673209D01*
X112589986Y-92646444D01*
X112600979Y-92591387D01*
X112613171Y-92517827D01*
X112618622Y-92480812D01*
X112643079Y-92308012D01*
X113035069Y-92308012D01*
X113153036Y-92308682D01*
X113256772Y-92310554D01*
X113340591Y-92313418D01*
X113398808Y-92317066D01*
X113425737Y-92321288D01*
X113426915Y-92322411D01*
X113423880Y-92349829D01*
X113416210Y-92403391D01*
X113405745Y-92471391D01*
X113394322Y-92542124D01*
X113383778Y-92603886D01*
X113377168Y-92639191D01*
X113366413Y-92691988D01*
X112988538Y-92691988D01*
X112978277Y-92744784D01*
X112970404Y-92789362D01*
X112959148Y-92857999D01*
X112946787Y-92936779D01*
X112945319Y-92946372D01*
X112922623Y-93095162D01*
X111332652Y-93095162D01*
X111343138Y-93032766D01*
X111354255Y-92964512D01*
X111366177Y-92888051D01*
X111377352Y-92813782D01*
X111386227Y-92752103D01*
X111391252Y-92713412D01*
X111391843Y-92706387D01*
X111374059Y-92700365D01*
X111325970Y-92695580D01*
X111255660Y-92692634D01*
X111198475Y-92691988D01*
X111004961Y-92691988D01*
X111015766Y-92639191D01*
X111021556Y-92606367D01*
X111032268Y-92541267D01*
X111046996Y-92449567D01*
X111064836Y-92336943D01*
X111084880Y-92209072D01*
X111103813Y-92087226D01*
X111124976Y-91951211D01*
X111144683Y-91825989D01*
X111162041Y-91717101D01*
X111176163Y-91630088D01*
X111186158Y-91570492D01*
X111190893Y-91544860D01*
X111197527Y-91525132D01*
X111211512Y-91512550D01*
X111240260Y-91505514D01*
X111291180Y-91502422D01*
X111371685Y-91501672D01*
X111390828Y-91501663D01*
X111580925Y-91501663D01*
X111590999Y-91448866D01*
X111599047Y-91403427D01*
X111610508Y-91334804D01*
X111622918Y-91257759D01*
X111623057Y-91256878D01*
X111645042Y-91117687D01*
X113238123Y-91117687D01*
X113227367Y-91170484D01*
G37*
G36*
X113753149Y-92690994D02*
G01*
X113698299Y-92687315D01*
X113668755Y-92679899D01*
X113657990Y-92667698D01*
X113657445Y-92662669D01*
X113660393Y-92636713D01*
X113668716Y-92577966D01*
X113681639Y-92491539D01*
X113698383Y-92382541D01*
X113718171Y-92256084D01*
X113740226Y-92117278D01*
X113743840Y-92094721D01*
X113766126Y-91955201D01*
X113786280Y-91827925D01*
X113803531Y-91717854D01*
X113817106Y-91629949D01*
X113826234Y-91569173D01*
X113830144Y-91540487D01*
X113830234Y-91539148D01*
X113848094Y-91531619D01*
X113896323Y-91524671D01*
X113966891Y-91519219D01*
X114027022Y-91516733D01*
X114223810Y-91511262D01*
X114281406Y-91127286D01*
X115073356Y-91122274D01*
X115268717Y-91121116D01*
X115429110Y-91120436D01*
X115557965Y-91120358D01*
X115658709Y-91121006D01*
X115734772Y-91122506D01*
X115789583Y-91124982D01*
X115826569Y-91128558D01*
X115849159Y-91133360D01*
X115860783Y-91139512D01*
X115864868Y-91147139D01*
X115865161Y-91151072D01*
X115862037Y-91188521D01*
X115854108Y-91250961D01*
X115843272Y-91325575D01*
X115831430Y-91399547D01*
X115820481Y-91460059D01*
X115816767Y-91477664D01*
X115813782Y-91497160D01*
X115819878Y-91509680D01*
X115841661Y-91516769D01*
X115885736Y-91519970D01*
X115958708Y-91520828D01*
X116001511Y-91520862D01*
X116196044Y-91520862D01*
X116187748Y-91573658D01*
X116182646Y-91606018D01*
X116172410Y-91670861D01*
X116157900Y-91762745D01*
X116139974Y-91876225D01*
X116119493Y-92005858D01*
X116097316Y-92146202D01*
X116095258Y-92159221D01*
X116011065Y-92691988D01*
X115621175Y-92691988D01*
X115596962Y-92869168D01*
X115585348Y-92949625D01*
X115574510Y-93016802D01*
X115566107Y-93060735D01*
X115563383Y-93070755D01*
X115553313Y-93077031D01*
X115526421Y-93082207D01*
X115479792Y-93086372D01*
X115410511Y-93089613D01*
X115315661Y-93092020D01*
X115192329Y-93093682D01*
X115037597Y-93094688D01*
X114848552Y-93095126D01*
X114762719Y-93095162D01*
X113971420Y-93095162D01*
X113995804Y-92946372D01*
X114007768Y-92867475D01*
X114016774Y-92796963D01*
X114021082Y-92748663D01*
X114021205Y-92744784D01*
X114022222Y-92691988D01*
X114450977Y-92691988D01*
X114831396Y-92691988D01*
X114961082Y-92691884D01*
X115057482Y-92691195D01*
X115125706Y-92689356D01*
X115170867Y-92685801D01*
X115198076Y-92679965D01*
X115212443Y-92671281D01*
X115219080Y-92659185D01*
X115221770Y-92648790D01*
X115227843Y-92615833D01*
X115238289Y-92552121D01*
X115252208Y-92463709D01*
X115268697Y-92356650D01*
X115286855Y-92236999D01*
X115305781Y-92110809D01*
X115324573Y-91984136D01*
X115342331Y-91863032D01*
X115358153Y-91753552D01*
X115371137Y-91661750D01*
X115380382Y-91593679D01*
X115384988Y-91555395D01*
X115385336Y-91550168D01*
X115381517Y-91539833D01*
X115366847Y-91532315D01*
X115336508Y-91527296D01*
X115285681Y-91524460D01*
X115209548Y-91523490D01*
X115103289Y-91524069D01*
X115006315Y-91525255D01*
X114627293Y-91530461D01*
X114584713Y-91808843D01*
X114565310Y-91936026D01*
X114542822Y-92083937D01*
X114519868Y-92235331D01*
X114499065Y-92372964D01*
X114496555Y-92389607D01*
X114450977Y-92691988D01*
X114022222Y-92691988D01*
X113839834Y-92691988D01*
X113753149Y-92690994D01*
G37*
G36*
X110838597Y-90330505D02*
G01*
X110908942Y-90333854D01*
X110954360Y-90342464D01*
X110979330Y-90358594D01*
X110988333Y-90384506D01*
X110985848Y-90422460D01*
X110976355Y-90474718D01*
X110969104Y-90514199D01*
X110958509Y-90582114D01*
X110950012Y-90632859D01*
X110938413Y-90668902D01*
X110918511Y-90692708D01*
X110885105Y-90706747D01*
X110832993Y-90713485D01*
X110756975Y-90715389D01*
X110651851Y-90714927D01*
X110546875Y-90714512D01*
X110405525Y-90713821D01*
X110299552Y-90711629D01*
X110225963Y-90707762D01*
X110181759Y-90702045D01*
X110163947Y-90694302D01*
X110163265Y-90692086D01*
X110166246Y-90662271D01*
X110173962Y-90606504D01*
X110184569Y-90536664D01*
X110196228Y-90464629D01*
X110207097Y-90402278D01*
X110212622Y-90373734D01*
X110216558Y-90359064D01*
X110224798Y-90348160D01*
X110242418Y-90340462D01*
X110274494Y-90335414D01*
X110326101Y-90332455D01*
X110402316Y-90331028D01*
X110508215Y-90330574D01*
X110605203Y-90330537D01*
X110738844Y-90330152D01*
X110838597Y-90330505D01*
G37*
%TO.C,SW3*%
X148300000Y-111950000D02*
X148300000Y-110950000D01*
X148300000Y-124950000D02*
X149300000Y-124950000D01*
X161300000Y-124950000D02*
X162300000Y-124950000D01*
X149300000Y-110950000D02*
X148300000Y-110950000D01*
X162300000Y-110950000D02*
X161300000Y-110950000D01*
X148300000Y-124950000D02*
X148300000Y-123950000D01*
X162300000Y-123950000D02*
X162300000Y-124950000D01*
X162300000Y-110950000D02*
X162300000Y-111950000D01*
%TO.C,SW2*%
X142250000Y-124950000D02*
X143250000Y-124950000D01*
X129250000Y-124950000D02*
X129250000Y-123950000D01*
X129250000Y-111950000D02*
X129250000Y-110950000D01*
X143250000Y-110950000D02*
X142250000Y-110950000D01*
X129250000Y-124950000D02*
X130250000Y-124950000D01*
X130250000Y-110950000D02*
X129250000Y-110950000D01*
X143250000Y-110950000D02*
X143250000Y-111950000D01*
X143250000Y-123950000D02*
X143250000Y-124950000D01*
%TO.C,SW1*%
X110150000Y-124950000D02*
X111150000Y-124950000D01*
X124150000Y-110950000D02*
X123150000Y-110950000D01*
X110150000Y-111950000D02*
X110150000Y-110950000D01*
X124150000Y-123950000D02*
X124150000Y-124950000D01*
X111150000Y-110950000D02*
X110150000Y-110950000D01*
X124150000Y-110950000D02*
X124150000Y-111950000D01*
X110150000Y-124950000D02*
X110150000Y-123950000D01*
X123150000Y-124950000D02*
X124150000Y-124950000D01*
%TO.C,SW5*%
X162250000Y-133400000D02*
X161250000Y-133400000D01*
X148250000Y-134400000D02*
X148250000Y-133400000D01*
X149250000Y-133400000D02*
X148250000Y-133400000D01*
X162250000Y-133400000D02*
X162250000Y-134400000D01*
X148250000Y-147400000D02*
X148250000Y-146400000D01*
X161250000Y-147400000D02*
X162250000Y-147400000D01*
X148250000Y-147400000D02*
X149250000Y-147400000D01*
X162250000Y-146400000D02*
X162250000Y-147400000D01*
%TO.C,SW7*%
X186200000Y-88300000D02*
X185200000Y-88300000D01*
X186200000Y-88300000D02*
X186200000Y-89300000D01*
X186200000Y-101300000D02*
X186200000Y-102300000D01*
X172200000Y-89300000D02*
X172200000Y-88300000D01*
X172200000Y-102300000D02*
X173200000Y-102300000D01*
X172200000Y-102300000D02*
X172200000Y-101300000D01*
X173200000Y-88300000D02*
X172200000Y-88300000D01*
X185200000Y-102300000D02*
X186200000Y-102300000D01*
%TO.C,SW8*%
X129200000Y-147400000D02*
X130200000Y-147400000D01*
X143200000Y-133400000D02*
X142200000Y-133400000D01*
X142200000Y-147400000D02*
X143200000Y-147400000D01*
X143200000Y-133400000D02*
X143200000Y-134400000D01*
X143200000Y-146400000D02*
X143200000Y-147400000D01*
X129200000Y-147400000D02*
X129200000Y-146400000D01*
X129200000Y-134400000D02*
X129200000Y-133400000D01*
X130200000Y-133400000D02*
X129200000Y-133400000D01*
%TO.C,SW9*%
X185150000Y-125000000D02*
X186150000Y-125000000D01*
X173150000Y-111000000D02*
X172150000Y-111000000D01*
X172150000Y-125000000D02*
X172150000Y-124000000D01*
X172150000Y-125000000D02*
X173150000Y-125000000D01*
X186150000Y-124000000D02*
X186150000Y-125000000D01*
X186150000Y-111000000D02*
X186150000Y-112000000D01*
X172150000Y-112000000D02*
X172150000Y-111000000D01*
X186150000Y-111000000D02*
X185150000Y-111000000D01*
D11*
%TO.C,J7*%
X106880000Y-40720000D02*
X106880000Y-58560000D01*
X104220000Y-40720000D02*
X104220000Y-58560000D01*
X104220000Y-38120000D02*
X105550000Y-38120000D01*
X104220000Y-40720000D02*
X106880000Y-40720000D01*
X104220000Y-39450000D02*
X104220000Y-38120000D01*
X104220000Y-58560000D02*
X106880000Y-58560000D01*
D10*
%TO.C,SW4*%
X130250000Y-91900000D02*
X129250000Y-91900000D01*
X129250000Y-105900000D02*
X129250000Y-104900000D01*
X143250000Y-104900000D02*
X143250000Y-105900000D01*
X143250000Y-91900000D02*
X143250000Y-92900000D01*
X129250000Y-92900000D02*
X129250000Y-91900000D01*
X129250000Y-105900000D02*
X130250000Y-105900000D01*
X142250000Y-105900000D02*
X143250000Y-105900000D01*
X143250000Y-91900000D02*
X142250000Y-91900000D01*
%TO.C,SW6*%
X167150000Y-88300000D02*
X166150000Y-88300000D01*
X167150000Y-88300000D02*
X167150000Y-89300000D01*
X153150000Y-89300000D02*
X153150000Y-88300000D01*
X166150000Y-102300000D02*
X167150000Y-102300000D01*
X153150000Y-102300000D02*
X153150000Y-101300000D01*
X153150000Y-102300000D02*
X154150000Y-102300000D01*
X154150000Y-88300000D02*
X153150000Y-88300000D01*
X167150000Y-101300000D02*
X167150000Y-102300000D01*
%TD*%
M02*
