M48
; DRILL file {KiCad (6.0.7)} date Tue Jan 30 22:45:10 2024
; FORMAT={-:-/ absolute / inch / decimal}
; #@! TF.CreationDate,2024-01-30T22:45:10+09:00
; #@! TF.GenerationSoftware,Kicad,Pcbnew,(6.0.7)
; #@! TF.FileFunction,Plated,1,2,PTH
FMAT,2
INCH
; #@! TA.AperFunction,Plated,PTH,ViaDrill
T1C0.0157
; #@! TA.AperFunction,Plated,PTH,ComponentDrill
T2C0.0394
; #@! TA.AperFunction,Plated,PTH,ComponentDrill
T3C0.0402
; #@! TA.AperFunction,Plated,PTH,ComponentDrill
T4C0.0500
%
G90
G05
T1
X4.5472Y-2.8484
T2
X4.1555Y-1.5531
X4.1555Y-1.6531
X4.1555Y-1.7531
X4.1555Y-1.8531
X4.1555Y-1.9531
X4.1555Y-2.0531
X4.1555Y-2.1531
X4.1555Y-2.2531
X4.3571Y-1.9035
X4.3581Y-2.1496
X4.4571Y-1.9035
X4.4581Y-2.1496
X4.5571Y-1.9035
X4.5581Y-2.1496
X4.7419Y-1.9035
X4.7419Y-2.1496
X4.8419Y-1.9035
X4.8419Y-2.1496
X4.9419Y-1.9035
X4.9419Y-2.1496
X6.1319Y-1.2165
X6.1319Y-1.3165
X6.1319Y-1.4165
X6.1319Y-1.5165
X6.1319Y-1.6165
X6.1319Y-1.7165
X6.2965Y-3.002
X6.3965Y-3.002
X6.4106Y-1.7421
X6.4965Y-3.002
X6.5106Y-1.7421
X6.5965Y-3.002
X6.6106Y-1.7421
X6.6965Y-3.002
X6.7106Y-1.7421
X6.7965Y-3.002
X6.8106Y-1.7421
X6.8406Y-1.9528
X6.8406Y-2.0528
X6.8406Y-2.1528
X6.8406Y-2.2528
X6.8406Y-2.3528
X6.8406Y-2.4528
X6.8406Y-2.5528
X6.8406Y-2.6528
X6.8406Y-2.7528
X6.8965Y-3.002
X6.9106Y-1.7421
X6.9965Y-3.002
X7.0106Y-1.7421
X7.0965Y-3.002
X7.1106Y-1.7421
X7.2106Y-1.7421
T3
X5.2406Y-1.1839
X5.2406Y-1.2839
X5.2406Y-1.3839
X5.2406Y-1.4839
X5.2406Y-1.5839
X5.2406Y-1.6839
X5.2406Y-1.7839
X5.2406Y-1.8839
X5.2406Y-1.9839
X5.2406Y-2.0839
X5.2406Y-2.1839
X5.2406Y-2.2839
X5.2406Y-2.3839
X5.2406Y-2.4839
X5.2406Y-2.5839
X5.2406Y-2.6839
X5.2406Y-2.7839
X5.2406Y-2.8839
X5.2406Y-2.9839
X5.2406Y-3.0839
X5.4906Y-3.0748
X5.5906Y-3.0748
X5.6906Y-3.0748
X5.9406Y-1.1839
X5.9406Y-1.2839
X5.9406Y-1.3839
X5.9406Y-1.4839
X5.9406Y-1.5839
X5.9406Y-1.6839
X5.9406Y-1.7839
X5.9406Y-1.8839
X5.9406Y-1.9839
X5.9406Y-2.0839
X5.9406Y-2.1839
X5.9406Y-2.2839
X5.9406Y-2.3839
X5.9406Y-2.4839
X5.9406Y-2.5839
X5.9406Y-2.6839
X5.9406Y-2.7839
X5.9406Y-2.8839
X5.9406Y-2.9839
X5.9406Y-3.0839
T4
X4.4154Y-4.7933
X4.6122Y-4.876
X5.1654Y-5.6772
X5.1673Y-4.0433
X5.1673Y-4.7933
X5.3622Y-5.7598
X5.3642Y-4.126
X5.3642Y-4.876
X5.9154Y-5.6772
X5.9173Y-4.7933
X6.1083Y-3.9016
X6.1122Y-5.7598
X6.1142Y-4.876
X6.3051Y-3.9843
X6.8563Y-4.7953
X6.8583Y-3.9016
X7.0531Y-4.878
X7.0551Y-3.9843
T0
M30
