M48
; DRILL file {KiCad (6.0.7)} date Sun Mar  3 21:38:19 2024
; FORMAT={-:-/ absolute / inch / decimal}
; #@! TF.CreationDate,2024-03-03T21:38:19+09:00
; #@! TF.GenerationSoftware,Kicad,Pcbnew,(6.0.7)
; #@! TF.FileFunction,NonPlated,1,2,NPTH
FMAT,2
INCH
; #@! TA.AperFunction,NonPlated,NPTH,ComponentDrill
T1C0.0390
; #@! TA.AperFunction,NonPlated,NPTH,ComponentDrill
T2C0.0591
; #@! TA.AperFunction,NonPlated,NPTH,ComponentDrill
T3C0.0670
; #@! TA.AperFunction,NonPlated,NPTH,ComponentDrill
T4C0.0709
; #@! TA.AperFunction,NonPlated,NPTH,ComponentDrill
T5C0.1350
%
G90
G05
T1
X4.8177Y-4.4783
X5.5677Y-5.3622
X5.5697Y-3.7283
X5.5697Y-4.4783
X6.3177Y-5.3622
X6.3197Y-4.4783
X6.5106Y-3.5866
X7.2587Y-4.4803
X7.2606Y-3.5866
T2
X4.439Y-1.2874
X4.439Y-1.563
X4.9016Y-1.2874
X4.9016Y-1.563
X5.4951Y-1.3083
X5.686Y-1.3083
T3
X4.3957Y-4.6437
X4.8287Y-4.6437
X5.1457Y-5.5276
X5.1476Y-3.8937
X5.1476Y-4.6437
X5.5787Y-5.5276
X5.5807Y-3.8937
X5.5807Y-4.6437
X5.8957Y-5.5276
X5.8976Y-4.6437
X6.0886Y-3.752
X6.3287Y-5.5276
X6.3307Y-4.6437
X6.5217Y-3.752
X6.8366Y-4.6457
X6.8386Y-3.752
X7.2697Y-4.6457
X7.2717Y-3.752
T4
X5.4833Y-1.189
X5.6978Y-1.189
T5
X4.6122Y-4.6437
X5.3622Y-5.5276
X5.3642Y-3.8937
X5.3642Y-4.6437
X6.1122Y-5.5276
X6.1142Y-4.6437
X6.3051Y-3.752
X7.0531Y-4.6457
X7.0551Y-3.752
T0
M30
