%TF.GenerationSoftware,KiCad,Pcbnew,(6.0.7)*%
%TF.CreationDate,2024-02-04T00:46:34+09:00*%
%TF.ProjectId,pico_tracker,7069636f-5f74-4726-9163-6b65722e6b69,rev?*%
%TF.SameCoordinates,Original*%
%TF.FileFunction,Soldermask,Top*%
%TF.FilePolarity,Negative*%
%FSLAX46Y46*%
G04 Gerber Fmt 4.6, Leading zero omitted, Abs format (unit mm)*
G04 Created by KiCad (PCBNEW (6.0.7)) date 2024-02-04 00:46:34*
%MOMM*%
%LPD*%
G01*
G04 APERTURE LIST*
%ADD10C,3.429000*%
%ADD11C,0.990600*%
%ADD12C,1.701800*%
%ADD13C,2.032000*%
%ADD14R,1.700000X1.700000*%
%ADD15O,1.700000X1.700000*%
%ADD16O,1.800000X1.800000*%
%ADD17O,1.500000X1.500000*%
%ADD18C,1.500000*%
G04 APERTURE END LIST*
D10*
%TO.C,SW3*%
X155300000Y-117950000D03*
D11*
X160520000Y-113750000D03*
D12*
X149800000Y-117950000D03*
X160800000Y-117950000D03*
D13*
X155300000Y-123850000D03*
X150300000Y-121750000D03*
%TD*%
D11*
%TO.C,SW2*%
X141470000Y-113750000D03*
D12*
X141750000Y-117950000D03*
X130750000Y-117950000D03*
D10*
X136250000Y-117950000D03*
D13*
X136250000Y-123850000D03*
X131250000Y-121750000D03*
%TD*%
D11*
%TO.C,SW1*%
X122370000Y-113750000D03*
D12*
X122650000Y-117950000D03*
X111650000Y-117950000D03*
D10*
X117150000Y-117950000D03*
D13*
X117150000Y-123850000D03*
X112150000Y-121750000D03*
%TD*%
D10*
%TO.C,SW5*%
X155250000Y-140400000D03*
D12*
X149750000Y-140400000D03*
X160750000Y-140400000D03*
D11*
X160470000Y-136200000D03*
D13*
X155250000Y-146300000D03*
X150250000Y-144200000D03*
%TD*%
D12*
%TO.C,SW7*%
X184700000Y-95300000D03*
D10*
X179200000Y-95300000D03*
D11*
X184420000Y-91100000D03*
D12*
X173700000Y-95300000D03*
D13*
X179200000Y-101200000D03*
X174200000Y-99100000D03*
%TD*%
D11*
%TO.C,SW8*%
X141420000Y-136200000D03*
D12*
X141700000Y-140400000D03*
D10*
X136200000Y-140400000D03*
D12*
X130700000Y-140400000D03*
D13*
X136200000Y-146300000D03*
X131200000Y-144200000D03*
%TD*%
D11*
%TO.C,SW9*%
X184370000Y-113800000D03*
D10*
X179150000Y-118000000D03*
D12*
X184650000Y-118000000D03*
X173650000Y-118000000D03*
D13*
X179150000Y-123900000D03*
X174150000Y-121800000D03*
%TD*%
D14*
%TO.C,J7*%
X105550000Y-39450000D03*
D15*
X105550000Y-41990000D03*
X105550000Y-44530000D03*
X105550000Y-47070000D03*
X105550000Y-49610000D03*
X105550000Y-52150000D03*
X105550000Y-54690000D03*
X105550000Y-57230000D03*
%TD*%
D12*
%TO.C,SW4*%
X130750000Y-98900000D03*
D11*
X141470000Y-94700000D03*
D12*
X141750000Y-98900000D03*
D10*
X136250000Y-98900000D03*
D13*
X136250000Y-104800000D03*
X131250000Y-102700000D03*
%TD*%
D12*
%TO.C,SW6*%
X165650000Y-95300000D03*
D10*
X160150000Y-95300000D03*
D11*
X165370000Y-91100000D03*
D12*
X154650000Y-95300000D03*
D13*
X160150000Y-101200000D03*
X155150000Y-99100000D03*
%TD*%
D14*
%TO.C,REF1*%
X183150000Y-44250000D03*
D15*
X180610000Y-44250000D03*
X178070000Y-44250000D03*
X175530000Y-44250000D03*
X172990000Y-44250000D03*
X170450000Y-44250000D03*
X167910000Y-44250000D03*
X165370000Y-44250000D03*
X162830000Y-44250000D03*
%TD*%
D16*
%TO.C,U1*%
X139275000Y-30200000D03*
D17*
X139575000Y-33230000D03*
X144425000Y-33230000D03*
D16*
X144725000Y-30200000D03*
D15*
X150890000Y-30070000D03*
X150890000Y-32610000D03*
D14*
X150890000Y-35150000D03*
D15*
X150890000Y-37690000D03*
X150890000Y-40230000D03*
X150890000Y-42770000D03*
X150890000Y-45310000D03*
D14*
X150890000Y-47850000D03*
D15*
X150890000Y-50390000D03*
X150890000Y-52930000D03*
X150890000Y-55470000D03*
X150890000Y-58010000D03*
D14*
X150890000Y-60550000D03*
D15*
X150890000Y-63090000D03*
X150890000Y-65630000D03*
X150890000Y-68170000D03*
X150890000Y-70710000D03*
D14*
X150890000Y-73250000D03*
D15*
X150890000Y-75790000D03*
X150890000Y-78330000D03*
X133110000Y-78330000D03*
X133110000Y-75790000D03*
D14*
X133110000Y-73250000D03*
D15*
X133110000Y-70710000D03*
X133110000Y-68170000D03*
X133110000Y-65630000D03*
X133110000Y-63090000D03*
D14*
X133110000Y-60550000D03*
D15*
X133110000Y-58010000D03*
X133110000Y-55470000D03*
X133110000Y-52930000D03*
X133110000Y-50390000D03*
D14*
X133110000Y-47850000D03*
D15*
X133110000Y-45310000D03*
X133110000Y-42770000D03*
X133110000Y-40230000D03*
X133110000Y-37690000D03*
D14*
X133110000Y-35150000D03*
D15*
X133110000Y-32610000D03*
X133110000Y-30070000D03*
X144540000Y-78100000D03*
D14*
X142000000Y-78100000D03*
D15*
X139460000Y-78100000D03*
%TD*%
D14*
%TO.C,J5*%
X115750000Y-48350000D03*
D15*
X113210000Y-48350000D03*
X110670000Y-48350000D03*
%TD*%
D14*
%TO.C,J3*%
X125525000Y-48350000D03*
D15*
X122985000Y-48350000D03*
X120445000Y-48350000D03*
%TD*%
D14*
%TO.C,J4*%
X125525000Y-54600000D03*
D15*
X122985000Y-54600000D03*
X120445000Y-54600000D03*
%TD*%
D14*
%TO.C,U3*%
X155750000Y-30900000D03*
D15*
X155750000Y-33440000D03*
X155750000Y-35980000D03*
X155750000Y-38520000D03*
X155750000Y-41060000D03*
X155750000Y-43600000D03*
%TD*%
D14*
%TO.C,J10*%
X180250000Y-76250000D03*
D15*
X177710000Y-76250000D03*
X175170000Y-76250000D03*
X172630000Y-76250000D03*
X170090000Y-76250000D03*
X167550000Y-76250000D03*
X165010000Y-76250000D03*
X162470000Y-76250000D03*
X159930000Y-76250000D03*
%TD*%
D18*
%TO.C,J1*%
X112750000Y-39700000D03*
X112750000Y-32700000D03*
%TD*%
%TO.C,J2*%
X124500000Y-39700000D03*
X124500000Y-32700000D03*
%TD*%
D14*
%TO.C,J8*%
X173750000Y-49600000D03*
D15*
X173750000Y-52140000D03*
X173750000Y-54680000D03*
X173750000Y-57220000D03*
X173750000Y-59760000D03*
X173750000Y-62300000D03*
X173750000Y-64840000D03*
X173750000Y-67380000D03*
X173750000Y-69920000D03*
%TD*%
D14*
%TO.C,J6*%
X115775000Y-54600000D03*
D15*
X113235000Y-54600000D03*
X110695000Y-54600000D03*
%TD*%
M02*
