%TF.GenerationSoftware,KiCad,Pcbnew,(6.0.7)*%
%TF.CreationDate,2024-01-18T22:54:25+09:00*%
%TF.ProjectId,pico_tracker,7069636f-5f74-4726-9163-6b65722e6b69,rev?*%
%TF.SameCoordinates,Original*%
%TF.FileFunction,Legend,Top*%
%TF.FilePolarity,Positive*%
%FSLAX46Y46*%
G04 Gerber Fmt 4.6, Leading zero omitted, Abs format (unit mm)*
G04 Created by KiCad (PCBNEW (6.0.7)) date 2024-01-18 22:54:25*
%MOMM*%
%LPD*%
G01*
G04 APERTURE LIST*
%ADD10C,0.150000*%
%ADD11C,0.120000*%
G04 APERTURE END LIST*
D10*
X158630952Y-38702380D02*
X158630952Y-39416666D01*
X158583333Y-39559523D01*
X158488095Y-39654761D01*
X158345238Y-39702380D01*
X158250000Y-39702380D01*
X159583333Y-39702380D02*
X159107142Y-39702380D01*
X159107142Y-38702380D01*
X160488095Y-39607142D02*
X160440476Y-39654761D01*
X160297619Y-39702380D01*
X160202380Y-39702380D01*
X160059523Y-39654761D01*
X159964285Y-39559523D01*
X159916666Y-39464285D01*
X159869047Y-39273809D01*
X159869047Y-39130952D01*
X159916666Y-38940476D01*
X159964285Y-38845238D01*
X160059523Y-38750000D01*
X160202380Y-38702380D01*
X160297619Y-38702380D01*
X160440476Y-38750000D01*
X160488095Y-38797619D01*
X161202380Y-38702380D02*
X161202380Y-39416666D01*
X161154761Y-39559523D01*
X161059523Y-39654761D01*
X160916666Y-39702380D01*
X160821428Y-39702380D01*
X162154761Y-39702380D02*
X161678571Y-39702380D01*
X161678571Y-38702380D01*
X163059523Y-39607142D02*
X163011904Y-39654761D01*
X162869047Y-39702380D01*
X162773809Y-39702380D01*
X162630952Y-39654761D01*
X162535714Y-39559523D01*
X162488095Y-39464285D01*
X162440476Y-39273809D01*
X162440476Y-39130952D01*
X162488095Y-38940476D01*
X162535714Y-38845238D01*
X162630952Y-38750000D01*
X162773809Y-38702380D01*
X162869047Y-38702380D01*
X163011904Y-38750000D01*
X163059523Y-38797619D01*
X163773809Y-38702380D02*
X163773809Y-39416666D01*
X163726190Y-39559523D01*
X163630952Y-39654761D01*
X163488095Y-39702380D01*
X163392857Y-39702380D01*
X164726190Y-39702380D02*
X164250000Y-39702380D01*
X164250000Y-38702380D01*
X165630952Y-39607142D02*
X165583333Y-39654761D01*
X165440476Y-39702380D01*
X165345238Y-39702380D01*
X165202380Y-39654761D01*
X165107142Y-39559523D01*
X165059523Y-39464285D01*
X165011904Y-39273809D01*
X165011904Y-39130952D01*
X165059523Y-38940476D01*
X165107142Y-38845238D01*
X165202380Y-38750000D01*
X165345238Y-38702380D01*
X165440476Y-38702380D01*
X165583333Y-38750000D01*
X165630952Y-38797619D01*
X166345238Y-38702380D02*
X166345238Y-39416666D01*
X166297619Y-39559523D01*
X166202380Y-39654761D01*
X166059523Y-39702380D01*
X165964285Y-39702380D01*
X167297619Y-39702380D02*
X166821428Y-39702380D01*
X166821428Y-38702380D01*
X168202380Y-39607142D02*
X168154761Y-39654761D01*
X168011904Y-39702380D01*
X167916666Y-39702380D01*
X167773809Y-39654761D01*
X167678571Y-39559523D01*
X167630952Y-39464285D01*
X167583333Y-39273809D01*
X167583333Y-39130952D01*
X167630952Y-38940476D01*
X167678571Y-38845238D01*
X167773809Y-38750000D01*
X167916666Y-38702380D01*
X168011904Y-38702380D01*
X168154761Y-38750000D01*
X168202380Y-38797619D01*
%TO.C,SW3*%
X148300000Y-111950000D02*
X148300000Y-110950000D01*
X148300000Y-124950000D02*
X149300000Y-124950000D01*
X161300000Y-124950000D02*
X162300000Y-124950000D01*
X149300000Y-110950000D02*
X148300000Y-110950000D01*
X162300000Y-110950000D02*
X161300000Y-110950000D01*
X148300000Y-124950000D02*
X148300000Y-123950000D01*
X162300000Y-123950000D02*
X162300000Y-124950000D01*
X162300000Y-110950000D02*
X162300000Y-111950000D01*
%TO.C,SW2*%
X142250000Y-124950000D02*
X143250000Y-124950000D01*
X129250000Y-124950000D02*
X129250000Y-123950000D01*
X129250000Y-111950000D02*
X129250000Y-110950000D01*
X143250000Y-110950000D02*
X142250000Y-110950000D01*
X129250000Y-124950000D02*
X130250000Y-124950000D01*
X130250000Y-110950000D02*
X129250000Y-110950000D01*
X143250000Y-110950000D02*
X143250000Y-111950000D01*
X143250000Y-123950000D02*
X143250000Y-124950000D01*
%TO.C,SW1*%
X110150000Y-124950000D02*
X111150000Y-124950000D01*
X124150000Y-110950000D02*
X123150000Y-110950000D01*
X110150000Y-111950000D02*
X110150000Y-110950000D01*
X124150000Y-123950000D02*
X124150000Y-124950000D01*
X111150000Y-110950000D02*
X110150000Y-110950000D01*
X124150000Y-110950000D02*
X124150000Y-111950000D01*
X110150000Y-124950000D02*
X110150000Y-123950000D01*
X123150000Y-124950000D02*
X124150000Y-124950000D01*
%TO.C,SW5*%
X162250000Y-133400000D02*
X161250000Y-133400000D01*
X148250000Y-134400000D02*
X148250000Y-133400000D01*
X149250000Y-133400000D02*
X148250000Y-133400000D01*
X162250000Y-133400000D02*
X162250000Y-134400000D01*
X148250000Y-147400000D02*
X148250000Y-146400000D01*
X161250000Y-147400000D02*
X162250000Y-147400000D01*
X148250000Y-147400000D02*
X149250000Y-147400000D01*
X162250000Y-146400000D02*
X162250000Y-147400000D01*
%TO.C,SW7*%
X186200000Y-88300000D02*
X185200000Y-88300000D01*
X186200000Y-88300000D02*
X186200000Y-89300000D01*
X186200000Y-101300000D02*
X186200000Y-102300000D01*
X172200000Y-89300000D02*
X172200000Y-88300000D01*
X172200000Y-102300000D02*
X173200000Y-102300000D01*
X172200000Y-102300000D02*
X172200000Y-101300000D01*
X173200000Y-88300000D02*
X172200000Y-88300000D01*
X185200000Y-102300000D02*
X186200000Y-102300000D01*
%TO.C,SW8*%
X129200000Y-147400000D02*
X130200000Y-147400000D01*
X143200000Y-133400000D02*
X142200000Y-133400000D01*
X142200000Y-147400000D02*
X143200000Y-147400000D01*
X143200000Y-133400000D02*
X143200000Y-134400000D01*
X143200000Y-146400000D02*
X143200000Y-147400000D01*
X129200000Y-147400000D02*
X129200000Y-146400000D01*
X129200000Y-134400000D02*
X129200000Y-133400000D01*
X130200000Y-133400000D02*
X129200000Y-133400000D01*
%TO.C,SW9*%
X185150000Y-125000000D02*
X186150000Y-125000000D01*
X173150000Y-111000000D02*
X172150000Y-111000000D01*
X172150000Y-125000000D02*
X172150000Y-124000000D01*
X172150000Y-125000000D02*
X173150000Y-125000000D01*
X186150000Y-124000000D02*
X186150000Y-125000000D01*
X186150000Y-111000000D02*
X186150000Y-112000000D01*
X172150000Y-112000000D02*
X172150000Y-111000000D01*
X186150000Y-111000000D02*
X185150000Y-111000000D01*
D11*
%TO.C,J7*%
X106880000Y-40720000D02*
X106880000Y-58560000D01*
X104220000Y-40720000D02*
X104220000Y-58560000D01*
X104220000Y-38120000D02*
X105550000Y-38120000D01*
X104220000Y-40720000D02*
X106880000Y-40720000D01*
X104220000Y-39450000D02*
X104220000Y-38120000D01*
X104220000Y-58560000D02*
X106880000Y-58560000D01*
D10*
%TO.C,SW4*%
X130250000Y-91900000D02*
X129250000Y-91900000D01*
X129250000Y-105900000D02*
X129250000Y-104900000D01*
X143250000Y-104900000D02*
X143250000Y-105900000D01*
X143250000Y-91900000D02*
X143250000Y-92900000D01*
X129250000Y-92900000D02*
X129250000Y-91900000D01*
X129250000Y-105900000D02*
X130250000Y-105900000D01*
X142250000Y-105900000D02*
X143250000Y-105900000D01*
X143250000Y-91900000D02*
X142250000Y-91900000D01*
%TO.C,SW6*%
X167150000Y-88300000D02*
X166150000Y-88300000D01*
X167150000Y-88300000D02*
X167150000Y-89300000D01*
X153150000Y-89300000D02*
X153150000Y-88300000D01*
X166150000Y-102300000D02*
X167150000Y-102300000D01*
X153150000Y-102300000D02*
X153150000Y-101300000D01*
X153150000Y-102300000D02*
X154150000Y-102300000D01*
X154150000Y-88300000D02*
X153150000Y-88300000D01*
X167150000Y-101300000D02*
X167150000Y-102300000D01*
%TD*%
M02*
