%TF.GenerationSoftware,KiCad,Pcbnew,(6.0.7)*%
%TF.CreationDate,2024-02-04T00:46:34+09:00*%
%TF.ProjectId,pico_tracker,7069636f-5f74-4726-9163-6b65722e6b69,rev?*%
%TF.SameCoordinates,Original*%
%TF.FileFunction,Legend,Bot*%
%TF.FilePolarity,Positive*%
%FSLAX46Y46*%
G04 Gerber Fmt 4.6, Leading zero omitted, Abs format (unit mm)*
G04 Created by KiCad (PCBNEW (6.0.7)) date 2024-02-04 00:46:34*
%MOMM*%
%LPD*%
G01*
G04 APERTURE LIST*
%ADD10C,0.150000*%
%ADD11C,0.120000*%
G04 APERTURE END LIST*
D10*
X122550000Y-51700000D02*
X125950000Y-51700000D01*
X125950000Y-51700000D02*
X125950000Y-52750000D01*
X125950000Y-52750000D02*
X122550000Y-52750000D01*
X122550000Y-52750000D02*
X122550000Y-51700000D01*
X110150000Y-50250000D02*
X113550000Y-50250000D01*
X113550000Y-50250000D02*
X113550000Y-51300000D01*
X113550000Y-51300000D02*
X110150000Y-51300000D01*
X110150000Y-51300000D02*
X110150000Y-50250000D01*
X110200000Y-56500000D02*
X113600000Y-56500000D01*
X113600000Y-56500000D02*
X113600000Y-57550000D01*
X113600000Y-57550000D02*
X110200000Y-57550000D01*
X110200000Y-57550000D02*
X110200000Y-56500000D01*
X120000000Y-56500000D02*
X123400000Y-56500000D01*
X123400000Y-56500000D02*
X123400000Y-57550000D01*
X123400000Y-57550000D02*
X120000000Y-57550000D01*
X120000000Y-57550000D02*
X120000000Y-56500000D01*
X119950000Y-50250000D02*
X123350000Y-50250000D01*
X123350000Y-50250000D02*
X123350000Y-51300000D01*
X123350000Y-51300000D02*
X119950000Y-51300000D01*
X119950000Y-51300000D02*
X119950000Y-50250000D01*
X122500000Y-45450000D02*
X125900000Y-45450000D01*
X125900000Y-45450000D02*
X125900000Y-46500000D01*
X125900000Y-46500000D02*
X122500000Y-46500000D01*
X122500000Y-46500000D02*
X122500000Y-45450000D01*
X112750000Y-51700000D02*
X116150000Y-51700000D01*
X116150000Y-51700000D02*
X116150000Y-52750000D01*
X116150000Y-52750000D02*
X112750000Y-52750000D01*
X112750000Y-52750000D02*
X112750000Y-51700000D01*
X112700000Y-45450000D02*
X116100000Y-45450000D01*
X116100000Y-45450000D02*
X116100000Y-46500000D01*
X116100000Y-46500000D02*
X112700000Y-46500000D01*
X112700000Y-46500000D02*
X112700000Y-45450000D01*
X124538095Y-52416666D02*
X124061904Y-52416666D01*
X124633333Y-52702380D02*
X124300000Y-51702380D01*
X123966666Y-52702380D01*
X114738095Y-52416666D02*
X114261904Y-52416666D01*
X114833333Y-52702380D02*
X114500000Y-51702380D01*
X114166666Y-52702380D01*
X124488095Y-46166666D02*
X124011904Y-46166666D01*
X124583333Y-46452380D02*
X124250000Y-45452380D01*
X123916666Y-46452380D01*
X121628571Y-50728571D02*
X121485714Y-50776190D01*
X121438095Y-50823809D01*
X121390476Y-50919047D01*
X121390476Y-51061904D01*
X121438095Y-51157142D01*
X121485714Y-51204761D01*
X121580952Y-51252380D01*
X121961904Y-51252380D01*
X121961904Y-50252380D01*
X121628571Y-50252380D01*
X121533333Y-50300000D01*
X121485714Y-50347619D01*
X121438095Y-50442857D01*
X121438095Y-50538095D01*
X121485714Y-50633333D01*
X121533333Y-50680952D01*
X121628571Y-50728571D01*
X121961904Y-50728571D01*
X114688095Y-46166666D02*
X114211904Y-46166666D01*
X114783333Y-46452380D02*
X114450000Y-45452380D01*
X114116666Y-46452380D01*
X111878571Y-56978571D02*
X111735714Y-57026190D01*
X111688095Y-57073809D01*
X111640476Y-57169047D01*
X111640476Y-57311904D01*
X111688095Y-57407142D01*
X111735714Y-57454761D01*
X111830952Y-57502380D01*
X112211904Y-57502380D01*
X112211904Y-56502380D01*
X111878571Y-56502380D01*
X111783333Y-56550000D01*
X111735714Y-56597619D01*
X111688095Y-56692857D01*
X111688095Y-56788095D01*
X111735714Y-56883333D01*
X111783333Y-56930952D01*
X111878571Y-56978571D01*
X112211904Y-56978571D01*
X121678571Y-56978571D02*
X121535714Y-57026190D01*
X121488095Y-57073809D01*
X121440476Y-57169047D01*
X121440476Y-57311904D01*
X121488095Y-57407142D01*
X121535714Y-57454761D01*
X121630952Y-57502380D01*
X122011904Y-57502380D01*
X122011904Y-56502380D01*
X121678571Y-56502380D01*
X121583333Y-56550000D01*
X121535714Y-56597619D01*
X121488095Y-56692857D01*
X121488095Y-56788095D01*
X121535714Y-56883333D01*
X121583333Y-56930952D01*
X121678571Y-56978571D01*
X122011904Y-56978571D01*
X111828571Y-50728571D02*
X111685714Y-50776190D01*
X111638095Y-50823809D01*
X111590476Y-50919047D01*
X111590476Y-51061904D01*
X111638095Y-51157142D01*
X111685714Y-51204761D01*
X111780952Y-51252380D01*
X112161904Y-51252380D01*
X112161904Y-50252380D01*
X111828571Y-50252380D01*
X111733333Y-50300000D01*
X111685714Y-50347619D01*
X111638095Y-50442857D01*
X111638095Y-50538095D01*
X111685714Y-50633333D01*
X111733333Y-50680952D01*
X111828571Y-50728571D01*
X112161904Y-50728571D01*
%TO.C,U1*%
X142761904Y-53652380D02*
X142761904Y-54461904D01*
X142714285Y-54557142D01*
X142666666Y-54604761D01*
X142571428Y-54652380D01*
X142380952Y-54652380D01*
X142285714Y-54604761D01*
X142238095Y-54557142D01*
X142190476Y-54461904D01*
X142190476Y-53652380D01*
X141190476Y-54652380D02*
X141761904Y-54652380D01*
X141476190Y-54652380D02*
X141476190Y-53652380D01*
X141571428Y-53795238D01*
X141666666Y-53890476D01*
X141761904Y-53938095D01*
%TO.C,J5*%
X117532380Y-48016666D02*
X118246666Y-48016666D01*
X118389523Y-47969047D01*
X118484761Y-47873809D01*
X118532380Y-47730952D01*
X118532380Y-47635714D01*
X117532380Y-48969047D02*
X117532380Y-48492857D01*
X118008571Y-48445238D01*
X117960952Y-48492857D01*
X117913333Y-48588095D01*
X117913333Y-48826190D01*
X117960952Y-48921428D01*
X118008571Y-48969047D01*
X118103809Y-49016666D01*
X118341904Y-49016666D01*
X118437142Y-48969047D01*
X118484761Y-48921428D01*
X118532380Y-48826190D01*
X118532380Y-48588095D01*
X118484761Y-48492857D01*
X118437142Y-48445238D01*
%TO.C,J3*%
X127307380Y-48016666D02*
X128021666Y-48016666D01*
X128164523Y-47969047D01*
X128259761Y-47873809D01*
X128307380Y-47730952D01*
X128307380Y-47635714D01*
X127307380Y-48397619D02*
X127307380Y-49016666D01*
X127688333Y-48683333D01*
X127688333Y-48826190D01*
X127735952Y-48921428D01*
X127783571Y-48969047D01*
X127878809Y-49016666D01*
X128116904Y-49016666D01*
X128212142Y-48969047D01*
X128259761Y-48921428D01*
X128307380Y-48826190D01*
X128307380Y-48540476D01*
X128259761Y-48445238D01*
X128212142Y-48397619D01*
%TO.C,D1*%
X122852380Y-59661904D02*
X121852380Y-59661904D01*
X121852380Y-59900000D01*
X121900000Y-60042857D01*
X121995238Y-60138095D01*
X122090476Y-60185714D01*
X122280952Y-60233333D01*
X122423809Y-60233333D01*
X122614285Y-60185714D01*
X122709523Y-60138095D01*
X122804761Y-60042857D01*
X122852380Y-59900000D01*
X122852380Y-59661904D01*
X122852380Y-61185714D02*
X122852380Y-60614285D01*
X122852380Y-60900000D02*
X121852380Y-60900000D01*
X121995238Y-60804761D01*
X122090476Y-60709523D01*
X122138095Y-60614285D01*
%TO.C,J4*%
X127307380Y-54266666D02*
X128021666Y-54266666D01*
X128164523Y-54219047D01*
X128259761Y-54123809D01*
X128307380Y-53980952D01*
X128307380Y-53885714D01*
X127640714Y-55171428D02*
X128307380Y-55171428D01*
X127259761Y-54933333D02*
X127974047Y-54695238D01*
X127974047Y-55314285D01*
%TO.C,R3*%
X113366666Y-60902380D02*
X113700000Y-60426190D01*
X113938095Y-60902380D02*
X113938095Y-59902380D01*
X113557142Y-59902380D01*
X113461904Y-59950000D01*
X113414285Y-59997619D01*
X113366666Y-60092857D01*
X113366666Y-60235714D01*
X113414285Y-60330952D01*
X113461904Y-60378571D01*
X113557142Y-60426190D01*
X113938095Y-60426190D01*
X113033333Y-59902380D02*
X112414285Y-59902380D01*
X112747619Y-60283333D01*
X112604761Y-60283333D01*
X112509523Y-60330952D01*
X112461904Y-60378571D01*
X112414285Y-60473809D01*
X112414285Y-60711904D01*
X112461904Y-60807142D01*
X112509523Y-60854761D01*
X112604761Y-60902380D01*
X112890476Y-60902380D01*
X112985714Y-60854761D01*
X113033333Y-60807142D01*
%TO.C,U2*%
X123561904Y-69602380D02*
X123752380Y-69602380D01*
X123847619Y-69650000D01*
X123895238Y-69697619D01*
X123990476Y-69840476D01*
X124038095Y-70030952D01*
X124038095Y-70411904D01*
X123990476Y-70507142D01*
X123942857Y-70554761D01*
X123847619Y-70602380D01*
X123657142Y-70602380D01*
X123561904Y-70554761D01*
X123514285Y-70507142D01*
X123466666Y-70411904D01*
X123466666Y-70173809D01*
X123514285Y-70078571D01*
X123561904Y-70030952D01*
X123657142Y-69983333D01*
X123847619Y-69983333D01*
X123942857Y-70030952D01*
X123990476Y-70078571D01*
X124038095Y-70173809D01*
X123038095Y-70602380D02*
X123038095Y-69602380D01*
X122466666Y-70602380D01*
X122466666Y-69602380D01*
X121466666Y-70602380D02*
X122038095Y-70602380D01*
X121752380Y-70602380D02*
X121752380Y-69602380D01*
X121847619Y-69745238D01*
X121942857Y-69840476D01*
X122038095Y-69888095D01*
X121133333Y-69602380D02*
X120514285Y-69602380D01*
X120847619Y-69983333D01*
X120704761Y-69983333D01*
X120609523Y-70030952D01*
X120561904Y-70078571D01*
X120514285Y-70173809D01*
X120514285Y-70411904D01*
X120561904Y-70507142D01*
X120609523Y-70554761D01*
X120704761Y-70602380D01*
X120990476Y-70602380D01*
X121085714Y-70554761D01*
X121133333Y-70507142D01*
X119942857Y-70030952D02*
X120038095Y-69983333D01*
X120085714Y-69935714D01*
X120133333Y-69840476D01*
X120133333Y-69792857D01*
X120085714Y-69697619D01*
X120038095Y-69650000D01*
X119942857Y-69602380D01*
X119752380Y-69602380D01*
X119657142Y-69650000D01*
X119609523Y-69697619D01*
X119561904Y-69792857D01*
X119561904Y-69840476D01*
X119609523Y-69935714D01*
X119657142Y-69983333D01*
X119752380Y-70030952D01*
X119942857Y-70030952D01*
X120038095Y-70078571D01*
X120085714Y-70126190D01*
X120133333Y-70221428D01*
X120133333Y-70411904D01*
X120085714Y-70507142D01*
X120038095Y-70554761D01*
X119942857Y-70602380D01*
X119752380Y-70602380D01*
X119657142Y-70554761D01*
X119609523Y-70507142D01*
X119561904Y-70411904D01*
X119561904Y-70221428D01*
X119609523Y-70126190D01*
X119657142Y-70078571D01*
X119752380Y-70030952D01*
%TO.C,J10*%
X182032380Y-75440476D02*
X182746666Y-75440476D01*
X182889523Y-75392857D01*
X182984761Y-75297619D01*
X183032380Y-75154761D01*
X183032380Y-75059523D01*
X183032380Y-76440476D02*
X183032380Y-75869047D01*
X183032380Y-76154761D02*
X182032380Y-76154761D01*
X182175238Y-76059523D01*
X182270476Y-75964285D01*
X182318095Y-75869047D01*
X182032380Y-77059523D02*
X182032380Y-77154761D01*
X182080000Y-77250000D01*
X182127619Y-77297619D01*
X182222857Y-77345238D01*
X182413333Y-77392857D01*
X182651428Y-77392857D01*
X182841904Y-77345238D01*
X182937142Y-77297619D01*
X182984761Y-77250000D01*
X183032380Y-77154761D01*
X183032380Y-77059523D01*
X182984761Y-76964285D01*
X182937142Y-76916666D01*
X182841904Y-76869047D01*
X182651428Y-76821428D01*
X182413333Y-76821428D01*
X182222857Y-76869047D01*
X182127619Y-76916666D01*
X182080000Y-76964285D01*
X182032380Y-77059523D01*
%TO.C,J1*%
X116319047Y-43917380D02*
X116319047Y-42917380D01*
X115985714Y-43631666D01*
X115652380Y-42917380D01*
X115652380Y-43917380D01*
X115176190Y-43917380D02*
X115176190Y-42917380D01*
X114700000Y-43917380D02*
X114700000Y-42917380D01*
X114461904Y-42917380D01*
X114319047Y-42965000D01*
X114223809Y-43060238D01*
X114176190Y-43155476D01*
X114128571Y-43345952D01*
X114128571Y-43488809D01*
X114176190Y-43679285D01*
X114223809Y-43774523D01*
X114319047Y-43869761D01*
X114461904Y-43917380D01*
X114700000Y-43917380D01*
X113700000Y-43917380D02*
X113700000Y-42917380D01*
X113461904Y-44012619D02*
X112700000Y-44012619D01*
X112271428Y-42917380D02*
X112080952Y-42917380D01*
X111985714Y-42965000D01*
X111890476Y-43060238D01*
X111842857Y-43250714D01*
X111842857Y-43584047D01*
X111890476Y-43774523D01*
X111985714Y-43869761D01*
X112080952Y-43917380D01*
X112271428Y-43917380D01*
X112366666Y-43869761D01*
X112461904Y-43774523D01*
X112509523Y-43584047D01*
X112509523Y-43250714D01*
X112461904Y-43060238D01*
X112366666Y-42965000D01*
X112271428Y-42917380D01*
X111414285Y-42917380D02*
X111414285Y-43726904D01*
X111366666Y-43822142D01*
X111319047Y-43869761D01*
X111223809Y-43917380D01*
X111033333Y-43917380D01*
X110938095Y-43869761D01*
X110890476Y-43822142D01*
X110842857Y-43726904D01*
X110842857Y-42917380D01*
X110509523Y-42917380D02*
X109938095Y-42917380D01*
X110223809Y-43917380D02*
X110223809Y-42917380D01*
%TO.C,R1*%
X117866666Y-62052380D02*
X118200000Y-61576190D01*
X118438095Y-62052380D02*
X118438095Y-61052380D01*
X118057142Y-61052380D01*
X117961904Y-61100000D01*
X117914285Y-61147619D01*
X117866666Y-61242857D01*
X117866666Y-61385714D01*
X117914285Y-61480952D01*
X117961904Y-61528571D01*
X118057142Y-61576190D01*
X118438095Y-61576190D01*
X116914285Y-62052380D02*
X117485714Y-62052380D01*
X117200000Y-62052380D02*
X117200000Y-61052380D01*
X117295238Y-61195238D01*
X117390476Y-61290476D01*
X117485714Y-61338095D01*
%TO.C,R4*%
X125816666Y-79002380D02*
X126150000Y-78526190D01*
X126388095Y-79002380D02*
X126388095Y-78002380D01*
X126007142Y-78002380D01*
X125911904Y-78050000D01*
X125864285Y-78097619D01*
X125816666Y-78192857D01*
X125816666Y-78335714D01*
X125864285Y-78430952D01*
X125911904Y-78478571D01*
X126007142Y-78526190D01*
X126388095Y-78526190D01*
X124959523Y-78335714D02*
X124959523Y-79002380D01*
X125197619Y-77954761D02*
X125435714Y-78669047D01*
X124816666Y-78669047D01*
%TO.C,R2*%
X128066666Y-62752380D02*
X128400000Y-62276190D01*
X128638095Y-62752380D02*
X128638095Y-61752380D01*
X128257142Y-61752380D01*
X128161904Y-61800000D01*
X128114285Y-61847619D01*
X128066666Y-61942857D01*
X128066666Y-62085714D01*
X128114285Y-62180952D01*
X128161904Y-62228571D01*
X128257142Y-62276190D01*
X128638095Y-62276190D01*
X127685714Y-61847619D02*
X127638095Y-61800000D01*
X127542857Y-61752380D01*
X127304761Y-61752380D01*
X127209523Y-61800000D01*
X127161904Y-61847619D01*
X127114285Y-61942857D01*
X127114285Y-62038095D01*
X127161904Y-62180952D01*
X127733333Y-62752380D01*
X127114285Y-62752380D01*
%TO.C,J2*%
X126952380Y-43917380D02*
X126952380Y-42917380D01*
X126619047Y-43631666D01*
X126285714Y-42917380D01*
X126285714Y-43917380D01*
X125809523Y-43917380D02*
X125809523Y-42917380D01*
X125333333Y-43917380D02*
X125333333Y-42917380D01*
X125095238Y-42917380D01*
X124952380Y-42965000D01*
X124857142Y-43060238D01*
X124809523Y-43155476D01*
X124761904Y-43345952D01*
X124761904Y-43488809D01*
X124809523Y-43679285D01*
X124857142Y-43774523D01*
X124952380Y-43869761D01*
X125095238Y-43917380D01*
X125333333Y-43917380D01*
X124333333Y-43917380D02*
X124333333Y-42917380D01*
X124095238Y-44012619D02*
X123333333Y-44012619D01*
X123095238Y-43917380D02*
X123095238Y-42917380D01*
X122619047Y-43917380D02*
X122619047Y-42917380D01*
X122047619Y-43917380D01*
X122047619Y-42917380D01*
%TO.C,J8*%
X174083333Y-46722380D02*
X174083333Y-47436666D01*
X174130952Y-47579523D01*
X174226190Y-47674761D01*
X174369047Y-47722380D01*
X174464285Y-47722380D01*
X173464285Y-47150952D02*
X173559523Y-47103333D01*
X173607142Y-47055714D01*
X173654761Y-46960476D01*
X173654761Y-46912857D01*
X173607142Y-46817619D01*
X173559523Y-46770000D01*
X173464285Y-46722380D01*
X173273809Y-46722380D01*
X173178571Y-46770000D01*
X173130952Y-46817619D01*
X173083333Y-46912857D01*
X173083333Y-46960476D01*
X173130952Y-47055714D01*
X173178571Y-47103333D01*
X173273809Y-47150952D01*
X173464285Y-47150952D01*
X173559523Y-47198571D01*
X173607142Y-47246190D01*
X173654761Y-47341428D01*
X173654761Y-47531904D01*
X173607142Y-47627142D01*
X173559523Y-47674761D01*
X173464285Y-47722380D01*
X173273809Y-47722380D01*
X173178571Y-47674761D01*
X173130952Y-47627142D01*
X173083333Y-47531904D01*
X173083333Y-47341428D01*
X173130952Y-47246190D01*
X173178571Y-47198571D01*
X173273809Y-47150952D01*
%TO.C,J6*%
X117557380Y-54266666D02*
X118271666Y-54266666D01*
X118414523Y-54219047D01*
X118509761Y-54123809D01*
X118557380Y-53980952D01*
X118557380Y-53885714D01*
X117557380Y-55171428D02*
X117557380Y-54980952D01*
X117605000Y-54885714D01*
X117652619Y-54838095D01*
X117795476Y-54742857D01*
X117985952Y-54695238D01*
X118366904Y-54695238D01*
X118462142Y-54742857D01*
X118509761Y-54790476D01*
X118557380Y-54885714D01*
X118557380Y-55076190D01*
X118509761Y-55171428D01*
X118462142Y-55219047D01*
X118366904Y-55266666D01*
X118128809Y-55266666D01*
X118033571Y-55219047D01*
X117985952Y-55171428D01*
X117938333Y-55076190D01*
X117938333Y-54885714D01*
X117985952Y-54790476D01*
X118033571Y-54742857D01*
X118128809Y-54695238D01*
%TO.C,J9*%
X112442857Y-73342857D02*
X112357142Y-73371428D01*
X112214285Y-73371428D01*
X112157142Y-73342857D01*
X112128571Y-73314285D01*
X112100000Y-73257142D01*
X112100000Y-73200000D01*
X112128571Y-73142857D01*
X112157142Y-73114285D01*
X112214285Y-73085714D01*
X112328571Y-73057142D01*
X112385714Y-73028571D01*
X112414285Y-73000000D01*
X112442857Y-72942857D01*
X112442857Y-72885714D01*
X112414285Y-72828571D01*
X112385714Y-72800000D01*
X112328571Y-72771428D01*
X112185714Y-72771428D01*
X112100000Y-72800000D01*
X111842857Y-73371428D02*
X111842857Y-72771428D01*
X111614285Y-72771428D01*
X111557142Y-72800000D01*
X111528571Y-72828571D01*
X111500000Y-72885714D01*
X111500000Y-72971428D01*
X111528571Y-73028571D01*
X111557142Y-73057142D01*
X111614285Y-73085714D01*
X111842857Y-73085714D01*
X111242857Y-73057142D02*
X111042857Y-73057142D01*
X110957142Y-73371428D02*
X111242857Y-73371428D01*
X111242857Y-72771428D01*
X110957142Y-72771428D01*
X110728571Y-73200000D02*
X110442857Y-73200000D01*
X110785714Y-73371428D02*
X110585714Y-72771428D01*
X110385714Y-73371428D01*
X110185714Y-73371428D02*
X110185714Y-72771428D01*
X109842857Y-73371428D02*
X110100000Y-73028571D01*
X109842857Y-72771428D02*
X110185714Y-73114285D01*
X109585714Y-73057142D02*
X109385714Y-73057142D01*
X109300000Y-73371428D02*
X109585714Y-73371428D01*
X109585714Y-72771428D01*
X109300000Y-72771428D01*
X108700000Y-73371428D02*
X108900000Y-73085714D01*
X109042857Y-73371428D02*
X109042857Y-72771428D01*
X108814285Y-72771428D01*
X108757142Y-72800000D01*
X108728571Y-72828571D01*
X108700000Y-72885714D01*
X108700000Y-72971428D01*
X108728571Y-73028571D01*
X108757142Y-73057142D01*
X108814285Y-73085714D01*
X109042857Y-73085714D01*
X107985714Y-73371428D02*
X107985714Y-72771428D01*
X107642857Y-73371428D02*
X107900000Y-73028571D01*
X107642857Y-72771428D02*
X107985714Y-73114285D01*
X107385714Y-73371428D02*
X107385714Y-72771428D01*
X106814285Y-73371428D02*
X107100000Y-73371428D01*
X107100000Y-72771428D01*
X106328571Y-73371428D02*
X106614285Y-73371428D01*
X106614285Y-72771428D01*
X106157142Y-73342857D02*
X106071428Y-73371428D01*
X105928571Y-73371428D01*
X105871428Y-73342857D01*
X105842857Y-73314285D01*
X105814285Y-73257142D01*
X105814285Y-73200000D01*
X105842857Y-73142857D01*
X105871428Y-73114285D01*
X105928571Y-73085714D01*
X106042857Y-73057142D01*
X106100000Y-73028571D01*
X106128571Y-73000000D01*
X106157142Y-72942857D01*
X106157142Y-72885714D01*
X106128571Y-72828571D01*
X106100000Y-72800000D01*
X106042857Y-72771428D01*
X105900000Y-72771428D01*
X105814285Y-72800000D01*
X105614285Y-72771428D02*
X105471428Y-73371428D01*
X105357142Y-72942857D01*
X105242857Y-73371428D01*
X105100000Y-72771428D01*
X104871428Y-73371428D02*
X104871428Y-72771428D01*
X104671428Y-72771428D02*
X104328571Y-72771428D01*
X104500000Y-73371428D02*
X104500000Y-72771428D01*
X103785714Y-73314285D02*
X103814285Y-73342857D01*
X103900000Y-73371428D01*
X103957142Y-73371428D01*
X104042857Y-73342857D01*
X104100000Y-73285714D01*
X104128571Y-73228571D01*
X104157142Y-73114285D01*
X104157142Y-73028571D01*
X104128571Y-72914285D01*
X104100000Y-72857142D01*
X104042857Y-72800000D01*
X103957142Y-72771428D01*
X103900000Y-72771428D01*
X103814285Y-72800000D01*
X103785714Y-72828571D01*
X103528571Y-73371428D02*
X103528571Y-72771428D01*
X103528571Y-73057142D02*
X103185714Y-73057142D01*
X103185714Y-73371428D02*
X103185714Y-72771428D01*
D11*
%TO.C,REF1*%
X183150000Y-45580000D02*
X184480000Y-45580000D01*
X184480000Y-45580000D02*
X184480000Y-44250000D01*
X161500000Y-45580000D02*
X161500000Y-42920000D01*
X181880000Y-45580000D02*
X161500000Y-45580000D01*
X181880000Y-42920000D02*
X161500000Y-42920000D01*
X181880000Y-45580000D02*
X181880000Y-42920000D01*
%TO.C,U1*%
X152500000Y-59100000D02*
X152500000Y-59500000D01*
X152500000Y-43800000D02*
X152500000Y-44200000D01*
X140900000Y-79700000D02*
X140500000Y-79700000D01*
X152500000Y-36200000D02*
X152500000Y-36600000D01*
X152500000Y-54000000D02*
X152500000Y-54400000D01*
X143500000Y-79700000D02*
X143100000Y-79700000D01*
X131500000Y-59100000D02*
X131500000Y-59500000D01*
X131500000Y-43800000D02*
X131500000Y-44200000D01*
X131500000Y-31100000D02*
X131500000Y-31500000D01*
X131500000Y-36200000D02*
X131500000Y-36600000D01*
X152500000Y-28700000D02*
X152500000Y-29000000D01*
X131500000Y-71800000D02*
X131500000Y-72200000D01*
X131500000Y-54000000D02*
X131500000Y-54400000D01*
X131500000Y-51500000D02*
X131500000Y-51900000D01*
X152500000Y-69300000D02*
X152500000Y-69700000D01*
X152500000Y-66700000D02*
X152500000Y-67100000D01*
X152500000Y-31367000D02*
X149493000Y-31367000D01*
X152500000Y-38800000D02*
X152500000Y-39200000D01*
X152500000Y-56500000D02*
X152500000Y-56900000D01*
X131500000Y-64200000D02*
X131500000Y-64600000D01*
X152500000Y-33700000D02*
X152500000Y-34100000D01*
X131500000Y-33700000D02*
X131500000Y-34100000D01*
X131500000Y-61600000D02*
X131500000Y-62000000D01*
X152500000Y-61600000D02*
X152500000Y-62000000D01*
X152500000Y-46400000D02*
X152500000Y-46800000D01*
X152500000Y-71800000D02*
X152500000Y-72200000D01*
X131500000Y-48900000D02*
X131500000Y-49300000D01*
X131500000Y-79700000D02*
X138300000Y-79700000D01*
X149493000Y-31367000D02*
X149493000Y-28700000D01*
X152500000Y-48900000D02*
X152500000Y-49300000D01*
X131500000Y-46400000D02*
X131500000Y-46800000D01*
X152500000Y-41300000D02*
X152500000Y-41700000D01*
X152500000Y-28700000D02*
X131500000Y-28700000D01*
X131500000Y-74300000D02*
X131500000Y-74700000D01*
X131500000Y-38800000D02*
X131500000Y-39200000D01*
X145700000Y-79700000D02*
X152500000Y-79700000D01*
X152500000Y-76900000D02*
X152500000Y-77300000D01*
X131500000Y-28700000D02*
X131500000Y-29000000D01*
X131500000Y-76900000D02*
X131500000Y-77300000D01*
X131500000Y-56500000D02*
X131500000Y-56900000D01*
X131500000Y-41300000D02*
X131500000Y-41700000D01*
X152500000Y-64200000D02*
X152500000Y-64600000D01*
X131500000Y-66700000D02*
X131500000Y-67100000D01*
X131500000Y-69300000D02*
X131500000Y-69700000D01*
X152500000Y-51500000D02*
X152500000Y-51900000D01*
X152500000Y-31100000D02*
X152500000Y-31500000D01*
X152500000Y-74300000D02*
X152500000Y-74700000D01*
%TO.C,J5*%
X117080000Y-49680000D02*
X117080000Y-48350000D01*
X109340000Y-49680000D02*
X109340000Y-47020000D01*
X114480000Y-49680000D02*
X114480000Y-47020000D01*
X114480000Y-47020000D02*
X109340000Y-47020000D01*
X115750000Y-49680000D02*
X117080000Y-49680000D01*
X114480000Y-49680000D02*
X109340000Y-49680000D01*
%TO.C,J3*%
X126855000Y-49680000D02*
X126855000Y-48350000D01*
X124255000Y-49680000D02*
X119115000Y-49680000D01*
X119115000Y-49680000D02*
X119115000Y-47020000D01*
X124255000Y-49680000D02*
X124255000Y-47020000D01*
X125525000Y-49680000D02*
X126855000Y-49680000D01*
X124255000Y-47020000D02*
X119115000Y-47020000D01*
%TO.C,D1*%
X121400000Y-61900000D02*
X119700000Y-61900000D01*
X121400000Y-61900000D02*
X121400000Y-59350000D01*
X119700000Y-61900000D02*
X119700000Y-59350000D01*
%TO.C,J4*%
X119115000Y-55930000D02*
X119115000Y-53270000D01*
X124255000Y-55930000D02*
X119115000Y-55930000D01*
X124255000Y-53270000D02*
X119115000Y-53270000D01*
X125525000Y-55930000D02*
X126855000Y-55930000D01*
X126855000Y-55930000D02*
X126855000Y-54600000D01*
X124255000Y-55930000D02*
X124255000Y-53270000D01*
%TO.C,R3*%
X110537258Y-59877500D02*
X110062742Y-59877500D01*
X110537258Y-60922500D02*
X110062742Y-60922500D01*
%TO.C,U3*%
X157080000Y-30900000D02*
X157080000Y-29570000D01*
X157080000Y-32170000D02*
X157080000Y-44930000D01*
X157080000Y-44930000D02*
X154420000Y-44930000D01*
X157080000Y-32170000D02*
X154420000Y-32170000D01*
X157080000Y-29570000D02*
X155750000Y-29570000D01*
X154420000Y-32170000D02*
X154420000Y-44930000D01*
%TO.C,U2*%
X116610000Y-65050000D02*
X126890000Y-65050000D01*
X122750000Y-65110000D02*
X124400000Y-65110000D01*
X119100000Y-75390000D02*
X119100000Y-65110000D01*
X126890000Y-75450000D02*
X116610000Y-75450000D01*
X124400000Y-65110000D02*
X124400000Y-75390000D01*
X124400000Y-75390000D02*
X119100000Y-75390000D01*
X126890000Y-65050000D02*
X126890000Y-75450000D01*
X116610000Y-75450000D02*
X116610000Y-65050000D01*
X119100000Y-65110000D02*
X120750000Y-65110000D01*
X120750000Y-65110000D02*
G75*
G03*
X122750000Y-65110000I1000000J0D01*
G01*
%TO.C,J10*%
X178980000Y-77580000D02*
X158600000Y-77580000D01*
X181580000Y-77580000D02*
X181580000Y-76250000D01*
X178980000Y-77580000D02*
X178980000Y-74920000D01*
X158600000Y-77580000D02*
X158600000Y-74920000D01*
X178980000Y-74920000D02*
X158600000Y-74920000D01*
X180250000Y-77580000D02*
X181580000Y-77580000D01*
%TO.C,J1*%
X110400000Y-42300000D02*
X115850000Y-42300000D01*
X110150000Y-28750000D02*
X110150000Y-30100000D01*
X115850000Y-40250000D02*
X115850000Y-36650000D01*
X115850000Y-34750000D02*
X115850000Y-33250000D01*
X115350000Y-30100000D02*
X115350000Y-28750000D01*
X115850000Y-30100000D02*
X115350000Y-30100000D01*
X109650000Y-40450000D02*
X109650000Y-40750000D01*
X115350000Y-28750000D02*
X110150000Y-28750000D01*
X109650000Y-30100000D02*
X109650000Y-31300000D01*
X115850000Y-31400000D02*
X117200000Y-31400000D01*
X109650000Y-33250000D02*
X109650000Y-38500000D01*
X110150000Y-30100000D02*
X109650000Y-30100000D01*
X115850000Y-31400000D02*
X115850000Y-30100000D01*
X115850000Y-33250000D02*
X117200000Y-33250000D01*
%TO.C,R1*%
X114762742Y-62122500D02*
X115237258Y-62122500D01*
X114762742Y-61077500D02*
X115237258Y-61077500D01*
%TO.C,R4*%
X122612742Y-77977500D02*
X123087258Y-77977500D01*
X122612742Y-79022500D02*
X123087258Y-79022500D01*
%TO.C,R2*%
X125437258Y-62822500D02*
X124962742Y-62822500D01*
X125437258Y-61777500D02*
X124962742Y-61777500D01*
%TO.C,J2*%
X121400000Y-40450000D02*
X121400000Y-40750000D01*
X127600000Y-34750000D02*
X127600000Y-33250000D01*
X127100000Y-28750000D02*
X121900000Y-28750000D01*
X121400000Y-33250000D02*
X121400000Y-38500000D01*
X127100000Y-30100000D02*
X127100000Y-28750000D01*
X121400000Y-30100000D02*
X121400000Y-31300000D01*
X127600000Y-30100000D02*
X127100000Y-30100000D01*
X121900000Y-30100000D02*
X121400000Y-30100000D01*
X121900000Y-28750000D02*
X121900000Y-30100000D01*
X127600000Y-31400000D02*
X127600000Y-30100000D01*
X127600000Y-40250000D02*
X127600000Y-36650000D01*
X127600000Y-33250000D02*
X128950000Y-33250000D01*
X122150000Y-42300000D02*
X127600000Y-42300000D01*
X127600000Y-31400000D02*
X128950000Y-31400000D01*
%TO.C,J8*%
X175080000Y-50870000D02*
X175080000Y-71250000D01*
X175080000Y-50870000D02*
X172420000Y-50870000D01*
X175080000Y-49600000D02*
X175080000Y-48270000D01*
X175080000Y-71250000D02*
X172420000Y-71250000D01*
X175080000Y-48270000D02*
X173750000Y-48270000D01*
X172420000Y-50870000D02*
X172420000Y-71250000D01*
%TO.C,J6*%
X117105000Y-55930000D02*
X117105000Y-54600000D01*
X109365000Y-55930000D02*
X109365000Y-53270000D01*
X115775000Y-55930000D02*
X117105000Y-55930000D01*
X114505000Y-53270000D02*
X109365000Y-53270000D01*
X114505000Y-55930000D02*
X109365000Y-55930000D01*
X114505000Y-55930000D02*
X114505000Y-53270000D01*
%TO.C,J9*%
X104525000Y-64630000D02*
X104525000Y-65200000D01*
X109725000Y-69260000D02*
X109725000Y-70280000D01*
X111165000Y-65200000D02*
X109725000Y-65200000D01*
X104525000Y-69260000D02*
X104525000Y-70280000D01*
X104525000Y-66720000D02*
X104525000Y-67740000D01*
X109725000Y-66720000D02*
X109725000Y-67740000D01*
X109725000Y-64630000D02*
X104525000Y-64630000D01*
X109725000Y-64630000D02*
X109725000Y-65200000D01*
X104525000Y-71800000D02*
X104525000Y-72370000D01*
X109725000Y-71800000D02*
X109725000Y-72370000D01*
X109725000Y-72370000D02*
X104525000Y-72370000D01*
%TD*%
M02*
